<svg width="42" height="42" viewBox="0 0 42 42" fill="none" xmlns="http://www.w3.org/2000/svg">
<path d="M21 35C24.713 35 28.274 33.525 30.8995 30.8995C33.525 28.274 35 24.713 35 21C35 17.287 33.525 13.726 30.8995 11.1005C28.274 8.475 24.713 7 21 7C17.287 7 13.726 8.475 11.1005 11.1005C8.475 13.726 7 17.287 7 21C7 24.713 8.475 28.274 11.1005 30.8995C13.726 33.525 17.287 35 21 35V35ZM21 38.5C11.3348 38.5 3.5 30.6652 3.5 21C3.5 11.3348 11.3348 3.5 21 3.5C30.6652 3.5 38.5 11.3348 38.5 21C38.5 30.6652 30.6652 38.5 21 38.5ZM19.25 28H22.75V31.5H19.25V28ZM19.25 10.5H22.75V24.5H19.25V10.5Z" fill="#B2D235"/>
</svg>
