<svg width="44" height="21" viewBox="0 0 44 21" fill="none" xmlns="http://www.w3.org/2000/svg">
<path d="M1.45833 11.6667H38.7542L33.4604 18.025C33.3378 18.1725 33.2455 18.3426 33.1887 18.5258C33.1319 18.7089 33.1117 18.9015 33.1293 19.0924C33.1649 19.478 33.3522 19.8337 33.65 20.0813C33.9478 20.3288 34.3318 20.4479 34.7174 20.4123C35.103 20.3768 35.4587 20.1895 35.7062 19.8917L42.9979 11.1417C43.047 11.0721 43.0908 10.999 43.1292 10.9229C43.1292 10.85 43.2021 10.8063 43.2312 10.7333C43.2973 10.5661 43.332 10.3881 43.3333 10.2083C43.332 10.0285 43.2973 9.85055 43.2312 9.68334C43.2312 9.61042 43.1583 9.56667 43.1292 9.49375C43.0908 9.41772 43.047 9.3446 42.9979 9.275L35.7062 0.525003C35.5691 0.360382 35.3974 0.227995 35.2033 0.137256C35.0093 0.0465165 34.7976 -0.000345146 34.5833 2.78594e-06C34.2426 -0.000662962 33.9124 0.118009 33.65 0.335419C33.5023 0.457845 33.3803 0.6082 33.2908 0.777873C33.2013 0.947546 33.1462 1.1332 33.1286 1.32421C33.111 1.51522 33.1312 1.70782 33.1882 1.891C33.2451 2.07417 33.3376 2.24431 33.4604 2.39167L38.7542 8.75H1.45833C1.07156 8.75 0.700627 8.90365 0.427136 9.17714C0.153646 9.45063 0 9.82156 0 10.2083C0 10.5951 0.153646 10.966 0.427136 11.2395C0.700627 11.513 1.07156 11.6667 1.45833 11.6667Z" fill="#B2D235"/>
</svg>
