<svg width="40" height="40" viewBox="0 0 40 40" fill="none" xmlns="http://www.w3.org/2000/svg">
<path fill-rule="evenodd" clip-rule="evenodd" d="M2.5 35C2.5 35.663 2.76339 36.2989 3.23223 36.7678C3.70107 37.2366 4.33696 37.5 5 37.5L35 37.5C35.663 37.5 36.2989 37.2366 36.7678 36.7678C37.2366 36.2989 37.5 35.663 37.5 35L37.5 5C37.5 4.33696 37.2366 3.70107 36.7678 3.23223C36.2989 2.76339 35.663 2.5 35 2.5L5 2.5C4.33696 2.5 3.70108 2.76339 3.23224 3.23223C2.7634 3.70107 2.5 4.33696 2.5 5L2.5 35ZM40 35C40 36.3261 39.4732 37.5979 38.5355 38.5355C37.5979 39.4732 36.3261 40 35 40L5 40C3.67392 40 2.40215 39.4732 1.46447 38.5355C0.526785 37.5978 3.21184e-07 36.3261 4.37114e-07 35L3.0598e-06 5C3.17573e-06 3.67391 0.526788 2.40215 1.46447 1.46446C2.40215 0.526782 3.67392 -3.17573e-06 5 -3.0598e-06L35 -4.37114e-07C36.3261 -3.21184e-07 37.5979 0.526785 38.5355 1.46447C39.4732 2.40215 40 3.67392 40 5L40 35ZM18.75 28.75C18.75 29.0815 18.8817 29.3995 19.1161 29.6339C19.3505 29.8683 19.6685 30 20 30C20.3315 30 20.6495 29.8683 20.8839 29.6339C21.1183 29.3995 21.25 29.0815 21.25 28.75L21.25 14.2675L26.615 19.635C26.8497 19.8697 27.1681 20.0016 27.5 20.0016C27.8319 20.0016 28.1503 19.8697 28.385 19.635C28.6197 19.4003 28.7516 19.0819 28.7516 18.75C28.7516 18.4181 28.6197 18.0997 28.385 17.865L20.885 10.365C20.7689 10.2486 20.6309 10.1562 20.4791 10.0932C20.3272 10.0302 20.1644 9.99776 20 9.99776C19.8356 9.99776 19.6728 10.0302 19.5209 10.0932C19.3691 10.1562 19.2311 10.2486 19.115 10.365L11.615 17.865C11.3803 18.0997 11.2484 18.4181 11.2484 18.75C11.2484 19.0819 11.3803 19.4003 11.615 19.635C11.8497 19.8697 12.1681 20.0016 12.5 20.0016C12.8319 20.0016 13.1503 19.8697 13.385 19.635L18.75 14.2675L18.75 28.75Z" fill="#303030"/>
</svg>
