<svg width="93" height="93" viewBox="0 0 93 93" fill="none" xmlns="http://www.w3.org/2000/svg"><g filter="url(#a)" fill="#B2D235"><path d="M76.552 12.448C68.525 4.42 57.852 0 46.5 0S24.475 4.42 16.448 12.448C8.42 20.475 4 31.148 4 42.5s4.42 22.025 12.448 30.052C24.475 80.58 35.148 85 46.5 85s22.025-4.42 30.052-12.448C84.58 64.525 89 53.852 89 42.5s-4.42-22.025-12.448-30.052zm-1.878 58.226c-7.526 7.525-17.531 11.67-28.174 11.67s-20.648-4.145-28.174-11.67C10.801 63.148 6.656 53.143 6.656 42.5s4.145-20.648 11.67-28.174C25.852 6.801 35.857 2.656 46.5 2.656s20.648 4.145 28.174 11.67c7.525 7.526 11.67 17.531 11.67 28.174s-4.145 20.648-11.67 28.174z"/><path d="M11.969 42.5c0-19.04 15.49-34.531 34.531-34.531 6.868 0 13.501 2.01 19.184 5.814a1.328 1.328 0 0 0 1.478-2.207A37.014 37.014 0 0 0 46.5 5.312c-9.933 0-19.272 3.869-26.296 10.892C13.181 23.229 9.313 32.567 9.313 42.5a37.124 37.124 0 0 0 9.469 24.79 1.325 1.325 0 0 0 1.875.105c.547-.49.593-1.33.104-1.876A34.472 34.472 0 0 1 11.969 42.5zM77.425 21.839a1.328 1.328 0 1 0-2.208 1.477A34.367 34.367 0 0 1 81.032 42.5c0 19.04-15.491 34.531-34.531 34.531-7.9 0-15.622-2.736-21.743-7.703a1.328 1.328 0 1 0-1.674 2.063A37.27 37.27 0 0 0 46.5 79.688c9.933 0 19.271-3.869 26.295-10.892C79.82 61.772 83.688 52.433 83.688 42.5c0-7.395-2.166-14.54-6.263-20.661zM69.52 16.76a34.842 34.842 0 0 1 2.558 2.541 1.325 1.325 0 0 0 1.876.091 1.328 1.328 0 0 0 .091-1.876 37.578 37.578 0 0 0-2.755-2.735 1.328 1.328 0 0 0-1.77 1.98z"/><path d="M46.5 17.266c.733 0 1.328-.595 1.328-1.328v-3.985a1.328 1.328 0 0 0-2.656 0v3.985c0 .733.595 1.328 1.328 1.328zM45.172 69.063v3.984a1.328 1.328 0 0 0 2.656 0v-3.984a1.328 1.328 0 1 0-2.656 0zM21.266 42.5c0-.733-.595-1.328-1.328-1.328h-3.985a1.328 1.328 0 0 0 0 2.656h3.985c.733 0 1.328-.595 1.328-1.328zM71.734 42.5c0 .733.595 1.328 1.329 1.328h3.984a1.328 1.328 0 0 0 0-2.656h-3.984c-.734 0-1.329.595-1.329 1.328zM34.369 18.832l-1.992-3.45a1.328 1.328 0 1 0-2.3 1.328l1.991 3.45a1.328 1.328 0 1 0 2.3-1.328zM60.931 64.84a1.328 1.328 0 0 0-2.3 1.328l1.992 3.45a1.328 1.328 0 1 0 2.3-1.328l-1.992-3.45zM20.046 59.102c.226 0 .454-.057.663-.178l3.45-1.992a1.328 1.328 0 0 0-1.327-2.3l-3.451 1.991a1.328 1.328 0 0 0 .665 2.479zM69.505 30.547c.226 0 .454-.057.663-.178l3.451-1.992a1.328 1.328 0 1 0-1.328-2.3l-3.45 1.992a1.328 1.328 0 0 0 .665 2.478zM62.438 14.895a1.328 1.328 0 0 0-1.815.487l-1.992 3.45a1.328 1.328 0 0 0 2.3 1.328l1.993-3.45a1.328 1.328 0 0 0-.486-1.815zM33.883 64.354a1.328 1.328 0 0 0-1.815.486l-1.992 3.45a1.328 1.328 0 0 0 2.3 1.328l1.993-3.45a1.328 1.328 0 0 0-.486-1.814zM68.84 56.931l3.45 1.992a1.328 1.328 0 0 0 1.328-2.3l-3.45-1.992a1.328 1.328 0 1 0-1.329 2.3zM24.16 28.069l-3.451-1.993a1.328 1.328 0 1 0-1.328 2.3l3.45 1.993a1.328 1.328 0 0 0 1.328-2.3zM55.746 59.84a1.328 1.328 0 0 0 1.149-1.992l-7.368-12.761c.596-.697.957-1.6.957-2.587a3.99 3.99 0 0 0-2.656-3.756V21.25a1.328 1.328 0 1 0-2.656 0v17.494a3.99 3.99 0 0 0-2.656 3.756 3.989 3.989 0 0 0 4.712 3.917l7.366 12.76c.246.425.693.663 1.152.663zM45.172 42.5a1.33 1.33 0 0 1 1.328-1.328 1.33 1.33 0 0 1 1.328 1.328 1.33 1.33 0 0 1-1.328 1.328 1.33 1.33 0 0 1-1.328-1.328z"/></g><defs><filter id="a" x="0" y="0" width="93" height="93" filterUnits="userSpaceOnUse" color-interpolation-filters="sRGB"><feFlood flood-opacity="0" result="BackgroundImageFix"/><feColorMatrix in="SourceAlpha" values="0 0 0 0 0 0 0 0 0 0 0 0 0 0 0 0 0 0 127 0"/><feOffset dy="4"/><feGaussianBlur stdDeviation="2"/><feColorMatrix values="0 0 0 0 0 0 0 0 0 0 0 0 0 0 0 0 0 0 0.25 0"/><feBlend in2="BackgroundImageFix" result="effect1_dropShadow"/><feBlend in="SourceGraphic" in2="effect1_dropShadow" result="shape"/></filter></defs></svg>