<svg width="85" height="85" viewBox="0 0 85 85" fill="none" xmlns="http://www.w3.org/2000/svg">
<path d="M72.5521 12.4479C64.5248 4.42066 53.8521 0 42.5 0C31.1479 0 20.4752 4.42066 12.4479 12.4479C4.4205 20.475 0 31.1479 0 42.5C0 53.8521 4.42066 64.5248 12.4479 72.5521C20.475 80.5795 31.1479 85 42.5 85C53.8521 85 64.5248 80.5793 72.5521 72.5521C80.5795 64.525 85 53.8521 85 42.5C85 31.1479 80.5793 20.4752 72.5521 12.4479ZM70.6738 70.6738C63.1484 78.1993 53.1426 82.3438 42.5 82.3438C31.8574 82.3438 21.8516 78.1993 14.3262 70.6738C6.80066 63.1484 2.65625 53.1426 2.65625 42.5C2.65625 31.8574 6.80066 21.8516 14.3262 14.3262C21.8516 6.80066 31.8574 2.65625 42.5 2.65625C53.1426 2.65625 63.1484 6.80066 70.6738 14.3262C78.1993 21.8516 82.3438 31.8574 82.3438 42.5C82.3438 53.1426 78.1993 63.1484 70.6738 70.6738Z" fill="#B2D235"/>
<path d="M7.96875 42.5C7.96875 23.4595 23.4595 7.96875 42.5 7.96875C49.3677 7.96875 56.0014 9.97937 61.6839 13.7833C62.2934 14.1913 63.1183 14.028 63.5264 13.4184C63.9344 12.8089 63.7711 11.984 63.1615 11.5759C57.0403 7.47834 49.8957 5.3125 42.5 5.3125C32.5668 5.3125 23.2282 9.18066 16.2045 16.2045C9.18066 23.2282 5.3125 32.5668 5.3125 42.5C5.3125 51.6641 8.67498 60.4682 14.7807 67.2908C15.043 67.584 15.4062 67.7332 15.7708 67.7332C16.0861 67.7332 16.4027 67.6217 16.656 67.3947C17.2025 66.9055 17.2492 66.0659 16.7599 65.5194C11.091 59.1846 7.96875 51.0095 7.96875 42.5Z" fill="#B2D235"/>
<path d="M73.4247 21.839C73.0167 21.2294 72.1917 21.0661 71.5823 21.4741C70.9728 21.8822 70.8093 22.7071 71.2174 23.3166C75.0211 28.999 77.0318 35.6326 77.0318 42.5002C77.0318 61.5407 61.541 77.0314 42.5005 77.0314C34.601 77.0314 26.8791 74.2957 20.7576 69.3281C20.188 68.8659 19.3516 68.9529 18.8894 69.5225C18.4272 70.0921 18.5142 70.9285 19.0838 71.3907C25.6771 76.7411 33.9934 79.6877 42.5005 79.6877C52.4337 79.6877 61.7723 75.8195 68.796 68.7957C75.8198 61.7719 79.688 52.4334 79.688 42.5002C79.688 35.1047 77.5222 27.96 73.4247 21.839Z" fill="#B2D235"/>
<path d="M65.5191 16.7602C66.4121 17.5593 67.273 18.4144 68.0781 19.3016C68.3402 19.5905 68.7004 19.7372 69.062 19.7372C69.3803 19.7372 69.6999 19.6233 69.9542 19.3926C70.4972 18.8997 70.5381 18.0596 70.0452 17.5164C69.1786 16.5615 68.2517 15.6411 67.2905 14.7808C66.7439 14.2917 65.9042 14.3382 65.4152 14.8847C64.9261 15.4313 64.9724 16.271 65.5191 16.7602Z" fill="#B2D235"/>
<path d="M42.5 17.2656C43.2335 17.2656 43.8281 16.671 43.8281 15.9375V11.9531C43.8281 11.2197 43.2335 10.625 42.5 10.625C41.7665 10.625 41.1719 11.2197 41.1719 11.9531V15.9375C41.1719 16.671 41.7665 17.2656 42.5 17.2656Z" fill="#B2D235"/>
<path d="M41.1719 69.0625V73.0469C41.1719 73.7803 41.7665 74.375 42.5 74.375C43.2335 74.375 43.8281 73.7803 43.8281 73.0469V69.0625C43.8281 68.329 43.2335 67.7344 42.5 67.7344C41.7665 67.7344 41.1719 68.329 41.1719 69.0625Z" fill="#B2D235"/>
<path d="M17.2656 42.5C17.2656 41.7665 16.671 41.1719 15.9375 41.1719H11.9531C11.2197 41.1719 10.625 41.7665 10.625 42.5C10.625 43.2335 11.2197 43.8281 11.9531 43.8281H15.9375C16.671 43.8281 17.2656 43.2335 17.2656 42.5Z" fill="#B2D235"/>
<path d="M67.7344 42.5C67.7344 43.2335 68.329 43.8281 69.0625 43.8281H73.0469C73.7803 43.8281 74.375 43.2335 74.375 42.5C74.375 41.7665 73.7803 41.1719 73.0469 41.1719H69.0625C68.329 41.1719 67.7344 41.7665 67.7344 42.5Z" fill="#B2D235"/>
<path d="M30.3688 18.8321L28.3766 15.3815C28.0099 14.7461 27.1976 14.5288 26.5624 14.8954C25.9273 15.2621 25.7096 16.0744 26.0763 16.7096L28.0685 20.1602C28.3146 20.5862 28.761 20.8245 29.22 20.8245C29.4453 20.8245 29.6737 20.767 29.8829 20.6463C30.5179 20.2796 30.7356 19.4673 30.3688 18.8321Z" fill="#B2D235"/>
<path d="M56.9313 64.8396C56.5646 64.2045 55.7521 63.9871 55.1171 64.3535C54.4819 64.7203 54.2643 65.5326 54.631 66.1677L56.6232 69.6184C56.8693 70.0444 57.3157 70.2826 57.7747 70.2826C58 70.2826 58.2284 70.2252 58.4376 70.1045C59.0728 69.7377 59.2904 68.9254 58.9237 68.2902L56.9313 64.8396Z" fill="#B2D235"/>
<path d="M16.0463 59.102C16.2715 59.102 16.5 59.0446 16.7092 58.9239L20.1598 56.9317C20.795 56.565 21.0126 55.7526 20.6459 55.1175C20.2792 54.4823 19.4667 54.265 18.8317 54.6314L15.381 56.6236C14.7459 56.9903 14.5282 57.8026 14.8949 58.4378C15.1408 58.8638 15.5872 59.102 16.0463 59.102Z" fill="#B2D235"/>
<path d="M65.5055 30.5471C65.7308 30.5471 65.9592 30.4896 66.1684 30.3689L69.619 28.3767C70.2542 28.01 70.4719 27.1977 70.1051 26.5625C69.7384 25.9273 68.9261 25.71 68.2909 26.0764L64.8403 28.0686C64.2051 28.4353 63.9874 29.2477 64.3542 29.8828C64.6002 30.3088 65.0466 30.5471 65.5055 30.5471Z" fill="#B2D235"/>
<path d="M58.4375 14.8953C57.8023 14.5284 56.99 14.746 56.6232 15.3814L54.631 18.832C54.2643 19.4672 54.4819 20.2795 55.1171 20.6462C55.3263 20.7671 55.5546 20.8244 55.78 20.8244C56.2391 20.8244 56.6855 20.5861 56.9315 20.1602L58.9237 16.7095C59.2903 16.0743 59.0726 15.262 58.4375 14.8953Z" fill="#B2D235"/>
<path d="M29.8827 64.3534C29.2476 63.9867 28.4353 64.2044 28.0685 64.8395L26.0763 68.2902C25.7096 68.9253 25.9273 69.7376 26.5624 70.1044C26.7716 70.2252 26.9999 70.2825 27.2253 70.2825C27.6844 70.2825 28.1308 70.0443 28.3768 69.6183L30.369 66.1676C30.7356 65.5325 30.5179 64.7202 29.8827 64.3534Z" fill="#B2D235"/>
<path d="M64.8395 56.9314L68.2901 58.9236C68.4993 59.0445 68.7276 59.1017 68.953 59.1017C69.4121 59.1017 69.8585 58.8635 70.1045 58.4375C70.4712 57.8023 70.2536 56.99 69.6184 56.6233L66.1678 54.6311C65.5326 54.2642 64.7203 54.482 64.3536 55.1172C63.9867 55.7524 64.2043 56.5647 64.8395 56.9314Z" fill="#B2D235"/>
<path d="M20.1595 28.0686L16.7089 26.0764C16.0737 25.7095 15.2614 25.9273 14.8947 26.5625C14.528 27.1977 14.7456 28.01 15.3808 28.3767L18.8314 30.3689C19.0406 30.4898 19.2689 30.547 19.4943 30.547C19.9534 30.547 20.3998 30.3088 20.6458 29.8828C21.0124 29.2476 20.7947 28.4353 20.1595 28.0686Z" fill="#B2D235"/>
<path d="M51.7458 59.8405C51.971 59.8405 52.1995 59.7831 52.4087 59.6624C53.0438 59.2956 53.2615 58.4833 52.8948 57.8481L45.527 45.0867C46.1231 44.3899 46.4844 43.4866 46.4844 42.5C46.4844 40.7686 45.3739 39.2922 43.8281 38.7441V21.25C43.8281 20.5165 43.2335 19.9219 42.5 19.9219C41.7665 19.9219 41.1719 20.5165 41.1719 21.25V38.7441C39.6261 39.2922 38.5156 40.7686 38.5156 42.5C38.5156 44.6971 40.303 46.4844 42.5 46.4844C42.7485 46.4844 42.9916 46.4603 43.2277 46.4166L50.5944 59.1763C50.8405 59.6023 51.2869 59.8405 51.7458 59.8405ZM41.1719 42.5C41.1719 41.7677 41.7677 41.1719 42.5 41.1719C43.2323 41.1719 43.8281 41.7677 43.8281 42.5C43.8281 43.2323 43.2323 43.8281 42.5 43.8281C41.7677 43.8281 41.1719 43.2323 41.1719 42.5Z" fill="#B2D235"/>
</svg>
