<svg width="85" height="85" viewBox="0 0 85 85" fill="none" xmlns="http://www.w3.org/2000/svg"><path d="M35.862 57.441a1.66 1.66 0 1 0 0-3.32 1.66 1.66 0 0 0 0 3.32zM6.643 22.578v6.64c0 .918.744 1.66 1.66 1.66h47.979a1.66 1.66 0 0 0 1.66-1.66v-6.64a1.66 1.66 0 0 0-1.66-1.66H8.303a1.66 1.66 0 0 0-1.66 1.66zm17.598 1.66h30.38v3.32h-30.38v-3.32zm-14.277 0H20.92v3.32H9.964v-3.32zM8.303 37.52h47.979a1.66 1.66 0 0 0 0-3.32H8.303a1.66 1.66 0 0 0 0 3.32zM8.303 44.16h47.979a1.66 1.66 0 0 0 0-3.32H8.303a1.66 1.66 0 0 0 0 3.32zM8.303 50.8h27.56a1.66 1.66 0 0 0 0-3.32H8.302a1.66 1.66 0 1 0 0 3.32zM8.303 57.441h20.918a1.66 1.66 0 1 0 0-3.32H8.303a1.66 1.66 0 1 0 0 3.32zM22.58 70.723h8.469c.77 3.784 4.125 6.64 8.133 6.64 4.577 0 8.301-3.723 8.301-8.3 0-4.578-3.724-8.301-8.3-8.301-4.01 0-7.363 2.856-8.134 6.64H22.58a1.66 1.66 0 0 0 0 3.32zm16.602-3.32h-4.695a4.988 4.988 0 0 1 4.695-3.321 4.986 4.986 0 0 1 4.98 4.98 4.986 4.986 0 0 1-4.98 4.981 4.988 4.988 0 0 1-4.695-3.32h4.695a1.66 1.66 0 0 0 0-3.32zM56.282 13.281a1.66 1.66 0 0 0 0-3.32h-3.32a1.66 1.66 0 0 0 0 3.32h3.32zM46.321 13.281a1.66 1.66 0 1 0 0-3.32h-3.32a1.66 1.66 0 0 0 0 3.32h3.32zM36.36 13.281a1.66 1.66 0 1 0 0-3.32h-3.32a1.66 1.66 0 1 0 0 3.32h3.32zM32.542 85a1.66 1.66 0 1 0 0-3.32 1.66 1.66 0 0 0 0 3.32z" fill="#B2D235"/><path d="M1.663 85H25.07a1.66 1.66 0 0 0 0-3.32H3.323V16.602h11.621a1.66 1.66 0 0 0 1.66-1.66V3.32h44.659v46.925a44.707 44.707 0 0 1-2.065 2.297l-3.52-3.52a8.294 8.294 0 0 0-11.74 0l-2.347 2.348a1.66 1.66 0 0 0 0 2.348l19.671 19.671v8.29h-21.25a1.66 1.66 0 1 0 0 3.321h22.91a1.66 1.66 0 0 0 1.66-1.66v-6.63l.487.486a1.66 1.66 0 0 0 2.348 0l2.347-2.348a8.297 8.297 0 0 0 0-11.739l-3.519-3.52c3.15-3.068 10.076-8.164 13.716-9.75 5.109-2.223 6.952-9.17 2.593-13.528-4.326-4.328-11.24-2.57-13.506 2.554-.85 1.92-2.61 4.62-4.465 7.15V1.66A1.66 1.66 0 0 0 62.923 0H14.944c-.453 0-.878.19-1.174.486L.49 13.768c-.3.3-.486.723-.486 1.173V83.34c0 .917.743 1.66 1.66 1.66zm65.753-19.543a4.978 4.978 0 0 1 0 7.044l-1.173 1.173-21.13-21.13 1.174-1.174a4.976 4.976 0 0 1 7.043 0l14.086 14.087zM64.224 51.88c2.877-3.47 6.423-8.424 7.86-11.672 1.29-2.918 5.392-4.281 8.122-1.55 2.732 2.732 1.344 6.868-1.57 8.137-4.132 1.8-11.321 7.106-14.739 10.447l-2.351-2.352a50.783 50.783 0 0 0 2.678-3.01zM13.284 5.668v7.613H5.67l7.613-7.613z" fill="#B2D235"/></svg>