<svg width="85" height="85" viewBox="0 0 85 85" fill="none" xmlns="http://www.w3.org/2000/svg"><path d="M82.547 76.132H70.272v-1.509a2.788 2.788 0 0 0-2.784-2.784h-1.143l-.362-3.557h13.462a3.432 3.432 0 0 0 3.428-3.428v-19.27a3.432 3.432 0 0 0-3.428-3.428h-34.82a3.432 3.432 0 0 0-3.429 3.428v10.419c-2.76-.905-6.572-1.507-8.82-1.808a.382.382 0 0 1-.33-.379l.015-3.644c.267-.195.53-.4.787-.62 1.946-1.662 3.204-4.037 3.55-6.645a3.044 3.044 0 0 0 1.708-.856 3.048 3.048 0 0 0 .908-2.167l.008-2.02a3.056 3.056 0 0 0-.973-2.255l.026-6.33a4.588 4.588 0 0 0-4.543-4.601 4.565 4.565 0 0 0-4.278-3.042l-7.922-.034h-.038c-4.904 0-8.905 3.98-8.926 8.89l-.021 5.009a3.057 3.057 0 0 0-.992 2.246l-.009 2.02a3.074 3.074 0 0 0 2.59 3.045c.324 2.61 1.562 4.996 3.494 6.674.256.222.517.43.782.628l-.015 3.644c-.001.19-.145.352-.334.376-2.678.336-7.573 1.078-10.281 2.27a9.162 9.162 0 0 0-5.466 8.339l-.008 1.84a1.245 1.245 0 0 0 1.24 1.25h.005c.686 0 1.243-.554 1.245-1.24l.008-1.84a6.67 6.67 0 0 1 3.979-6.07c1.035-.456 2.498-.845 4.004-1.163l4.26 5.583a3.722 3.722 0 0 0 4.254 1.235l1.004 1.47-1.594 10.324h-8.862l.018-4.328a1.245 1.245 0 0 0-1.24-1.25h-.005c-.685 0-1.242.554-1.245 1.24l-.018 4.338H4.558l.016-3.703a1.245 1.245 0 0 0-1.24-1.25h-.005c-.685 0-1.242.554-1.245 1.24l-.016 3.737a2.356 2.356 0 0 0-2.035 2.33v4.16A2.357 2.357 0 0 0 2.387 85h80.16a2.357 2.357 0 0 0 2.355-2.354v-4.16a2.357 2.357 0 0 0-2.355-2.354zm-14.765-1.509v1.51H56.287v-1.51c0-.162.132-.294.294-.294h10.907c.162 0 .294.132.294.294zm-9.695-6.341l-.362 3.557H56.58a2.787 2.787 0 0 0-2.784 2.784v1.51h-5.812l.036-7.851h10.066zm2.14 3.557l.477-4.674v-.002l.158-1.55c0-.01.008-.016.017-.016h2.312c.008 0 .015.007.016.016l.158 1.549v.005l.477 4.672h-3.614zm-16.54-26.255a.94.94 0 0 1 .938-.938h34.82a.94.94 0 0 1 .938.938v19.27a.94.94 0 0 1-.938.938H65.729l-.044-.432a2.5 2.5 0 0 0-2.494-2.253h-2.312a2.5 2.5 0 0 0-2.494 2.253l-.044.432H44.625a.939.939 0 0 1-.938-.938v-19.27zm.938 22.698h.906l-.036 7.85h-4.602l.018-4.205a1.245 1.245 0 0 0-1.24-1.25h-.005c-.685 0-1.242.554-1.245 1.24l-.018 4.215h-8.868l-1.5-10.293 1.003-1.484a3.72 3.72 0 0 0 4.286-1.192l4.298-5.538c1.31.288 2.586.63 3.575 1.021v6.208a3.432 3.432 0 0 0 3.428 3.428zm-20.549-4.005l-.91-1.333 1.925-1.517 1.897 1.514-.91 1.345-2.002-.009zm8.41-7.554c.646.09 1.48.215 2.395.372l-3.524 4.542a1.237 1.237 0 0 1-1.75.208l-2.355-1.88 5.234-3.242zM14.858 30.501a6.443 6.443 0 0 1 6.436-6.409h.028l7.921.034a2.07 2.07 0 0 1 1.941 1.38 2.479 2.479 0 0 0 2.317 1.662 2.095 2.095 0 0 1 2.085 2.102l-.024 5.759a8.547 8.547 0 0 0-1.992.382l.013-3.055a4.12 4.12 0 0 0-4.104-4.139h-.035a5.923 5.923 0 0 0-1.807.276 8.055 8.055 0 0 1-4.818-.02 5.886 5.886 0 0 0-1.804-.292H20.962a4.121 4.121 0 0 0-4.121 4.104l-.015 3.519-.287.016a4.795 4.795 0 0 0-1.7-.77l.02-4.549zm1.484 11.085a1.245 1.245 0 0 0-1.24-1.224l-.69-.003a.58.58 0 0 1-.576-.581l.009-2.02c0-.14.048-.254.116-.343.326.049.816.17 1.179.47.368.306.835.458 1.312.433l1.072-.06c1-.055 1.785-.882 1.79-1.883l.017-4.08a1.631 1.631 0 0 1 1.637-1.624h.036c.353.002.704.059 1.042.169a10.53 10.53 0 0 0 6.344.027c.334-.107.68-.16 1.028-.16h.05a1.631 1.631 0 0 1 1.625 1.639l-.02 4.575a1.568 1.568 0 0 0 1.574 1.58c.404 0 .8-.155 1.1-.45.317-.309 1.577-.53 2.653-.566a.562.562 0 0 1 .132.368l-.008 2.02a.575.575 0 0 1-.579.577h-.003l-.69-.003a1.24 1.24 0 0 0-1.25 1.213c-.06 2.36-1.07 4.545-2.771 5.997-3.614 3.086-8.547 3.094-12.168-.051-1.688-1.466-2.68-3.66-2.72-6.02zm13.223 9.996l-.01 2.224c-.002.558.16 1.084.44 1.531l-4.893 3.032-4.868-3.073c.284-.444.45-.969.453-1.528l.01-2.223a11.382 11.382 0 0 0 8.868.037zm-10.737 10.01l-3.494-4.58a80.757 80.757 0 0 1 2.398-.35l5.21 3.288-2.364 1.863a1.237 1.237 0 0 1-1.75-.22zm5.65 5.177l1.176.005 1.364 9.358h-3.985l1.445-9.363zm57.933 15.74H2.524v-3.887H82.41v3.888z" fill="#B2D235"/><path d="M62.034 58.499a4.714 4.714 0 0 0 4.708-4.709 4.713 4.713 0 0 0-4.708-4.708 4.713 4.713 0 0 0-4.708 4.709 4.713 4.713 0 0 0 4.708 4.708zm0-6.927a2.22 2.22 0 0 1 2.218 2.218 2.22 2.22 0 0 1-2.218 2.219 2.22 2.22 0 0 1-2.218-2.218 2.22 2.22 0 0 1 2.218-2.219zM69.154 8.64c-.687 0-1.245.556-1.245 1.244v5.484c0 .93.757 1.688 1.689 1.688l2.982-.002a1.245 1.245 0 0 0 0-2.49l-2.18.001v-4.68c0-.689-.558-1.246-1.246-1.246z" fill="#B2D235"/><path d="M69.155 31.621c8.718 0 15.81-7.092 15.81-15.81S77.873 0 69.155 0s-15.81 7.093-15.81 15.81c0 8.719 7.092 15.811 15.81 15.811zm0-29.13c7.345 0 13.32 5.975 13.32 13.32 0 7.345-5.975 13.32-13.32 13.32-7.345 0-13.32-5.976-13.32-13.32 0-7.345 5.975-13.32 13.32-13.32z" fill="#B2D235"/><path d="M69.155 27.264c6.315 0 11.453-5.138 11.453-11.453 0-6.315-5.138-11.453-11.453-11.453-5.166 0-9.537 3.42-10.962 8.128a1.245 1.245 0 1 0 2.383.722c1.134-3.745 4.662-6.36 8.579-6.36 4.942 0 8.963 4.02 8.963 8.963 0 4.942-4.021 8.962-8.963 8.962a8.921 8.921 0 0 1-8.56-6.297 1.245 1.245 0 1 0-2.378.74 11.4 11.4 0 0 0 10.938 8.047z" fill="#B2D235"/></svg>