<svg width="1920" height="24390" viewBox="0 0 1920 24390" fill="none" xmlns="http://www.w3.org/2000/svg">
<g clip-path="url(#clip0)">
<rect width="1920" height="24390" fill="white"/>
<path opacity="0.2" d="M1920 0H0V24390H1920V0Z" fill="url(#paint0_linear)"/>
<path d="M0.486328 5751.19C-13.3874 5769.62 -11.3785 5796.06 -1.80951 5817.05C7.75949 5838.05 23.651 5855.36 37.2198 5874.02C50.7706 5892.68 62.4919 5914.36 61.5054 5937.41C59.7387 5978.42 20.7543 6005.9 -5.04699 6037.82C-44.0763 6086.12 -54.7574 6155.78 -31.9963 6213.55" stroke="#D1D1D1" stroke-miterlimit="10"/>
<path d="M-15.2078 5750.08C-29.0815 5768.51 -27.0726 5794.95 -17.5036 5815.94C-7.93461 5836.94 7.95688 5854.24 21.5257 5872.91C35.0765 5891.57 46.7978 5913.25 45.8113 5936.29C44.0446 5977.31 5.06023 6004.79 -20.7411 6036.71C-59.7704 6085.01 -70.4515 6154.67 -47.6904 6212.44" stroke="#D1D1D1" stroke-miterlimit="10"/>
<path d="M-30.8931 5748.98C-44.7668 5767.41 -42.7579 5793.84 -33.1889 5814.84C-23.6199 5835.83 -7.72836 5853.14 5.84042 5871.8C19.4002 5890.48 31.1126 5912.14 30.1261 5935.19C28.3594 5976.2 -10.6251 6003.69 -36.4264 6035.61C-75.4557 6083.91 -86.1367 6153.56 -63.3756 6211.34" stroke="#D1D1D1" stroke-miterlimit="10"/>
<path d="M-46.5784 5747.87C-60.4521 5766.3 -58.4432 5792.74 -48.8742 5813.74C-39.3052 5834.73 -23.4137 5852.04 -9.84488 5870.7C3.71493 5889.37 15.4273 5911.04 14.4408 5934.09C12.6741 5975.1 -26.3104 6002.59 -52.1117 6034.5C-91.141 6082.81 -101.822 6152.46 -79.0609 6210.23" stroke="#D1D1D1" stroke-miterlimit="10"/>
<path d="M1936.09 13816.9C1990.12 13897.8 2006.32 14002.8 1979.15 14096.2C1955.58 14177.2 1902.53 14246.1 1869.89 14323.9C1837.23 14401.7 1829.57 14501.3 1888.41 14561.8C1928.8 14603.2 1991.69 14615.7 2049.25 14609.5C2106.81 14603.3 2161.19 14581 2215.82 14561.8C2270.46 14542.6 2327.94 14526.2 2385.52 14532.3C2458.5 14540.2 2526.16 14586.9 2559.47 14652.3" stroke="#D1D1D1" stroke-miterlimit="10"/>
<path d="M1957.11 13842C2007.77 13917.8 2022.94 14016.3 1997.5 14103.8C1975.41 14179.7 1925.67 14244.4 1895.07 14317.3C1864.45 14390.2 1857.27 14483.6 1912.43 14540.3C1950.31 14579.1 2009.25 14590.8 2063.21 14585C2117.18 14579.2 2168.15 14558.3 2219.37 14540.3C2270.58 14522.3 2324.48 14506.9 2378.44 14512.7C2446.85 14520.1 2510.27 14563.8 2541.48 14625.1" stroke="#D1D1D1" stroke-miterlimit="10"/>
<path d="M1978.13 13867.2C2025.4 13937.9 2039.59 14029.8 2015.81 14111.5C1995.21 14182.3 1948.78 14242.7 1920.23 14310.7C1891.65 14378.7 1884.96 14465.9 1936.44 14518.8C1971.78 14555.1 2026.78 14566 2077.15 14560.5C2127.52 14555.1 2175.07 14535.6 2222.87 14518.8C2270.67 14502 2320.96 14487.6 2371.33 14493C2435.16 14499.9 2494.37 14540.7 2523.5 14598" stroke="#D1D1D1" stroke-miterlimit="10"/>
<path d="M1999.16 13892.3C2043.05 13958 2056.21 14043.3 2034.15 14119.1C2015.01 14184.9 1971.92 14240.9 1945.4 14304.1C1918.89 14367.2 1912.66 14448.2 1960.44 14497.3C1993.25 14531 2044.32 14541.1 2091.09 14536.1C2137.84 14531 2182.02 14512.9 2226.38 14497.3C2270.76 14481.7 2317.45 14468.4 2364.21 14473.4C2423.49 14479.8 2478.45 14517.7 2505.5 14570.8" stroke="#D1D1D1" stroke-miterlimit="10"/>
<path d="M2020.16 13917.4C2060.68 13978 2072.83 14056.8 2052.45 14126.8C2034.79 14187.5 1995 14239.2 1970.53 14297.5C1946.06 14355.8 1940.31 14430.5 1984.41 14475.8C2014.7 14506.9 2061.83 14516.3 2104.99 14511.6C2148.15 14506.9 2188.91 14490.2 2229.87 14475.8C2270.83 14461.4 2313.94 14449.1 2357.08 14453.7C2411.79 14459.6 2462.52 14494.6 2487.48 14543.7" stroke="#D1D1D1" stroke-miterlimit="10"/>
<g opacity="0.7">
<path d="M-114.595 14709.5C-139.38 14685 -163.502 14656.7 -168.548 14622.2C-175.147 14577 -146.5 14533 -109.962 14505.6C-73.4308 14478.3 -29.3968 14463.2 11.7675 14443.5C52.9251 14423.7 93.657 14396.7 113.154 14355.4C140.183 14298.2 119.829 14228.7 139.255 14168.5C155.455 14118.2 200.799 14078.5 252.774 14069.2" stroke="#D1D1D1" stroke-miterlimit="10"/>
<path d="M-84.7329 14692.3C-108.178 14669.1 -131.003 14642.3 -135.774 14609.7C-142.017 14566.9 -114.919 14525.3 -80.3562 14499.4C-45.7885 14473.5 -4.14103 14459.3 34.7957 14440.6C73.7323 14421.9 112.265 14396.4 130.702 14357.3C156.278 14303.1 137.014 14237.5 155.399 14180.5C170.725 14132.9 213.623 14095.4 262.786 14086.5" stroke="#D1D1D1" stroke-miterlimit="10"/>
<path d="M-54.8698 14675C-76.9703 14653.2 -98.4963 14627.9 -102.988 14597.1C-108.875 14556.8 -83.3258 14517.6 -50.7264 14493.2C-18.1336 14468.8 21.1387 14455.4 57.8527 14437.7C94.5734 14420.1 130.902 14396 148.279 14359.2C172.397 14308.1 154.227 14246.2 171.555 14192.4C185.998 14147.6 226.447 14112.2 272.808 14103.9" stroke="#D1D1D1" stroke-miterlimit="10"/>
<path d="M-25.0071 14657.8C-45.7679 14637.3 -65.9966 14613.5 -70.2146 14584.6C-75.7448 14546.8 -51.7448 14509.9 -21.1203 14487C9.49745 14464 46.3883 14451.4 80.8814 14434.9C115.374 14418.3 149.499 14395.7 165.828 14361.1C188.488 14313.1 171.413 14254.9 187.7 14204.4C201.269 14162.3 239.272 14129.1 282.82 14121.2" stroke="#D1D1D1" stroke-miterlimit="10"/>
<path d="M4.86677 14640.6C-14.561 14621.3 -33.474 14599.1 -37.4295 14572.1C-42.615 14536.7 -20.1525 14502.2 8.49699 14480.7C37.1465 14459.3 71.6558 14447.5 103.921 14432C136.187 14416.5 168.118 14395.4 183.399 14363C204.595 14318.1 188.633 14263.7 203.861 14216.4C216.555 14177 252.113 14145.9 292.848 14138.6" stroke="#D1D1D1" stroke-miterlimit="10"/>
</g>
<g opacity="0.2">
<path d="M-229.243 13993.7C-198.328 13993.1 -168.73 14005.8 -141.477 14020.4C-114.211 14035 -87.847 14051.9 -58.3308 14061.1C-10.1338 14076.2 44.6869 14068.7 86.876 14041C129.065 14013.2 157.689 13965.6 162.143 13915.3C164.954 13883.5 158.688 13850.7 167.386 13820C176.31 13788.4 199.767 13763.3 215.436 13734.5C252.653 13666.1 241.607 13576.1 193.187 13515.2C144.767 13454.2 63.177 13423.2 -14.3056 13430.8C-91.7881 13438.4 -163.756 13482.4 -210.759 13544.5C-257.746 13606.6 -280.488 13685.4 -280.103 13763.2C-279.914 13801.4 -274.421 13839.5 -275.966 13877.6C-277.516 13915.8 -287.058 13955.3 -312.617 13983.7L-302.962 14040.2C-292.553 14011.1 -260.159 13994.3 -229.243 13993.7Z" fill="#F1F1F3"/>
<path d="M-229.243 13993.7C-198.328 13993.1 -168.73 14005.8 -141.477 14020.4C-114.211 14035 -87.847 14051.9 -58.3308 14061.1C-10.1338 14076.2 44.6869 14068.7 86.876 14041C129.065 14013.2 157.689 13965.6 162.143 13915.3C164.954 13883.5 158.688 13850.7 167.386 13820C176.31 13788.4 199.767 13763.3 215.436 13734.5C252.653 13666.1 241.607 13576.1 193.187 13515.2C144.767 13454.2 63.177 13423.2 -14.3056 13430.8C-91.7881 13438.4 -163.756 13482.4 -210.759 13544.5C-257.746 13606.6 -280.488 13685.4 -280.103 13763.2C-279.914 13801.4 -274.421 13839.5 -275.966 13877.6C-277.516 13915.8 -287.058 13955.3 -312.617 13983.7L-302.962 14040.2C-292.553 14011.1 -260.159 13994.3 -229.243 13993.7Z" fill="url(#paint1_linear)"/>
</g>
<g opacity="0.2">
<path d="M-87.9046 14040.7C-66.8538 14044.9 -48.676 14057.9 -32.3791 14071.9C-16.0742 14085.9 -0.728637 14101.3 17.9028 14112C48.3282 14129.4 86.6285 14132.6 119.397 14120.1C152.165 14107.6 178.699 14079.6 189.254 14046.1C195.924 14025 196.591 14001.8 207.093 13982.2C217.871 13962.2 237.533 13948.7 252.474 13931.5C287.955 13890.7 293.943 13828 270.238 13779.4C246.534 13730.8 195.849 13697.5 142.165 13691.1C88.4805 13684.7 33.0756 13703.8 -8.09841 13738.8C-49.2596 13773.9 -76.481 13823.9 -87.8807 13876.8C-93.471 13902.7 -95.4501 13929.3 -102.21 13955C-108.975 13980.6 -121.37 14006 -142.951 14021.4L-144.869 14061.2C-133.45 14043 -108.955 14036.4 -87.9046 14040.7Z" fill="#F1F1F3"/>
<path d="M-87.9046 14040.7C-66.8538 14044.9 -48.676 14057.9 -32.3791 14071.9C-16.0742 14085.9 -0.728637 14101.3 17.9028 14112C48.3282 14129.4 86.6285 14132.6 119.397 14120.1C152.165 14107.6 178.699 14079.6 189.254 14046.1C195.924 14025 196.591 14001.8 207.093 13982.2C217.871 13962.2 237.533 13948.7 252.474 13931.5C287.955 13890.7 293.943 13828 270.238 13779.4C246.534 13730.8 195.849 13697.5 142.165 13691.1C88.4805 13684.7 33.0756 13703.8 -8.09841 13738.8C-49.2596 13773.9 -76.481 13823.9 -87.8807 13876.8C-93.471 13902.7 -95.4501 13929.3 -102.21 13955C-108.975 13980.6 -121.37 14006 -142.951 14021.4L-144.869 14061.2C-133.45 14043 -108.955 14036.4 -87.9046 14040.7Z" fill="url(#paint2_linear)"/>
</g>
<g opacity="0.7">
<path d="M2077.27 2300.06C2064.39 2322.68 2048.59 2345.56 2024.7 2355.86C1993.39 2369.35 1956.13 2357.19 1929.32 2336.13C1902.51 2315.07 1883.15 2286.21 1860.94 2260.34C1838.72 2234.47 1811.4 2210.3 1777.84 2204.22C1731.31 2195.79 1685.17 2223.89 1637.93 2221.53C1598.56 2219.56 1561.17 2194.52 1544.37 2158.84" stroke="#D1D1D1" stroke-miterlimit="10"/>
<path d="M2059.07 2281.86C2046.88 2303.25 2031.93 2324.9 2009.34 2334.64C1979.71 2347.4 1944.47 2335.9 1919.11 2315.97C1893.74 2296.05 1875.44 2268.75 1854.43 2244.28C1833.42 2219.81 1807.56 2196.95 1775.82 2191.2C1731.8 2183.22 1688.15 2209.81 1643.47 2207.57C1606.22 2205.7 1570.85 2182.01 1554.96 2148.26" stroke="#D1D1D1" stroke-miterlimit="10"/>
<path d="M2040.86 2263.65C2029.36 2283.81 2015.28 2304.23 1993.96 2313.41C1966.03 2325.45 1932.8 2314.6 1908.88 2295.81C1884.96 2277.02 1867.71 2251.28 1847.89 2228.21C1828.08 2205.13 1803.69 2183.57 1773.77 2178.16C1732.26 2170.63 1691.11 2195.71 1648.98 2193.6C1613.85 2191.85 1580.51 2169.51 1565.53 2137.68" stroke="#D1D1D1" stroke-miterlimit="10"/>
<path d="M2022.65 2245.44C2011.85 2264.38 1998.62 2283.57 1978.6 2292.19C1952.36 2303.5 1921.14 2293.31 1898.67 2275.65C1876.2 2258 1859.99 2233.83 1841.38 2212.15C1822.77 2190.47 1799.86 2170.22 1771.75 2165.13C1732.76 2158.06 1694.09 2181.62 1654.52 2179.64C1621.52 2177.99 1590.19 2157 1576.12 2127.1" stroke="#D1D1D1" stroke-miterlimit="10"/>
<path d="M2004.43 2227.22C1994.33 2244.95 1981.95 2262.89 1963.22 2270.97C1938.68 2281.55 1909.47 2272.01 1888.46 2255.49C1867.44 2238.98 1852.27 2216.36 1834.86 2196.08C1817.45 2175.8 1796.02 2156.86 1769.71 2152.09C1733.23 2145.48 1697.06 2167.52 1660.03 2165.66C1629.16 2164.12 1599.85 2144.49 1586.69 2116.52" stroke="#D1D1D1" stroke-miterlimit="10"/>
</g>
<g opacity="0.7">
<path d="M1525.88 24011.7C1508.94 23982.8 1493.57 23950.4 1497.47 23917C1502.59 23873.4 1540.2 23839.6 1581 23823.3C1621.8 23806.9 1666.5 23803.9 1709.71 23795.8C1752.92 23787.6 1797.52 23772.7 1825.95 23739.1C1865.36 23692.6 1863.73 23623 1896.82 23571.8C1924.41 23529.1 1976.47 23503.5 2027.15 23507.7" stroke="#D1D1D1" stroke-miterlimit="10"/>
<path d="M1557.96 24003.1C1541.93 23975.7 1527.38 23945.1 1531.07 23913.6C1535.92 23872.3 1571.49 23840.3 1610.09 23824.8C1648.7 23809.4 1690.97 23806.5 1731.84 23798.8C1772.72 23791.2 1814.92 23777 1841.8 23745.3C1879.09 23701.3 1877.54 23635.4 1908.85 23586.9C1934.95 23546.6 1984.2 23522.3 2032.13 23526.3" stroke="#D1D1D1" stroke-miterlimit="10"/>
<path d="M1590.03 23994.5C1574.92 23968.7 1561.2 23939.8 1564.69 23910.1C1569.26 23871.1 1602.8 23841 1639.2 23826.4C1675.6 23811.8 1715.47 23809.2 1754.01 23801.9C1792.56 23794.7 1832.34 23781.3 1857.68 23751.4C1892.84 23709.9 1891.38 23647.8 1920.89 23602.1C1945.5 23564 1991.93 23541.2 2037.13 23545" stroke="#D1D1D1" stroke-miterlimit="10"/>
<path d="M1622.1 23985.9C1607.91 23961.7 1595.01 23934.5 1598.29 23906.6C1602.58 23870 1634.09 23841.7 1668.29 23828C1702.48 23814.3 1739.93 23811.8 1776.14 23805C1812.35 23798.2 1849.72 23785.7 1873.53 23757.5C1906.56 23718.6 1905.18 23660.2 1932.91 23617.3C1956.03 23581.5 1999.66 23560 2042.12 23563.6" stroke="#D1D1D1" stroke-miterlimit="10"/>
<path d="M1654.18 23977.3C1640.9 23954.6 1628.85 23929.2 1631.9 23903.1C1635.91 23868.9 1665.39 23842.4 1697.38 23829.6C1729.38 23816.8 1764.41 23814.4 1798.28 23808.1C1832.15 23801.7 1867.12 23790 1889.4 23763.7C1920.3 23727.2 1919.02 23672.6 1944.96 23632.5C1966.58 23599 2007.41 23578.9 2047.12 23582.2" stroke="#D1D1D1" stroke-miterlimit="10"/>
</g>
<path opacity="0.2" d="M1149 2134L1923 2134C1920.67 2155.82 1915.18 2177.38 1907.2 2197.8C1888.53 2245.45 1851.2 2290.87 1800.53 2298.1C1778.67 2301.22 1757.2 2296.98 1736.42 2289.27C1706.63 2278.24 1673.26 2287.23 1652.83 2311.55C1638.39 2328.7 1619.84 2342.43 1598.99 2350.68C1560.38 2365.99 1514.73 2362.24 1479.13 2340.89C1468.57 2334.55 1458.88 2326.79 1449.53 2318.54C1422.93 2295.1 1399.03 2267.68 1365.53 2257.49C1330.69 2246.91 1292.62 2257.53 1256.93 2250.4C1204.61 2239.94 1166.15 2192.21 1150.96 2141.07C1150.26 2138.73 1149.61 2136.37 1149 2134Z" fill="url(#paint3_linear)"/>
<path opacity="0.2" d="M2080 9209L2080 10582C2041.29 10577.9 2003.03 10568.1 1966.8 10554C1882.26 10520.9 1801.67 10454.6 1788.84 10364.7C1783.3 10326 1790.82 10287.9 1804.49 10251C1824.08 10198.2 1808.11 10139 1764.96 10102.7C1734.53 10077.1 1710.17 10044.2 1695.53 10007.2C1668.38 9938.74 1675.02 9857.77 1712.91 9794.62C1724.16 9775.88 1737.92 9758.7 1752.56 9742.12C1794.15 9694.93 1842.81 9652.52 1860.89 9593.1C1879.66 9531.31 1860.81 9463.78 1873.47 9400.46C1892.03 9307.64 1976.72 9239.43 2067.45 9212.48C2071.61 9211.23 2075.79 9210.07 2080 9209Z" fill="url(#paint4_linear)"/>
<path opacity="0.2" d="M3.00001 11441L3.00003 10861C19.3152 10862.7 35.4398 10866.9 50.707 10872.8C86.3383 10886.8 120.302 10914.8 125.709 10952.8C128.043 10969.2 124.875 10985.2 119.111 11000.8C110.859 11023.1 117.587 11048.1 135.772 11063.5C148.598 11074.3 158.863 11088.2 165.032 11103.8C176.476 11132.7 173.678 11166.9 157.708 11193.6C152.968 11201.5 147.169 11208.8 141 11215.8C123.47 11235.7 102.963 11253.6 95.3414 11278.7C87.4339 11304.8 95.3771 11333.4 90.0419 11360.1C82.2178 11399.3 46.5269 11428.1 8.28754 11439.5C6.53693 11440.1 4.77442 11440.5 3.00001 11441Z" fill="url(#paint5_linear)"/>
<path opacity="0.2" d="M403 23853H-177C-175.257 23836.7 -171.139 23820.6 -165.16 23805.3C-151.171 23769.7 -123.193 23735.7 -85.2251 23730.3C-68.849 23728 -52.7595 23731.1 -37.1832 23736.9C-14.8631 23745.1 10.1426 23738.4 25.4563 23720.2C36.2702 23707.4 50.1755 23697.1 65.7996 23691C94.7321 23679.5 128.94 23682.3 155.617 23698.3C163.531 23703 170.788 23708.8 177.794 23715C197.727 23732.5 215.643 23753 240.744 23760.7C266.847 23768.6 295.374 23760.6 322.123 23766C361.332 23773.8 390.145 23809.5 401.532 23847.7C402.057 23849.5 402.546 23851.2 403 23853Z" fill="url(#paint6_linear)"/>
<path opacity="0.2" d="M-123.788 16255.3L-16.4089 15616.2C1.24807 15621.1 18.2553 15628.6 33.9728 15638.1C70.6493 15660.1 102.899 15697.2 101.827 15740C101.368 15758.5 94.8982 15775.7 85.6626 15791.8C72.4356 15814.8 75.221 15843.6 92.4259 15863.9C104.558 15878.2 113.296 15895.4 117.202 15913.7C124.457 15947.7 115.04 15984.9 92.5023 16011.4C85.814 16019.2 78.0792 16026.1 69.9839 16032.7C46.9754 16051.4 21.0595 16067.4 8.01312 16093.6C-5.53382 16120.9 -2.06161 16153.8 -12.8931 16182.3C-28.7745 16224.1 -73.4408 16249.2 -117.689 16254.7C-119.716 16255 -121.749 16255.2 -123.788 16255.3Z" fill="url(#paint7_linear)"/>
<path opacity="0.2" d="M-123.788 16570.2L-16.4089 15931C1.24807 15935.9 18.2553 15943.5 33.9728 15952.9C70.6493 15974.9 102.899 16012 101.827 16054.9C101.368 16073.3 94.8982 16090.5 85.6626 16106.6C72.4356 16129.6 75.221 16158.4 92.4259 16178.7C104.558 16193 113.296 16210.2 117.202 16228.6C124.457 16262.6 115.04 16299.7 92.5023 16326.2C85.814 16334 78.0792 16341 69.9839 16347.5C46.9754 16366.3 21.0595 16382.2 8.01312 16408.5C-5.53382 16435.8 -2.06161 16468.7 -12.8931 16497.2C-28.7745 16538.9 -73.4408 16564.1 -117.689 16569.5C-119.716 16569.8 -121.749 16570 -123.788 16570.2Z" fill="url(#paint8_linear)"/>
<g opacity="0.2">
<path d="M273.31 911C267.04 916.83 259.78 921.55 251.69 924.67C237.08 930.32 220.61 931.41 207.35 939.74C189.88 950.71 181.76 971.8 177.36 991.95C172.97 1012.11 170.97 1033.29 161.04 1051.37C140.46 1088.88 89.29 1101.78 48.72 1088.18C21.71 1079.12 -0.849976 1060.86 -19.04 1038.61C-28.16 1027.45 -36.18 1015.3 -43.1 1002.8C-58.74 974.55 -70.21 943.44 -91.66 919.31C-94.24 916.4 -97.04 913.62 -100 911H273.31Z" fill="#EEEEEF"/>
<path d="M273.31 911C267.04 916.83 259.78 921.55 251.69 924.67C237.08 930.32 220.61 931.41 207.35 939.74C189.88 950.71 181.76 971.8 177.36 991.95C172.97 1012.11 170.97 1033.29 161.04 1051.37C140.46 1088.88 89.29 1101.78 48.72 1088.18C21.71 1079.12 -0.849976 1060.86 -19.04 1038.61C-28.16 1027.45 -36.18 1015.3 -43.1 1002.8C-58.74 974.55 -70.21 943.44 -91.66 919.31C-94.24 916.4 -97.04 913.62 -100 911H273.31Z" fill="url(#paint9_linear)"/>
</g>
<g opacity="0.2">
<path d="M2.99998 2163C8.82998 2169.27 13.55 2176.53 16.67 2184.62C22.32 2199.23 23.41 2215.7 31.74 2228.96C42.71 2246.43 63.8 2254.55 83.95 2258.95C104.11 2263.34 125.29 2265.34 143.37 2275.27C180.88 2295.85 193.78 2347.02 180.18 2387.59C171.12 2414.6 152.86 2437.16 130.61 2455.35C119.45 2464.47 107.3 2472.49 94.8 2479.41C66.55 2495.05 35.44 2506.52 11.31 2527.97C8.4 2530.55 5.62 2533.35 3 2536.31L2.99998 2163Z" fill="#EEEEEF"/>
<path d="M2.99998 2163C8.82998 2169.27 13.55 2176.53 16.67 2184.62C22.32 2199.23 23.41 2215.7 31.74 2228.96C42.71 2246.43 63.8 2254.55 83.95 2258.95C104.11 2263.34 125.29 2265.34 143.37 2275.27C180.88 2295.85 193.78 2347.02 180.18 2387.59C171.12 2414.6 152.86 2437.16 130.61 2455.35C119.45 2464.47 107.3 2472.49 94.8 2479.41C66.55 2495.05 35.44 2506.52 11.31 2527.97C8.4 2530.55 5.62 2533.35 3 2536.31L2.99998 2163Z" fill="url(#paint10_linear)"/>
</g>
<g opacity="0.2">
<path d="M1922.82 1444.53V1698.73H1557C1558.23 1688.01 1560.48 1677.41 1563.86 1667.09C1575.27 1632.16 1600.02 1601.57 1631.4 1582.85C1647.98 1572.95 1666.42 1566.36 1685.72 1564.21C1710.85 1561.4 1739.18 1564.79 1758.55 1548.54C1770.2 1538.76 1775.86 1523.83 1783.12 1510.46C1803.8 1472.42 1842.75 1443.3 1885.94 1440.24C1898.33 1439.36 1910.89 1440.91 1922.82 1444.53Z" fill="#EEEEEF"/>
<path d="M1922.82 1444.53V1698.73H1557C1558.23 1688.01 1560.48 1677.41 1563.86 1667.09C1575.27 1632.16 1600.02 1601.57 1631.4 1582.85C1647.98 1572.95 1666.42 1566.36 1685.72 1564.21C1710.85 1561.4 1739.18 1564.79 1758.55 1548.54C1770.2 1538.76 1775.86 1523.83 1783.12 1510.46C1803.8 1472.42 1842.75 1443.3 1885.94 1440.24C1898.33 1439.36 1910.89 1440.91 1922.82 1444.53Z" fill="url(#paint11_linear)"/>
</g>
<g opacity="0.2">
<path d="M1481.86 14235L1923 14235L1923 14870C1904.4 14867.9 1886 14864 1868.09 14858.1C1807.47 14838.3 1754.39 14795.3 1721.9 14740.9C1704.72 14712.1 1693.29 14680.1 1689.56 14646.6C1684.68 14602.9 1690.56 14553.8 1662.36 14520.1C1645.39 14499.9 1619.48 14490.1 1596.28 14477.5C1530.26 14441.6 1479.73 14374 1474.42 14299C1472.89 14277.5 1475.58 14255.7 1481.86 14235Z" fill="#EEEEEF"/>
<path d="M1481.86 14235L1923 14235L1923 14870C1904.4 14867.9 1886 14864 1868.09 14858.1C1807.47 14838.3 1754.39 14795.3 1721.9 14740.9C1704.72 14712.1 1693.29 14680.1 1689.56 14646.6C1684.68 14602.9 1690.56 14553.8 1662.36 14520.1C1645.39 14499.9 1619.48 14490.1 1596.28 14477.5C1530.26 14441.6 1479.73 14374 1474.42 14299C1472.89 14277.5 1475.58 14255.7 1481.86 14235Z" fill="url(#paint12_linear)"/>
</g>
<g opacity="0.2">
<path d="M84.7253 20040.9C-104.91 20262 -187.754 20174.3 -318.122 19861.1L-59.3572 19281.2C-43.2386 19290.8 -28.0315 19301.8 -14.0676 19314.5C33.2173 19357.3 64.1882 19418.2 71.6582 19481.1C75.6194 19514.4 73.0194 19548.3 62.7746 19580.4C49.4519 19622.2 24.0402 19664.8 36.0912 19706.9C43.3495 19732.3 63.0063 19751.9 79.0592 19772.8C124.716 19832.5 143.312 19914.8 117.611 19985.5C110.241 20005.7 98.9009 20024.5 84.7253 20040.9Z" fill="#EEEEEF"/>
<path d="M84.7253 20040.9C-104.91 20262 -187.754 20174.3 -318.122 19861.1L-59.3572 19281.2C-43.2386 19290.8 -28.0315 19301.8 -14.0676 19314.5C33.2173 19357.3 64.1882 19418.2 71.6582 19481.1C75.6194 19514.4 73.0194 19548.3 62.7746 19580.4C49.4519 19622.2 24.0402 19664.8 36.0912 19706.9C43.3495 19732.3 63.0063 19751.9 79.0592 19772.8C124.716 19832.5 143.312 19914.8 117.611 19985.5C110.241 20005.7 98.9009 20024.5 84.7253 20040.9Z" fill="url(#paint13_linear)"/>
</g>
<g opacity="0.2">
<path d="M1922 23466.9V23853H1366C1367.87 23836.7 1371.29 23820.6 1376.43 23804.9C1393.77 23751.9 1431.38 23705.4 1479.08 23677C1504.28 23661.9 1532.3 23651.9 1561.64 23648.7C1599.83 23644.4 1642.89 23649.6 1672.33 23624.9C1690.04 23610 1698.64 23587.3 1709.67 23567C1741.1 23509.2 1800.3 23465 1865.95 23460.4C1884.78 23459 1903.87 23461.4 1922 23466.9Z" fill="#EEEEEF"/>
<path d="M1922 23466.9V23853H1366C1367.87 23836.7 1371.29 23820.6 1376.43 23804.9C1393.77 23751.9 1431.38 23705.4 1479.08 23677C1504.28 23661.9 1532.3 23651.9 1561.64 23648.7C1599.83 23644.4 1642.89 23649.6 1672.33 23624.9C1690.04 23610 1698.64 23587.3 1709.67 23567C1741.1 23509.2 1800.3 23465 1865.95 23460.4C1884.78 23459 1903.87 23461.4 1922 23466.9Z" fill="url(#paint14_linear)"/>
</g>
<g opacity="0.2">
<path d="M1922 23620.8V23888H1537C1538.29 23876.7 1540.66 23865.6 1544.22 23854.7C1556.23 23818 1582.28 23785.9 1615.3 23766.2C1632.75 23755.8 1652.16 23748.8 1672.47 23746.6C1698.92 23743.6 1728.73 23747.2 1749.12 23730.1C1761.38 23719.8 1767.33 23704.1 1774.98 23690.1C1796.74 23650.1 1837.73 23619.5 1883.19 23616.3C1896.23 23615.3 1909.44 23617 1922 23620.8Z" fill="#EEEEEF"/>
<path d="M1922 23620.8V23888H1537C1538.29 23876.7 1540.66 23865.6 1544.22 23854.7C1556.23 23818 1582.28 23785.9 1615.3 23766.2C1632.75 23755.8 1652.16 23748.8 1672.47 23746.6C1698.92 23743.6 1728.73 23747.2 1749.12 23730.1C1761.38 23719.8 1767.33 23704.1 1774.98 23690.1C1796.74 23650.1 1837.73 23619.5 1883.19 23616.3C1896.23 23615.3 1909.44 23617 1922 23620.8Z" fill="url(#paint15_linear)"/>
</g>
<g opacity="0.2">
<path d="M2102.83 964.391C2095.29 942.771 2097.37 919.031 2101.35 896.491C2105.33 873.941 2111.15 851.491 2110.85 828.591C2110.35 791.201 2092.43 754.361 2063.17 731.081C2033.91 707.801 1993.85 698.631 1957.43 707.101C1934.4 712.461 1912.75 724.441 1889.12 725.411C1864.86 726.411 1841.81 715.691 1817.93 711.311C1761.23 700.901 1700.46 729.431 1668.73 777.561C1637 825.691 1633.99 890.251 1657.21 943.021C1680.43 995.781 1728.03 1036.25 1782.55 1055C1837.06 1073.74 1897.73 1071.57 1952.42 1053.34C1979.24 1044.4 2004.77 1031.75 2031.96 1024.04C2059.16 1016.33 2089.19 1013.92 2115.04 1025.36L2152.58 1005.53C2129.71 1004.91 2110.37 986.011 2102.83 964.391Z" fill="#EEEEEF"/>
<path d="M2102.83 964.391C2095.29 942.771 2097.37 919.031 2101.35 896.491C2105.33 873.941 2111.15 851.491 2110.85 828.591C2110.35 791.201 2092.43 754.361 2063.17 731.081C2033.91 707.801 1993.85 698.631 1957.43 707.101C1934.4 712.461 1912.75 724.441 1889.12 725.411C1864.86 726.411 1841.81 715.691 1817.93 711.311C1761.23 700.901 1700.46 729.431 1668.73 777.561C1637 825.691 1633.99 890.251 1657.21 943.021C1680.43 995.781 1728.03 1036.25 1782.55 1055C1837.06 1073.74 1897.73 1071.57 1952.42 1053.34C1979.24 1044.4 2004.77 1031.75 2031.96 1024.04C2059.16 1016.33 2089.19 1013.92 2115.04 1025.36L2152.58 1005.53C2129.71 1004.91 2110.37 986.011 2102.83 964.391Z" fill="url(#paint16_linear)"/>
</g>
<g opacity="0.2">
<path d="M2051.79 3776.45C2028.95 3778.14 2006.56 3769.98 1985.82 3760.3C1965.08 3750.63 1944.89 3739.19 1922.69 3733.55C1886.45 3724.36 1846.22 3732.13 1816.16 3754.37C1786.1 3776.61 1766.88 3812.93 1765.63 3850.3C1764.85 3873.94 1770.82 3897.95 1765.64 3921.02C1760.33 3944.72 1744.01 3964.21 1733.6 3986.14C1708.86 4038.21 1720.69 4104.3 1758.97 4147.4C1797.25 4190.51 1858.83 4210.12 1915.8 4201.35C1972.77 4192.58 2024.19 4157.07 2056.41 4109.26C2088.62 4061.46 2102.22 4002.3 2098.77 3944.75C2097.08 3916.53 2091.46 3888.6 2091.05 3860.34C2090.64 3832.08 2096.09 3802.44 2113.83 3780.43L2104.39 3739.04C2097.88 3760.98 2074.62 3774.76 2051.79 3776.45Z" fill="#EEEEEF"/>
<path d="M2051.79 3776.45C2028.95 3778.14 2006.56 3769.98 1985.82 3760.3C1965.08 3750.63 1944.89 3739.19 1922.69 3733.55C1886.45 3724.36 1846.22 3732.13 1816.16 3754.37C1786.1 3776.61 1766.88 3812.93 1765.63 3850.3C1764.85 3873.94 1770.82 3897.95 1765.64 3921.02C1760.33 3944.72 1744.01 3964.21 1733.6 3986.14C1708.86 4038.21 1720.69 4104.3 1758.97 4147.4C1797.25 4190.51 1858.83 4210.12 1915.8 4201.35C1972.77 4192.58 2024.19 4157.07 2056.41 4109.26C2088.62 4061.46 2102.22 4002.3 2098.77 3944.75C2097.08 3916.53 2091.46 3888.6 2091.05 3860.34C2090.64 3832.08 2096.09 3802.44 2113.83 3780.43L2104.39 3739.04C2097.88 3760.98 2074.62 3774.76 2051.79 3776.45Z" fill="url(#paint17_linear)"/>
</g>
<g opacity="0.2">
<path d="M2269.69 5859.8C2239.91 5845.41 2217.78 5819.04 2198.82 5791.95C2179.87 5764.86 2162.87 5735.97 2139.17 5712.89C2100.47 5675.21 2044.53 5655.88 1990.87 5661.99C1937.2 5668.1 1886.91 5699.65 1858.36 5745.5C1840.31 5774.5 1830.44 5808.86 1807.29 5833.98C1783.53 5859.79 1749.04 5872.38 1720.17 5892.3C1651.62 5939.58 1618.69 6030.8 1635.44 6112.37C1652.19 6193.94 1715.06 6262.96 1792.67 6293.14C1870.28 6323.31 1960.24 6316.03 2035.09 6279.49C2109.91 6242.95 2169.66 6178.77 2206.9 6104.28C2225.17 6067.75 2238.32 6028.75 2258.22 5993.11C2278.12 5957.46 2306.34 5924.31 2344.43 5909.59L2362.52 5850.99C2338.53 5873.74 2299.48 5874.18 2269.69 5859.8Z" fill="#EEEEEF"/>
<path d="M2269.69 5859.8C2239.91 5845.41 2217.78 5819.04 2198.82 5791.95C2179.87 5764.86 2162.87 5735.97 2139.17 5712.89C2100.47 5675.21 2044.53 5655.88 1990.87 5661.99C1937.2 5668.1 1886.91 5699.65 1858.36 5745.5C1840.31 5774.5 1830.44 5808.86 1807.29 5833.98C1783.53 5859.79 1749.04 5872.38 1720.17 5892.3C1651.62 5939.58 1618.69 6030.8 1635.44 6112.37C1652.19 6193.94 1715.06 6262.96 1792.67 6293.14C1870.28 6323.31 1960.24 6316.03 2035.09 6279.49C2109.91 6242.95 2169.66 6178.77 2206.9 6104.28C2225.17 6067.75 2238.32 6028.75 2258.22 5993.11C2278.12 5957.46 2306.34 5924.31 2344.43 5909.59L2362.52 5850.99C2338.53 5873.74 2299.48 5874.18 2269.69 5859.8Z" fill="url(#paint18_linear)"/>
</g>
<g opacity="0.2">
<path d="M2.99998 4381C28.2 4385.25 52.3899 4395.46 72.5899 4411.15C112.43 4442.11 135.54 4493.44 132.29 4543.79C131.95 4549.14 131.34 4554.53 130.61 4559.94C126.82 4588.22 119.91 4617.04 131.72 4642.41C141.75 4663.95 163.27 4677.72 176.92 4697.16C194.78 4722.59 197.7 4756.82 188.17 4786.4C178.64 4815.97 157.72 4841.03 132.61 4859.34C123.93 4865.67 114.73 4871.27 105.5 4876.82C60.8863 4897.48 38.2742 4898.24 3 4876.82L2.99998 4381Z" fill="#EEEEEF"/>
<path d="M2.99998 4381C28.2 4385.25 52.3899 4395.46 72.5899 4411.15C112.43 4442.11 135.54 4493.44 132.29 4543.79C131.95 4549.14 131.34 4554.53 130.61 4559.94C126.82 4588.22 119.91 4617.04 131.72 4642.41C141.75 4663.95 163.27 4677.72 176.92 4697.16C194.78 4722.59 197.7 4756.82 188.17 4786.4C178.64 4815.97 157.72 4841.03 132.61 4859.34C123.93 4865.67 114.73 4871.27 105.5 4876.82C60.8863 4897.48 38.2742 4898.24 3 4876.82L2.99998 4381Z" fill="url(#paint19_linear)"/>
</g>
<g opacity="0.2">
<path d="M1923 6778C1894.96 6773.26 1868.04 6761.89 1845.56 6744.41C1801.23 6709.91 1775.51 6652.72 1779.13 6596.63C1779.5 6590.67 1780.18 6584.66 1780.99 6578.63C1785.21 6547.13 1792.9 6515.02 1779.76 6486.75C1768.6 6462.75 1744.65 6447.41 1729.46 6425.75C1709.59 6397.42 1706.34 6359.28 1716.94 6326.32C1727.55 6293.38 1750.83 6265.46 1778.77 6245.06C1788.43 6238 1798.67 6231.76 1808.94 6225.58C1858.58 6202.57 1883.75 6201.72 1923 6225.58L1923 6778Z" fill="#EEEEEF"/>
<path d="M1923 6778C1894.96 6773.26 1868.04 6761.89 1845.56 6744.41C1801.23 6709.91 1775.51 6652.72 1779.13 6596.63C1779.5 6590.67 1780.18 6584.66 1780.99 6578.63C1785.21 6547.13 1792.9 6515.02 1779.76 6486.75C1768.6 6462.75 1744.65 6447.41 1729.46 6425.75C1709.59 6397.42 1706.34 6359.28 1716.94 6326.32C1727.55 6293.38 1750.83 6265.46 1778.77 6245.06C1788.43 6238 1798.67 6231.76 1808.94 6225.58C1858.58 6202.57 1883.75 6201.72 1923 6225.58L1923 6778Z" fill="url(#paint20_linear)"/>
</g>
<g opacity="0.2">
<path d="M2.99999 4714C19.0055 4716.7 34.3696 4723.19 47.1994 4733.15C72.5034 4752.82 87.1815 4785.43 85.1173 4817.41C84.9014 4820.81 84.514 4824.24 84.0503 4827.67C81.6431 4845.64 77.2543 4863.95 84.7553 4880.06C91.1258 4893.75 104.794 4902.5 113.464 4914.84C124.807 4931 126.662 4952.74 120.609 4971.54C114.556 4990.32 101.269 5006.24 85.3206 5017.87C79.8076 5021.89 73.9643 5025.45 68.102 5028.98C39.7659 5042.1 25.4041 5042.58 3 5028.98L2.99999 4714Z" fill="#EEEEEF"/>
<path d="M2.99999 4714C19.0055 4716.7 34.3696 4723.19 47.1994 4733.15C72.5034 4752.82 87.1815 4785.43 85.1173 4817.41C84.9014 4820.81 84.514 4824.24 84.0503 4827.67C81.6431 4845.64 77.2543 4863.95 84.7553 4880.06C91.1258 4893.75 104.794 4902.5 113.464 4914.84C124.807 4931 126.662 4952.74 120.609 4971.54C114.556 4990.32 101.269 5006.24 85.3206 5017.87C79.8076 5021.89 73.9643 5025.45 68.102 5028.98C39.7659 5042.1 25.4041 5042.58 3 5028.98L2.99999 4714Z" fill="url(#paint21_linear)"/>
</g>
<g opacity="0.2">
<path d="M-354.113 3528.41C-341.244 3547.34 -337.099 3570.81 -335.11 3593.61C-333.118 3616.42 -332.929 3639.62 -326.712 3661.66C-316.552 3697.64 -289.708 3728.59 -255.42 3743.5C-221.131 3758.42 -180.063 3756.91 -147.076 3739.3C-126.218 3728.16 -108.406 3710.99 -85.8327 3703.93C-62.6581 3696.69 -37.619 3701.08 -13.4191 3699.13C44.0432 3694.51 95.3585 3651.22 113.55 3596.52C131.742 3541.82 117.94 3478.68 81.8562 3433.73C45.7721 3388.77 -10.6804 3362 -68.1955 3358C-125.698 3354.01 -183.74 3371.81 -231.848 3403.57C-255.44 3419.15 -276.826 3437.97 -301.094 3452.46C-325.372 3466.95 -353.755 3477.05 -381.685 3472.69L-412.813 3501.56C-390.555 3496.22 -366.982 3509.47 -354.113 3528.41Z" fill="#F1F1F3"/>
<path d="M-354.113 3528.41C-341.244 3547.34 -337.099 3570.81 -335.11 3593.61C-333.118 3616.42 -332.929 3639.62 -326.712 3661.66C-316.552 3697.64 -289.708 3728.59 -255.42 3743.5C-221.131 3758.42 -180.063 3756.91 -147.076 3739.3C-126.218 3728.16 -108.406 3710.99 -85.8327 3703.93C-62.6581 3696.69 -37.619 3701.08 -13.4191 3699.13C44.0432 3694.51 95.3585 3651.22 113.55 3596.52C131.742 3541.82 117.94 3478.68 81.8562 3433.73C45.7721 3388.77 -10.6804 3362 -68.1955 3358C-125.698 3354.01 -183.74 3371.81 -231.848 3403.57C-255.44 3419.15 -276.826 3437.97 -301.094 3452.46C-325.372 3466.95 -353.755 3477.05 -381.685 3472.69L-412.813 3501.56C-390.555 3496.22 -366.982 3509.47 -354.113 3528.41Z" fill="url(#paint22_linear)"/>
</g>
<g opacity="0.2">
<path d="M-309.531 8283.55C-282.474 8298.51 -263.164 8324.26 -246.858 8350.53C-230.543 8376.8 -216.169 8404.63 -195.232 8427.4C-161.038 8464.57 -109.813 8485.48 -59.3972 8482.54C-8.9818 8479.6 39.5851 8452.73 68.5947 8411.39C86.9352 8385.24 97.922 8353.68 120.822 8331.41C144.329 8308.54 177.179 8298.56 205.151 8281.45C271.576 8240.83 307.009 8157.37 295.563 8080.35C284.117 8003.34 228.971 7935.67 158.069 7903.52C87.1659 7871.36 2.80913 7873.53 -68.9383 7903.8C-140.667 7934.06 -199.751 7990.91 -238.347 8058.53C-257.275 8091.69 -271.562 8127.43 -291.97 8159.68C-312.388 8191.95 -340.43 8221.43 -376.745 8233.22L-396.645 8286.99C-373.076 8266.99 -336.588 8268.58 -309.531 8283.55Z" fill="#F1F1F3"/>
<path d="M-309.531 8283.55C-282.474 8298.51 -263.164 8324.26 -246.858 8350.53C-230.543 8376.8 -216.169 8404.63 -195.232 8427.4C-161.038 8464.57 -109.813 8485.48 -59.3972 8482.54C-8.9818 8479.6 39.5851 8452.73 68.5947 8411.39C86.9352 8385.24 97.922 8353.68 120.822 8331.41C144.329 8308.54 177.179 8298.56 205.151 8281.45C271.576 8240.83 307.009 8157.37 295.563 8080.35C284.117 8003.34 228.971 7935.67 158.069 7903.52C87.1659 7871.36 2.80913 7873.53 -68.9383 7903.8C-140.667 7934.06 -199.751 7990.91 -238.347 8058.53C-257.275 8091.69 -271.562 8127.43 -291.97 8159.68C-312.388 8191.95 -340.43 8221.43 -376.745 8233.22L-396.645 8286.99C-373.076 8266.99 -336.588 8268.58 -309.531 8283.55Z" fill="url(#paint23_linear)"/>
</g>
<g opacity="0.2">
<path d="M-210.612 8394.89C-194.504 8409.09 -185.266 8429.45 -178.141 8449.7C-171.011 8469.96 -165.432 8490.99 -154.643 8509.57C-137.02 8539.89 -105.414 8561.75 -70.783 8567.3C-36.1522 8572.86 0.808612 8561.91 26.6731 8538.22C43.0266 8523.23 55.2043 8503.48 74.0693 8491.8C93.4353 8479.82 117.208 8477.97 138.741 8470.55C189.872 8452.95 226.4 8401.66 230.172 8347.72C233.945 8293.77 206.681 8239.63 163.414 8207.2C120.146 8174.77 62.6127 8163.61 9.42387 8173.39C-43.7522 8183.17 -92.3356 8212.88 -128.638 8252.96C-146.44 8272.61 -161.48 8294.7 -180.152 8313.52C-198.831 8332.35 -222.264 8348.14 -248.656 8350.69L-270.206 8384.18C-251.227 8374.15 -226.719 8380.69 -210.612 8394.89Z" fill="#F1F1F3"/>
<path d="M-210.612 8394.89C-194.504 8409.09 -185.266 8429.45 -178.141 8449.7C-171.011 8469.96 -165.432 8490.99 -154.643 8509.57C-137.02 8539.89 -105.414 8561.75 -70.783 8567.3C-36.1522 8572.86 0.808612 8561.91 26.6731 8538.22C43.0266 8523.23 55.2043 8503.48 74.0693 8491.8C93.4353 8479.82 117.208 8477.97 138.741 8470.55C189.872 8452.95 226.4 8401.66 230.172 8347.72C233.945 8293.77 206.681 8239.63 163.414 8207.2C120.146 8174.77 62.6127 8163.61 9.42387 8173.39C-43.7522 8183.17 -92.3356 8212.88 -128.638 8252.96C-146.44 8272.61 -161.48 8294.7 -180.152 8313.52C-198.831 8332.35 -222.264 8348.14 -248.656 8350.69L-270.206 8384.18C-251.227 8374.15 -226.719 8380.69 -210.612 8394.89Z" fill="url(#paint24_linear)"/>
</g>
<path d="M2006.65 3970C2006.72 4028.67 1979.7 4086.83 1934.81 4124.62C1895.87 4157.39 1846.15 4174.27 1803.75 4202.38C1761.32 4230.49 1724.13 4277.96 1733.44 4327.99C1739.84 4362.34 1767.24 4389.64 1798.21 4405.79C1829.18 4421.94 1863.95 4428.94 1897.81 4437.58C1931.66 4446.23 1966.02 4457.22 1992.86 4479.59C2026.86 4507.97 2045.22 4554.03 2040.05 4598.02" stroke="#D1D1D1" stroke-miterlimit="10"/>
<path d="M2008.79 3989.65C2008.87 4044.65 1983.53 4099.17 1941.46 4134.6C1904.96 4165.32 1858.35 4181.15 1818.6 4207.49C1778.83 4233.85 1743.96 4278.34 1752.7 4325.24C1758.7 4357.44 1784.38 4383.03 1813.42 4398.17C1842.46 4413.31 1875.05 4419.86 1906.79 4427.97C1938.52 4436.07 1970.74 4446.38 1995.88 4467.35C2027.75 4493.95 2044.96 4537.13 2040.11 4578.37" stroke="#D1D1D1" stroke-miterlimit="10"/>
<path d="M2010.94 4009.3C2011 4060.63 1987.36 4111.52 1948.09 4144.57C1914.04 4173.24 1870.53 4188.01 1833.43 4212.6C1796.32 4237.19 1763.78 4278.72 1771.94 4322.49C1777.53 4352.54 1801.5 4376.41 1828.61 4390.54C1855.71 4404.67 1886.12 4410.79 1915.74 4418.35C1945.35 4425.92 1975.41 4435.53 1998.88 4455.11C2028.63 4479.93 2044.69 4520.23 2040.16 4558.72" stroke="#D1D1D1" stroke-miterlimit="10"/>
<path d="M2013.09 4028.95C2013.14 4076.61 1991.19 4123.86 1954.74 4154.55C1923.12 4181.16 1882.73 4194.88 1848.28 4217.71C1813.84 4240.54 1783.62 4279.1 1791.18 4319.73C1796.38 4347.63 1818.63 4369.81 1843.8 4382.92C1868.95 4396.03 1897.2 4401.72 1924.69 4408.74C1952.19 4415.77 1980.09 4424.69 2001.89 4442.86C2029.52 4465.9 2044.43 4503.32 2040.22 4539.05" stroke="#D1D1D1" stroke-miterlimit="10"/>
<path d="M2015.22 4048.6C2015.27 4092.59 1995.02 4136.2 1961.36 4164.52C1932.18 4189.08 1894.9 4201.73 1863.11 4222.81C1831.32 4243.88 1803.42 4279.47 1810.41 4316.97C1815.21 4342.71 1835.73 4363.18 1858.97 4375.28C1882.19 4387.39 1908.25 4392.63 1933.64 4399.11C1959.02 4405.59 1984.78 4413.84 2004.88 4430.61C2030.38 4451.88 2044.14 4486.41 2040.26 4519.39" stroke="#D1D1D1" stroke-miterlimit="10"/>
<path d="M2018.2 9772C2018.31 9869.24 1973.53 9965.63 1899.13 10028.3C1834.6 10082.6 1752.2 10110.6 1681.91 10157.1C1611.6 10203.7 1549.95 10282.4 1565.39 10365.3C1575.99 10422.3 1621.41 10467.5 1672.74 10494.3C1724.07 10521 1781.7 10532.6 1837.81 10547C1893.91 10561.3 1950.86 10579.5 1995.34 10616.6C2051.7 10663.6 2082.12 10740 2073.55 10812.9" stroke="#D1D1D1" stroke-miterlimit="10"/>
<path d="M2021.75 9804.57C2021.87 9895.72 1979.87 9986.08 1910.15 10044.8C1849.67 10095.7 1772.41 10121.9 1706.52 10165.6C1640.62 10209.3 1582.82 10283 1597.31 10360.8C1607.25 10414.1 1649.81 10456.6 1697.94 10481.6C1746.07 10506.7 1800.09 10517.6 1852.69 10531C1905.28 10544.5 1958.67 10561.5 2000.34 10596.3C2053.18 10640.4 2081.7 10712 2073.65 10780.3" stroke="#D1D1D1" stroke-miterlimit="10"/>
<path d="M2025.31 9837.14C2025.4 9922.21 1986.24 10006.6 1921.15 10061.3C1864.71 10108.8 1792.6 10133.3 1731.11 10174.1C1669.6 10214.8 1615.67 10283.7 1629.2 10356.2C1638.46 10406 1678.19 10445.6 1723.11 10469C1768.03 10492.4 1818.43 10502.5 1867.52 10515.1C1916.61 10527.6 1966.42 10543.6 2005.33 10576C2054.63 10617.1 2081.25 10683.9 2073.74 10747.7" stroke="#D1D1D1" stroke-miterlimit="10"/>
<path d="M2028.87 9869.71C2028.96 9948.69 1992.58 10027 1932.17 10077.9C1879.76 10122 1812.82 10144.7 1755.73 10182.5C1698.64 10220.4 1648.55 10284.3 1661.09 10351.6C1669.7 10397.9 1706.57 10434.6 1748.29 10456.4C1789.98 10478.1 1836.8 10487.5 1882.35 10499.2C1927.93 10510.8 1974.19 10525.6 2010.31 10555.7C2056.1 10593.9 2080.81 10655.9 2073.83 10715.1" stroke="#D1D1D1" stroke-miterlimit="10"/>
<path d="M2032.4 9902.27C2032.49 9975.18 1998.92 10047.5 1943.14 10094.4C1894.78 10135.1 1832.98 10156.1 1780.29 10191C1727.6 10225.9 1681.37 10284.9 1692.95 10347.1C1700.91 10389.7 1734.93 10423.7 1773.44 10443.7C1811.93 10463.8 1855.12 10472.5 1897.19 10483.2C1939.25 10493.9 1981.95 10507.6 2015.27 10535.4C2057.53 10570.7 2080.34 10627.9 2073.9 10682.5" stroke="#D1D1D1" stroke-miterlimit="10"/>
<g opacity="0.2">
<path d="M2252.46 11916C2219.76 11920.9 2186.61 11911.7 2155.66 11900C2124.72 11888.4 2094.39 11874.1 2061.79 11868.4C2008.57 11859.2 1951.49 11874.8 1910.65 11910.2C1869.8 11945.5 1846.11 11999.9 1848.43 12053.9C1849.91 12088 1861.15 12122 1856.23 12155.8C1851.19 12190.5 1829.83 12220.3 1817.25 12253.1C1787.36 12330.8 1811.68 12424.7 1871.56 12482.6C1931.44 12540.4 2022.3 12561.9 2103.39 12543C2184.49 12524.1 2254.63 12467.3 2295.77 12394.9C2336.9 12322.5 2349.98 12235.7 2338.67 12153.2C2333.12 12112.8 2321.96 12073.2 2318.26 12032.5C2314.56 11991.9 2319.14 11948.6 2342.26 11914.9L2324.11 11856.3C2317.15 11888.6 2285.17 11911.1 2252.46 11916Z" fill="#EEEEEF"/>
<path d="M2252.46 11916C2219.76 11920.9 2186.61 11911.7 2155.66 11900C2124.72 11888.4 2094.39 11874.1 2061.79 11868.4C2008.57 11859.2 1951.49 11874.8 1910.65 11910.2C1869.8 11945.5 1846.11 11999.9 1848.43 12053.9C1849.91 12088 1861.15 12122 1856.23 12155.8C1851.19 12190.5 1829.83 12220.3 1817.25 12253.1C1787.36 12330.8 1811.68 12424.7 1871.56 12482.6C1931.44 12540.4 2022.3 12561.9 2103.39 12543C2184.49 12524.1 2254.63 12467.3 2295.77 12394.9C2336.9 12322.5 2349.98 12235.7 2338.67 12153.2C2333.12 12112.8 2321.96 12073.2 2318.26 12032.5C2314.56 11991.9 2319.14 11948.6 2342.26 11914.9L2324.11 11856.3C2317.15 11888.6 2285.17 11911.1 2252.46 11916Z" fill="url(#paint25_linear)"/>
</g>
<g opacity="0.2">
<path d="M2131.85 21585.8C2150.47 21558.1 2179.98 21539.7 2209.76 21524.6C2239.56 21509.4 2270.85 21496.6 2297.3 21476.1C2340.48 21442.8 2367.75 21389.6 2369.26 21335C2370.77 21280.5 2346.35 21225.7 2304.55 21190.7C2278.11 21168.5 2245.16 21153.8 2223.32 21127C2200.89 21099.6 2193.19 21063.3 2177.37 21031.6C2139.81 20956.4 2053.27 20910.5 1969.31 20915.7C1885.35 20920.8 1807.4 20973.9 1766.21 21047.2C1725.01 21120.6 1719.52 21211.6 1745.44 21291.6C1771.35 21371.6 1827.06 21440.5 1896.26 21488.3C1930.2 21511.8 1967.33 21530.4 2000.16 21555.4C2032.99 21580.4 2062.13 21613.3 2071.44 21653.5L2127.48 21679.9C2108.13 21652.7 2113.23 21613.5 2131.85 21585.8Z" fill="#F1F1F3"/>
<path d="M2131.85 21585.8C2150.47 21558.1 2179.98 21539.7 2209.76 21524.6C2239.56 21509.4 2270.85 21496.6 2297.3 21476.1C2340.48 21442.8 2367.75 21389.6 2369.26 21335C2370.77 21280.5 2346.35 21225.7 2304.55 21190.7C2278.11 21168.5 2245.16 21153.8 2223.32 21127C2200.89 21099.6 2193.19 21063.3 2177.37 21031.6C2139.81 20956.4 2053.27 20910.5 1969.31 20915.7C1885.35 20920.8 1807.4 20973.9 1766.21 21047.2C1725.01 21120.6 1719.52 21211.6 1745.44 21291.6C1771.35 21371.6 1827.06 21440.5 1896.26 21488.3C1930.2 21511.8 1967.33 21530.4 2000.16 21555.4C2032.99 21580.4 2062.13 21613.3 2071.44 21653.5L2127.48 21679.9C2108.13 21652.7 2113.23 21613.5 2131.85 21585.8Z" fill="url(#paint26_linear)"/>
</g>
<g opacity="0.2">
<path d="M2191.85 21945.8C2210.47 21918.1 2239.98 21899.7 2269.76 21884.6C2299.56 21869.4 2330.85 21856.6 2357.3 21836.1C2400.48 21802.8 2427.75 21749.6 2429.26 21695C2430.77 21640.5 2406.35 21585.7 2364.55 21550.7C2338.11 21528.5 2305.16 21513.8 2283.32 21487C2260.89 21459.6 2253.19 21423.3 2237.37 21391.6C2199.81 21316.4 2113.27 21270.5 2029.31 21275.7C1945.35 21280.8 1867.4 21333.9 1826.21 21407.2C1785.01 21480.6 1779.52 21571.6 1805.44 21651.6C1831.35 21731.6 1887.06 21800.5 1956.26 21848.3C1990.2 21871.8 2027.33 21890.4 2060.16 21915.4C2092.99 21940.4 2122.13 21973.3 2131.44 22013.5L2187.48 22039.9C2168.13 22012.7 2173.23 21973.5 2191.85 21945.8Z" fill="#F1F1F3"/>
<path d="M2191.85 21945.8C2210.47 21918.1 2239.98 21899.7 2269.76 21884.6C2299.56 21869.4 2330.85 21856.6 2357.3 21836.1C2400.48 21802.8 2427.75 21749.6 2429.26 21695C2430.77 21640.5 2406.35 21585.7 2364.55 21550.7C2338.11 21528.5 2305.16 21513.8 2283.32 21487C2260.89 21459.6 2253.19 21423.3 2237.37 21391.6C2199.81 21316.4 2113.27 21270.5 2029.31 21275.7C1945.35 21280.8 1867.4 21333.9 1826.21 21407.2C1785.01 21480.6 1779.52 21571.6 1805.44 21651.6C1831.35 21731.6 1887.06 21800.5 1956.26 21848.3C1990.2 21871.8 2027.33 21890.4 2060.16 21915.4C2092.99 21940.4 2122.13 21973.3 2131.44 22013.5L2187.48 22039.9C2168.13 22012.7 2173.23 21973.5 2191.85 21945.8Z" fill="url(#paint27_linear)"/>
</g>
<g opacity="0.2">
<path d="M2095 17797C2049.63 17789.3 2006.08 17770.9 1969.71 17742.7C1897.98 17686.9 1856.37 17594.4 1862.22 17503.6C1862.83 17494 1863.93 17484.3 1865.25 17474.5C1872.07 17423.6 1884.51 17371.6 1863.25 17325.9C1845.19 17287.1 1806.44 17262.3 1781.87 17227.2C1749.71 17181.4 1744.45 17119.7 1761.61 17066.4C1778.77 17013.1 1816.44 16967.9 1861.64 16934.9C1877.27 16923.5 1893.84 16913.4 1910.45 16903.4C1990.78 16866.2 2031.49 16864.8 2095 16903.4L2095 17797Z" fill="#EEEEEF"/>
<path d="M2095 17797C2049.63 17789.3 2006.08 17770.9 1969.71 17742.7C1897.98 17686.9 1856.37 17594.4 1862.22 17503.6C1862.83 17494 1863.93 17484.3 1865.25 17474.5C1872.07 17423.6 1884.51 17371.6 1863.25 17325.9C1845.19 17287.1 1806.44 17262.3 1781.87 17227.2C1749.71 17181.4 1744.45 17119.7 1761.61 17066.4C1778.77 17013.1 1816.44 16967.9 1861.64 16934.9C1877.27 16923.5 1893.84 16913.4 1910.45 16903.4C1990.78 16866.2 2031.49 16864.8 2095 16903.4L2095 17797Z" fill="url(#paint28_linear)"/>
</g>
<g opacity="0.2">
<path d="M1923 17336C1899.85 17339.9 1877.63 17349.4 1859.08 17363.9C1822.48 17392.6 1801.25 17440.2 1804.24 17486.8C1804.55 17491.8 1805.11 17496.8 1805.78 17501.8C1809.26 17528 1815.61 17554.7 1804.76 17578.2C1795.55 17598.2 1775.78 17610.9 1763.24 17628.9C1746.83 17652.5 1744.15 17684.2 1752.9 17711.6C1761.66 17739 1780.88 17762.2 1803.94 17779.2C1811.91 17785 1820.37 17790.2 1828.84 17795.4C1869.83 17814.5 1890.6 17815.2 1923 17795.4L1923 17336Z" fill="#EEEEEF"/>
<path d="M1923 17336C1899.85 17339.9 1877.63 17349.4 1859.08 17363.9C1822.48 17392.6 1801.25 17440.2 1804.24 17486.8C1804.55 17491.8 1805.11 17496.8 1805.78 17501.8C1809.26 17528 1815.61 17554.7 1804.76 17578.2C1795.55 17598.2 1775.78 17610.9 1763.24 17628.9C1746.83 17652.5 1744.15 17684.2 1752.9 17711.6C1761.66 17739 1780.88 17762.2 1803.94 17779.2C1811.91 17785 1820.37 17790.2 1828.84 17795.4C1869.83 17814.5 1890.6 17815.2 1923 17795.4L1923 17336Z" fill="url(#paint29_linear)"/>
</g>
<g opacity="0.7">
<path d="M-14.4746 4409.23C-27.2123 4430.21 -22.2761 4457.99 -9.92722 4479.2C2.42167 4500.42 21.0937 4517.06 37.4319 4535.39C53.7701 4553.71 68.4758 4575.41 69.8696 4599.92C72.3421 4643.52 33.9802 4676.77 10.0527 4713.31C-26.1562 4768.58 -30.0801 4843.47 0.154444 4902.23" stroke="#D1D1D1" stroke-miterlimit="10"/>
<path d="M-31.1984 4409.72C-43.9362 4430.7 -39 4458.49 -26.6511 4479.7C-14.3022 4500.91 4.36977 4517.55 20.708 4535.88C37.0463 4554.21 51.7519 4575.91 53.1457 4600.41C55.6182 4644.02 17.2563 4677.26 -6.67115 4713.8C-42.88 4769.07 -46.804 4843.96 -16.5694 4902.72" stroke="#D1D1D1" stroke-miterlimit="10"/>
<path d="M-47.9353 4410.21C-60.673 4431.19 -55.7368 4458.97 -43.3879 4480.19C-31.039 4501.4 -12.3671 4518.04 3.97119 4536.37C20.3094 4554.7 35.0151 4576.4 36.4089 4600.9C38.8814 4644.51 0.519465 4677.75 -23.408 4714.29C-59.6169 4769.56 -63.5408 4844.45 -33.3062 4903.21" stroke="#D1D1D1" stroke-miterlimit="10"/>
<path d="M-64.6555 4410.69C-77.3932 4431.67 -72.457 4459.46 -60.1081 4480.67C-47.7592 4501.88 -29.0778 4518.54 -12.7526 4536.86C3.58569 4555.19 18.2914 4576.89 19.6852 4601.4C22.1576 4645 -16.2043 4678.25 -40.1317 4714.78C-76.3406 4770.06 -80.2646 4844.94 -50.03 4903.7" stroke="#D1D1D1" stroke-miterlimit="10"/>
</g>
<g opacity="0.2">
<path d="M-20.1498 19512.8C-1.52897 19485.1 27.9793 19466.7 57.7617 19451.6C87.5559 19436.4 118.846 19423.6 145.297 19403.1C188.476 19369.8 215.745 19316.6 217.256 19262C218.767 19207.5 194.352 19152.7 152.549 19117.7C126.111 19095.5 93.1596 19080.8 71.3164 19054C48.8861 19026.6 41.1883 18990.3 25.367 18958.6C-12.1865 18883.4 -98.7328 18837.5 -182.69 18842.7C-266.647 18847.8 -344.598 18900.9 -385.793 18974.2C-426.988 19047.6 -432.477 19138.6 -406.563 19218.6C-380.647 19298.6 -324.938 19367.5 -255.737 19415.3C-221.8 19438.8 -184.666 19457.4 -151.84 19482.4C-119.005 19507.4 -89.8729 19540.3 -80.5608 19580.5L-24.5243 19606.9C-43.8669 19579.7 -38.7706 19540.5 -20.1498 19512.8Z" fill="#F1F1F3"/>
<path d="M-20.1498 19512.8C-1.52897 19485.1 27.9793 19466.7 57.7617 19451.6C87.5559 19436.4 118.846 19423.6 145.297 19403.1C188.476 19369.8 215.745 19316.6 217.256 19262C218.767 19207.5 194.352 19152.7 152.549 19117.7C126.111 19095.5 93.1596 19080.8 71.3164 19054C48.8861 19026.6 41.1883 18990.3 25.367 18958.6C-12.1865 18883.4 -98.7328 18837.5 -182.69 18842.7C-266.647 18847.8 -344.598 18900.9 -385.793 18974.2C-426.988 19047.6 -432.477 19138.6 -406.563 19218.6C-380.647 19298.6 -324.938 19367.5 -255.737 19415.3C-221.8 19438.8 -184.666 19457.4 -151.84 19482.4C-119.005 19507.4 -89.8729 19540.3 -80.5608 19580.5L-24.5243 19606.9C-43.8669 19579.7 -38.7706 19540.5 -20.1498 19512.8Z" fill="url(#paint30_linear)"/>
</g>
<g opacity="0.2">
<path d="M1923 12874C1894.96 12869.3 1868.04 12857.9 1845.56 12840.4C1801.23 12805.9 1775.51 12748.7 1779.13 12692.6C1779.5 12686.7 1780.18 12680.7 1780.99 12674.6C1785.21 12643.1 1792.9 12611 1779.76 12582.7C1768.6 12558.8 1744.65 12543.4 1729.46 12521.7C1709.59 12493.4 1706.34 12455.3 1716.94 12422.3C1727.55 12389.4 1750.83 12361.5 1778.77 12341.1C1788.43 12334 1798.67 12327.8 1808.94 12321.6C1858.58 12298.6 1883.75 12297.7 1923 12321.6L1923 12874Z" fill="#EEEEEF"/>
<path d="M1923 12874C1894.96 12869.3 1868.04 12857.9 1845.56 12840.4C1801.23 12805.9 1775.51 12748.7 1779.13 12692.6C1779.5 12686.7 1780.18 12680.7 1780.99 12674.6C1785.21 12643.1 1792.9 12611 1779.76 12582.7C1768.6 12558.8 1744.65 12543.4 1729.46 12521.7C1709.59 12493.4 1706.34 12455.3 1716.94 12422.3C1727.55 12389.4 1750.83 12361.5 1778.77 12341.1C1788.43 12334 1798.67 12327.8 1808.94 12321.6C1858.58 12298.6 1883.75 12297.7 1923 12321.6L1923 12874Z" fill="url(#paint31_linear)"/>
</g>
</g>
<defs>
<linearGradient id="paint0_linear" x1="960" y1="0" x2="960" y2="24390" gradientUnits="userSpaceOnUse">
<stop stop-color="#F7FFFF"/>
<stop offset="1" stop-color="#E3DBDB"/>
</linearGradient>
<linearGradient id="paint1_linear" x1="65.2182" y1="13435.2" x2="-149.611" y2="14090.5" gradientUnits="userSpaceOnUse">
<stop stop-color="#D1D5DE"/>
<stop offset="1" stop-color="#DBDBDB"/>
</linearGradient>
<linearGradient id="paint2_linear" x1="195.427" y1="13706" x2="-48.4016" y2="14118.2" gradientUnits="userSpaceOnUse">
<stop stop-color="#D1D5DE"/>
<stop offset="1" stop-color="#DBDBDB"/>
</linearGradient>
<linearGradient id="paint3_linear" x1="1923" y1="2247" x2="1149" y2="2247" gradientUnits="userSpaceOnUse">
<stop stop-color="#D1D5DE"/>
<stop offset="1" stop-color="#DBDBDB"/>
</linearGradient>
<linearGradient id="paint4_linear" x1="1879.5" y1="10582" x2="1879.5" y2="9209" gradientUnits="userSpaceOnUse">
<stop stop-color="#D1D5DE"/>
<stop offset="1" stop-color="#DBDBDB"/>
</linearGradient>
<linearGradient id="paint5_linear" x1="87.4988" y1="10861" x2="87.4988" y2="11441" gradientUnits="userSpaceOnUse">
<stop stop-color="#D1D5DE"/>
<stop offset="1" stop-color="#DBDBDB"/>
</linearGradient>
<linearGradient id="paint6_linear" x1="-177" y1="23768.5" x2="403" y2="23768.5" gradientUnits="userSpaceOnUse">
<stop stop-color="#D1D5DE"/>
<stop offset="1" stop-color="#DBDBDB"/>
</linearGradient>
<linearGradient id="paint7_linear" x1="76.7101" y1="15631.8" x2="-30.6691" y2="16271" gradientUnits="userSpaceOnUse">
<stop stop-color="#D1D5DE"/>
<stop offset="1" stop-color="#DBDBDB"/>
</linearGradient>
<linearGradient id="paint8_linear" x1="76.7101" y1="15946.6" x2="-30.6691" y2="16585.8" gradientUnits="userSpaceOnUse">
<stop stop-color="#D1D5DE"/>
<stop offset="1" stop-color="#DBDBDB"/>
</linearGradient>
<linearGradient id="paint9_linear" x1="-100" y1="1002.22" x2="273.31" y2="1002.22" gradientUnits="userSpaceOnUse">
<stop stop-color="#D1D5DE"/>
<stop offset="1" stop-color="#DBDBDB"/>
</linearGradient>
<linearGradient id="paint10_linear" x1="94.2249" y1="2536.31" x2="94.2248" y2="2163" gradientUnits="userSpaceOnUse">
<stop stop-color="#D1D5DE"/>
<stop offset="1" stop-color="#DBDBDB"/>
</linearGradient>
<linearGradient id="paint11_linear" x1="1557" y1="1569.37" x2="1922.82" y2="1569.37" gradientUnits="userSpaceOnUse">
<stop stop-color="#D1D5DE"/>
<stop offset="1" stop-color="#DBDBDB"/>
</linearGradient>
<linearGradient id="paint12_linear" x1="1698.5" y1="14870" x2="1698.5" y2="14235" gradientUnits="userSpaceOnUse">
<stop stop-color="#D1D5DE"/>
<stop offset="1" stop-color="#DBDBDB"/>
</linearGradient>
<linearGradient id="paint13_linear" x1="145.654" y1="19372.7" x2="-113.111" y2="19952.6" gradientUnits="userSpaceOnUse">
<stop stop-color="#D1D5DE"/>
<stop offset="1" stop-color="#DBDBDB"/>
</linearGradient>
<linearGradient id="paint14_linear" x1="1366" y1="23656.5" x2="1922" y2="23656.5" gradientUnits="userSpaceOnUse">
<stop stop-color="#D1D5DE"/>
<stop offset="1" stop-color="#DBDBDB"/>
</linearGradient>
<linearGradient id="paint15_linear" x1="1537" y1="23752" x2="1922" y2="23752" gradientUnits="userSpaceOnUse">
<stop stop-color="#D1D5DE"/>
<stop offset="1" stop-color="#DBDBDB"/>
</linearGradient>
<linearGradient id="paint16_linear" x1="1642" y1="886.039" x2="2152.58" y2="886.039" gradientUnits="userSpaceOnUse">
<stop stop-color="#D1D5DE"/>
<stop offset="1" stop-color="#DBDBDB"/>
</linearGradient>
<linearGradient id="paint17_linear" x1="1856.83" y1="4201.29" x2="1988.98" y2="3708.11" gradientUnits="userSpaceOnUse">
<stop stop-color="#D1D5DE"/>
<stop offset="1" stop-color="#DBDBDB"/>
</linearGradient>
<linearGradient id="paint18_linear" x1="1718.94" y1="6250.47" x2="2240.47" y2="5728.94" gradientUnits="userSpaceOnUse">
<stop stop-color="#D1D5DE"/>
<stop offset="1" stop-color="#DBDBDB"/>
</linearGradient>
<linearGradient id="paint19_linear" x1="98.2558" y1="4876.82" x2="98.2558" y2="4381" gradientUnits="userSpaceOnUse">
<stop stop-color="#D1D5DE"/>
<stop offset="1" stop-color="#DBDBDB"/>
</linearGradient>
<linearGradient id="paint20_linear" x1="1817" y1="6225.58" x2="1817" y2="6778" gradientUnits="userSpaceOnUse">
<stop stop-color="#D1D5DE"/>
<stop offset="1" stop-color="#DBDBDB"/>
</linearGradient>
<linearGradient id="paint21_linear" x1="63.5009" y1="5028.98" x2="63.5009" y2="4714" gradientUnits="userSpaceOnUse">
<stop stop-color="#D1D5DE"/>
<stop offset="1" stop-color="#DBDBDB"/>
</linearGradient>
<linearGradient id="paint22_linear" x1="111.292" y1="3484.83" x2="-381.888" y2="3616.97" gradientUnits="userSpaceOnUse">
<stop stop-color="#D1D5DE"/>
<stop offset="1" stop-color="#DBDBDB"/>
</linearGradient>
<linearGradient id="paint23_linear" x1="224.71" y1="7947.14" x2="-288.977" y2="8407.21" gradientUnits="userSpaceOnUse">
<stop stop-color="#D1D5DE"/>
<stop offset="1" stop-color="#DBDBDB"/>
</linearGradient>
<linearGradient id="paint24_linear" x1="202.074" y1="8246.76" x2="-215.194" y2="8481.83" gradientUnits="userSpaceOnUse">
<stop stop-color="#D1D5DE"/>
<stop offset="1" stop-color="#DBDBDB"/>
</linearGradient>
<linearGradient id="paint25_linear" x1="2018.45" y1="12549.4" x2="2154.47" y2="11824.5" gradientUnits="userSpaceOnUse">
<stop stop-color="#D1D5DE"/>
<stop offset="1" stop-color="#DBDBDB"/>
</linearGradient>
<linearGradient id="paint26_linear" x1="1819.35" y1="20979.6" x2="2266.86" y2="21575.2" gradientUnits="userSpaceOnUse">
<stop stop-color="#D1D5DE"/>
<stop offset="1" stop-color="#DBDBDB"/>
</linearGradient>
<linearGradient id="paint27_linear" x1="1879.35" y1="21339.6" x2="2326.86" y2="21935.2" gradientUnits="userSpaceOnUse">
<stop stop-color="#D1D5DE"/>
<stop offset="1" stop-color="#DBDBDB"/>
</linearGradient>
<linearGradient id="paint28_linear" x1="1923.5" y1="16903.4" x2="1923.5" y2="17797" gradientUnits="userSpaceOnUse">
<stop stop-color="#D1D5DE"/>
<stop offset="1" stop-color="#DBDBDB"/>
</linearGradient>
<linearGradient id="paint29_linear" x1="1835.5" y1="17795.4" x2="1835.5" y2="17336" gradientUnits="userSpaceOnUse">
<stop stop-color="#D1D5DE"/>
<stop offset="1" stop-color="#DBDBDB"/>
</linearGradient>
<linearGradient id="paint30_linear" x1="-332.655" y1="18906.6" x2="114.864" y2="19502.2" gradientUnits="userSpaceOnUse">
<stop stop-color="#D1D5DE"/>
<stop offset="1" stop-color="#DBDBDB"/>
</linearGradient>
<linearGradient id="paint31_linear" x1="1817" y1="12321.6" x2="1817" y2="12874" gradientUnits="userSpaceOnUse">
<stop stop-color="#D1D5DE"/>
<stop offset="1" stop-color="#DBDBDB"/>
</linearGradient>
<clipPath id="clip0">
<rect width="1920" height="24390" fill="white"/>
</clipPath>
</defs>
</svg>
