<svg width="270" height="92" viewBox="0 0 270 92" fill="none" xmlns="http://www.w3.org/2000/svg">
<g clip-path="url(#clip0)">
<path d="M224.263 1.28036C235.255 1.30041 245.847 5.40231 253.985 12.7903C262.123 20.1783 267.227 30.3257 268.306 41.264C269.386 52.2022 266.364 63.1515 259.827 71.9878C253.29 80.8241 243.704 86.9174 232.929 89.0857C222.154 91.2539 210.957 89.3426 201.511 83.7224C192.065 78.1022 185.044 69.1738 181.808 58.6693C178.573 48.1649 179.355 36.8332 184.002 26.8725C188.649 16.9118 196.83 9.03229 206.959 4.76249C212.434 2.45109 218.32 1.2668 224.263 1.28036ZM224.263 0C199.003 0 178.527 20.4468 178.527 45.6696C178.527 70.8923 199.003 91.3392 224.263 91.3392C249.524 91.3392 270 70.8923 270 45.6696C270 20.4468 249.524 0 224.263 0Z" fill="white"/>
<path d="M224.397 5.03035C234.433 5.04447 244.106 8.7858 251.539 15.5285C258.972 22.2713 263.636 31.5346 264.626 41.5216C265.615 51.5085 262.86 61.507 256.894 69.5772C250.928 77.6474 242.178 83.214 232.34 85.1971C222.502 87.1803 212.278 85.4384 203.652 80.3096C195.025 75.1808 188.612 67.0306 185.655 57.4403C182.698 47.85 183.409 37.5032 187.649 28.4073C191.89 19.3114 199.358 12.1148 208.604 8.21383C213.601 6.10248 218.973 5.01977 224.397 5.03035ZM224.397 3.75C201.283 3.75 182.545 22.4585 182.545 45.5357C182.545 68.6129 201.283 87.3213 224.397 87.3213C247.512 87.3213 266.25 68.6129 266.25 45.5357C266.25 22.4585 247.512 3.75 224.397 3.75Z" fill="white"/>
<path d="M224.263 14.4054C232.046 14.4159 239.547 17.3169 245.312 22.5456C251.077 27.7742 254.694 34.9577 255.462 42.7025C256.23 50.4473 254.093 58.2012 249.467 64.4599C244.841 70.7186 238.055 75.0359 230.426 76.5742C222.797 78.1126 214.868 76.7623 208.178 72.7853C201.489 68.8084 196.514 62.4883 194.221 55.0512C191.927 47.614 192.478 39.5901 195.766 32.5361C199.054 25.482 204.845 19.9007 212.016 16.875C215.891 15.239 220.057 14.4 224.263 14.408V14.4054ZM224.263 13.1277C206.179 13.125 191.518 27.7553 191.518 45.8035C191.518 63.8517 206.179 78.4821 224.263 78.4821C242.348 78.4821 257.009 63.8517 257.009 45.8035C257.009 27.7553 242.348 13.125 224.263 13.125V13.1277Z" fill="white"/>
<path d="M199.638 23.1253L198.575 22.7436L197.213 24.3815L197.783 25.3565L197.355 25.8722L194.842 21.4887L195.297 20.9423L200.065 22.611L199.638 23.1253ZM196.899 23.8391L197.984 22.5333L195.644 21.6963L196.899 23.8391Z" fill="white"/>
<path d="M202.991 19.8709L202.429 20.3986L199.385 20.1388L200.94 21.7955L200.48 22.2321L197.242 18.7794L197.7 18.3495L199.162 19.9071L199.141 16.9981L199.702 16.4705L199.752 19.5776L202.991 19.8709Z" fill="white"/>
<path d="M206.217 17.4883L205.595 17.9464L202.603 17.3276L203.951 19.1517L203.444 19.524L200.632 15.7111L201.138 15.3388L202.405 17.0598L202.729 14.1682L203.349 13.7102L203.036 16.8066L206.217 17.4883Z" fill="white"/>
<path d="M205.868 12.2356C206.042 12.133 206.234 12.0662 206.433 12.0393C206.633 12.0124 206.836 12.0259 207.03 12.079C207.224 12.1321 207.406 12.2238 207.564 12.3484C207.722 12.4731 207.854 12.6283 207.951 12.8048C208.054 12.9775 208.12 13.1693 208.146 13.3685C208.171 13.5678 208.156 13.7702 208.101 13.9633C208.048 14.1587 207.956 14.3413 207.83 14.4997C207.704 14.6582 207.547 14.7892 207.368 14.8847L206.419 15.4204L207.252 16.8936L206.705 17.2043L204.375 13.0847L205.868 12.2356ZM207.074 14.3784C207.18 14.3221 207.274 14.2442 207.349 14.1497C207.424 14.0552 207.478 13.9461 207.509 13.8293C207.568 13.5878 207.529 13.3329 207.402 13.1195C207.34 13.0075 207.257 12.9084 207.158 12.8276C207.068 12.7515 206.962 12.6958 206.849 12.6642C206.736 12.6335 206.619 12.6248 206.503 12.6387C206.38 12.6534 206.261 12.6931 206.154 12.7552L205.207 13.291L206.127 14.9142L207.074 14.3784Z" fill="white"/>
<path d="M210.557 14.5018L212.58 13.642L212.813 14.1964L210.21 15.3027L208.358 10.946L210.928 9.85315L211.161 10.4009L209.17 11.2473L209.739 12.5866L211.575 11.8058L211.805 12.3482L209.969 13.125L210.557 14.5018Z" fill="white"/>
<path d="M216.696 12.3951L217.184 12.2612L217.595 13.705L216.99 13.8777L216.742 13.0059L213.737 13.8617L213.986 14.7335L213.38 14.905L212.969 13.4612L213.371 13.3487C213.55 12.9121 213.538 12.3384 213.337 11.6277L212.656 9.24113L215.563 8.41345L216.696 12.3951ZM216.091 12.5679L215.119 9.15274L213.422 9.64291L213.943 11.471C214.138 12.1567 214.174 12.7184 214.05 13.1559L216.091 12.5679Z" fill="white"/>
<path d="M220.982 12.2986L220.499 8.80173L218.571 12.6334L218.069 12.7031L217.418 8.01557L218.042 7.92986L218.527 11.4334L220.453 7.59503L220.957 7.52539L221.606 12.2129L220.982 12.2986Z" fill="white"/>
<path d="M225.585 7.38477L225.595 7.97941L224.195 8.00084L224.257 12.1392L223.629 12.1486L223.566 8.01021L222.173 8.03164L222.163 7.43566L225.585 7.38477Z" fill="white"/>
<path d="M226.021 9.72439C226.087 9.16454 226.345 8.64487 226.751 8.25379C227.157 7.86272 227.686 7.62438 228.248 7.57933C228.81 7.53429 229.37 7.68531 229.833 8.00671C230.296 8.32811 230.634 8.80003 230.788 9.34221C230.943 9.88439 230.904 10.4633 230.68 10.9805C230.456 11.4978 230.059 11.9213 229.558 12.1792C229.057 12.437 228.482 12.5132 227.93 12.3948C227.379 12.2764 226.886 11.9707 226.535 11.5297C226.331 11.2798 226.179 10.9907 226.091 10.6802C226.003 10.3698 225.979 10.0445 226.021 9.72439ZM230.269 10.1998C230.301 9.95927 230.285 9.7146 230.22 9.48068C230.155 9.24676 230.043 9.02849 229.891 8.83913C229.744 8.64765 229.559 8.4891 229.347 8.37375C229.136 8.2584 228.902 8.1888 228.662 8.16949C228.421 8.13707 228.177 8.15486 227.944 8.22171C227.711 8.28856 227.494 8.40303 227.308 8.55788C227.119 8.71103 226.964 8.90044 226.85 9.11485C226.736 9.32927 226.667 9.56433 226.646 9.80609C226.614 10.0468 226.631 10.2914 226.694 10.5257C226.758 10.76 226.868 10.9793 227.017 11.1708C227.166 11.3612 227.353 11.5189 227.566 11.6341C227.779 11.7493 228.013 11.8195 228.254 11.8405C228.493 11.8734 228.736 11.8565 228.967 11.7908C229.199 11.7251 229.415 11.612 229.6 11.4588C229.791 11.3053 229.949 11.1145 230.064 10.8981C230.179 10.6817 230.249 10.4441 230.269 10.1998Z" fill="white"/>
<path d="M234.608 11.1253C234.788 11.2724 234.924 11.466 235.002 11.6851C235.08 11.9106 235.087 12.1546 235.022 12.3842C234.981 12.5573 234.904 12.7198 234.796 12.8612C234.688 13.0027 234.551 13.1198 234.395 13.2052C234.239 13.2944 234.066 13.3516 233.887 13.3734C233.708 13.3953 233.527 13.3813 233.353 13.3324L231.372 12.8181L232.563 8.23511L234.399 8.71189C234.569 8.75157 234.728 8.82489 234.869 8.92749C235.009 9.0301 235.128 9.15991 235.217 9.30921C235.308 9.45536 235.368 9.6188 235.392 9.78917C235.417 9.95954 235.406 10.1331 235.359 10.2989C235.317 10.4903 235.226 10.6672 235.094 10.8122C234.962 10.9572 234.794 11.0651 234.608 11.1253ZM233.498 12.7619C233.596 12.7884 233.7 12.7938 233.8 12.778C233.895 12.7613 233.985 12.7282 234.068 12.6802C234.152 12.6302 234.225 12.5636 234.283 12.4847C234.345 12.4011 234.391 12.3059 234.417 12.2047C234.444 12.1078 234.451 12.0062 234.437 11.9064C234.423 11.8066 234.389 11.7108 234.336 11.6248C234.289 11.538 234.224 11.462 234.146 11.4018C234.068 11.3416 233.978 11.2985 233.882 11.2753L232.513 10.9204L232.128 12.407L233.498 12.7619ZM233.024 8.96368L232.658 10.3713L233.882 10.6887C233.974 10.7132 234.071 10.7178 234.165 10.7021C234.254 10.687 234.34 10.6561 234.419 10.611C234.498 10.5642 234.566 10.5018 234.62 10.4275C234.679 10.3474 234.722 10.2564 234.746 10.1597C234.771 10.0685 234.777 9.97312 234.764 9.87942C234.751 9.78573 234.72 9.69563 234.671 9.61457C234.628 9.53174 234.569 9.45899 234.496 9.40123C234.423 9.34347 234.338 9.30205 234.248 9.27975L233.024 8.96368Z" fill="white"/>
<path d="M238.278 15.083L238.317 13.954L236.34 13.1598L235.58 14.0022L234.959 13.7517L238.363 10.0178L239.021 10.2857L238.887 15.3375L238.278 15.083ZM236.76 12.6951L238.335 13.3285L238.414 10.8455L236.76 12.6951Z" fill="white"/>
<path d="M244.286 12.928L244.834 13.2387L242.495 17.357L241.949 17.0463L243 15.1927L240.999 14.0624L239.948 15.9159L239.401 15.6052L241.741 11.4829L242.289 11.7936L241.298 13.5347L243.297 14.6704L244.286 12.928Z" fill="white"/>
<path d="M248.541 15.9375L249.04 16.3192L246.161 20.0759L245.667 19.6875L246.964 18L245.132 16.6071L243.84 18.3L243.339 17.9183L246.213 14.1562L246.714 14.5379L245.491 16.1317L247.319 17.5272L248.541 15.9375Z" fill="white"/>
<path d="M246.942 20.7254L250.337 17.4254L250.776 17.8768L249.563 19.0553L250.323 19.8388C250.605 20.1281 250.761 20.5175 250.755 20.9214C250.75 21.3253 250.585 21.7105 250.295 21.9924C250.006 22.2742 249.616 22.4296 249.213 22.4243C248.809 22.4191 248.423 22.2536 248.142 21.9643L246.942 20.7254ZM247.803 20.7669L248.561 21.5477C248.647 21.6377 248.75 21.7089 248.865 21.7567C248.972 21.8027 249.086 21.8273 249.202 21.829C249.32 21.8299 249.437 21.8062 249.545 21.7593C249.664 21.7097 249.772 21.6374 249.863 21.5464C249.955 21.4581 250.03 21.3532 250.084 21.237C250.134 21.1302 250.161 21.0137 250.163 20.8955C250.164 20.7792 250.144 20.6636 250.101 20.5553C250.056 20.4395 249.988 20.3342 249.9 20.246L249.141 19.4651L247.803 20.7669ZM249.544 23.3973L252.94 20.0986L253.378 20.55L249.978 23.8486L249.544 23.3973Z" fill="white"/>
<path d="M252.329 27.0415L255.197 24.9803L250.911 25.0647L250.615 24.6522L254.459 21.8893L254.826 22.3995L251.954 24.4647L256.245 24.375L256.541 24.7862L252.698 27.5504L252.329 27.0415ZM255.377 22.3004L255.795 22.0004L256.867 23.483L256.449 23.783L255.377 22.3004Z" fill="white"/>
<path d="M256.071 32.7843L256.286 33.2437L254.924 33.8839L254.656 33.3134L255.478 32.9317L254.161 30.0977L253.339 30.4794L253.071 29.9089L254.432 29.2754L254.606 29.6504C255.065 29.7602 255.63 29.6594 256.3 29.3477L258.545 28.3058L259.821 31.0406L256.071 32.7843ZM255.803 32.2138L259.024 30.7178L258.281 29.1174L256.557 29.921C255.911 30.2227 255.361 30.3464 254.909 30.2919L255.803 32.2138Z" fill="white"/>
<path d="M256.721 34.6084L257.391 36.7004L256.824 36.8825L255.959 34.1906L260.467 32.7428L261.32 35.4026L260.759 35.5848L260.089 33.5236L258.706 33.9682L259.315 35.8687L258.755 36.0482L258.15 34.1517L256.721 34.6084Z" fill="white"/>
<path d="M261.995 38.3811C262.04 38.5787 262.043 38.7832 262.005 38.9822C261.968 39.1812 261.89 39.3704 261.777 39.5382C261.548 39.8715 261.199 40.1022 260.802 40.1813C260.406 40.2604 259.994 40.1815 259.655 39.9615C259.486 39.8501 259.342 39.7053 259.231 39.536C259.12 39.3667 259.045 39.1765 259.01 38.9771L258.796 37.9057L257.143 38.2378L257.009 37.6204L261.658 36.6963L261.995 38.3811ZM259.584 38.8592C259.605 38.9782 259.649 39.0917 259.716 39.1925C259.782 39.2932 259.869 39.3791 259.97 39.4445C260.181 39.5752 260.435 39.6184 260.677 39.565C260.803 39.541 260.923 39.4933 261.031 39.4244C261.131 39.3625 261.217 39.2799 261.283 39.182C261.35 39.0819 261.396 38.9694 261.419 38.8513C261.442 38.7331 261.441 38.6115 261.417 38.4936L261.204 37.4222L259.373 37.7891L259.584 38.8592Z" fill="white"/>
<path d="M258.065 46.5213L258.023 45.8048L260.186 43.8829L257.919 44.0168L257.881 43.3887L260.15 43.2548L257.777 41.5994L257.735 40.8896L260.262 42.6387L262.465 40.6807L262.507 41.3891L260.44 43.2387L262.607 43.1048L262.644 43.7329L260.477 43.8668L262.745 45.4606L262.787 46.1771L260.376 44.4816L258.065 46.5213Z" fill="white"/>
<path d="M257.671 50.3329L258.765 50.049L258.965 47.9275L257.947 47.4441L258.01 46.7744L262.563 48.9749L262.496 49.682L257.617 50.9959L257.671 50.3329ZM259.53 48.1981L259.37 49.8883L261.781 49.2588L259.53 48.1981Z" fill="white"/>
<path d="M261.563 55.1383L260.98 55.0191L261.261 53.6477L257.207 52.816L257.333 52.1986L261.384 53.0356L261.666 51.6709L262.248 51.7901L261.563 55.1383Z" fill="white"/>
<path d="M257.118 55.5574L256.448 57.6507L255.881 57.4686L256.741 54.7766L261.248 56.2244L260.393 58.8842L259.827 58.7021L260.491 56.6422L259.108 56.1976L258.497 58.0967L257.937 57.9172L258.548 56.0168L257.118 55.5574Z" fill="white"/>
<path d="M256.307 58.0498C256.228 58.1624 256.178 58.2924 256.16 58.4288C256.149 58.557 256.18 58.6853 256.248 58.7944C256.341 58.9364 256.462 59.0581 256.603 59.152C256.81 59.2945 257.029 59.4174 257.258 59.519L259.688 60.6493L258.378 63.4819L254.084 61.4904L254.352 60.9199L258.102 62.6609L258.884 60.9694L256.988 60.0895C256.658 59.9466 256.35 59.7587 256.073 59.531C255.883 59.3778 255.731 59.1825 255.63 58.9605C255.552 58.7796 255.529 58.5798 255.564 58.3859C255.603 58.1822 255.678 57.9871 255.786 57.8101L256.307 58.0498Z" fill="white"/>
<path d="M255.231 65.4574C255.127 65.631 254.988 65.7815 254.824 65.8999C254.66 66.0182 254.473 66.1019 254.276 66.1458C253.98 66.2161 253.669 66.1958 253.385 66.0877C253.101 65.9795 252.855 65.7884 252.681 65.5391C252.506 65.2899 252.411 64.994 252.406 64.6897C252.402 64.3855 252.489 64.087 252.657 63.8329L253.577 62.3771L257.578 64.9057L257.242 65.4414L255.813 64.5387L255.231 65.4574ZM253.156 64.1436C253.088 64.248 253.043 64.3651 253.022 64.4878C253.002 64.6025 253.006 64.7199 253.032 64.8333C253.057 64.9485 253.107 65.0568 253.179 65.1507C253.255 65.2536 253.351 65.3409 253.46 65.4079C253.562 65.4751 253.675 65.5215 253.795 65.5445C253.914 65.5675 254.037 65.5666 254.157 65.5418C254.276 65.5198 254.389 65.4725 254.488 65.4032C254.587 65.3339 254.671 65.2442 254.732 65.14L255.315 64.2186L253.736 63.2222L253.156 64.1436Z" fill="white"/>
<path d="M248.62 68.9047L249.042 68.4561L249.435 68.827C249.935 68.3681 250.441 68.1003 250.954 68.0235C251.201 67.9947 251.451 68.0201 251.687 68.0979C251.923 68.1758 252.139 68.3042 252.32 68.4742C252.502 68.6441 252.643 68.8516 252.736 69.0821C252.829 69.3126 252.87 69.5606 252.857 69.8087C252.809 70.3257 252.571 70.8476 252.143 71.3744L252.539 71.7453L252.117 72.194L251.715 71.823C251.21 72.2882 250.705 72.5561 250.198 72.6266C249.952 72.6562 249.702 72.6315 249.467 72.5542C249.231 72.477 249.016 72.349 248.835 72.1795C248.655 72.0099 248.514 71.8028 248.422 71.5727C248.33 71.3427 248.29 71.0953 248.304 70.848C248.345 70.3373 248.582 69.8154 249.016 69.2824L248.62 68.9047ZM249.423 69.6641C249.097 70.065 248.915 70.4409 248.878 70.7918C248.87 70.9661 248.9 71.1402 248.965 71.3019C249.031 71.4636 249.131 71.6092 249.258 71.7285C249.386 71.8478 249.537 71.9381 249.703 71.993C249.869 72.048 250.044 72.0663 250.218 72.0467C250.566 71.9878 250.929 71.7837 251.308 71.4346L249.423 69.6641ZM251.888 68.9275C251.767 68.8004 251.617 68.7049 251.451 68.6493C251.284 68.5937 251.107 68.5798 250.934 68.6087C250.588 68.6695 250.226 68.8735 249.849 69.2208L251.724 70.986C252.048 70.5869 252.227 70.2123 252.26 69.8623C252.279 69.6885 252.255 69.5126 252.191 69.3499C252.127 69.1871 252.025 69.0422 251.893 68.9275H251.888Z" fill="white"/>
<path d="M248.169 75.7511C248.014 75.8762 247.835 75.9693 247.643 76.0252C247.451 76.0811 247.25 76.0987 247.052 76.0769C246.853 76.0552 246.661 75.9945 246.485 75.8984C246.31 75.8023 246.156 75.6726 246.031 75.5168C245.906 75.3609 245.812 75.182 245.757 74.9902C245.701 74.7984 245.683 74.5974 245.705 74.3988C245.727 74.2002 245.787 74.0078 245.883 73.8326C245.98 73.6575 246.109 73.503 246.265 73.3779L247.115 72.6949L246.057 71.3757L246.549 70.9819L249.509 74.6744L248.169 75.7511ZM246.632 73.8346C246.536 73.9075 246.456 73.9995 246.397 74.1048C246.338 74.2102 246.302 74.3266 246.29 74.4467C246.271 74.6944 246.35 74.9397 246.51 75.1297C246.589 75.2303 246.686 75.3153 246.797 75.3802C246.898 75.4401 247.012 75.478 247.129 75.4913C247.248 75.5039 247.369 75.4926 247.484 75.4581C247.599 75.4236 247.706 75.3666 247.798 75.2904L248.648 74.6087L247.478 73.1529L246.632 73.8346Z" fill="white"/>
<path d="M241.164 74.8392L242.058 75.5276L243.856 74.3839L243.616 73.2817L244.18 72.9227L245.223 77.8633L244.623 78.245L240.593 75.1982L241.164 74.8392ZM243.99 74.9973L242.557 75.908L244.528 77.42L243.99 74.9973Z" fill="white"/>
<path d="M239.421 80.9757L238.851 81.2436L236.862 76.9471L237.434 76.6793L238.327 78.6159L240.415 77.6503L239.521 75.7177L240.091 75.4498L242.08 79.7463L241.508 80.0141L240.67 78.1873L238.578 79.1516L239.421 80.9757Z" fill="white"/>
<path d="M232.588 83.1922L231.981 83.3596L230.727 78.794L235.932 77.3636L237.187 81.9293L236.579 82.098L235.482 78.1056L233.787 78.5717L234.884 82.5627L234.277 82.7301L233.18 78.7391L231.491 79.2025L232.588 83.1922Z" fill="white"/>
<path d="M226.783 79.2092L227.143 82.7221L229.203 78.9601L229.706 78.9078L230.192 83.6168L229.567 83.6811L229.204 80.1627L227.143 83.9315L226.638 83.9837L226.152 79.2748L226.783 79.2092Z" fill="white"/>
<path d="M222.841 81.6963C222.613 81.6016 222.417 81.4425 222.277 81.2382C222.141 81.0297 222.072 80.7842 222.079 80.5351C222.076 80.3452 222.117 80.1572 222.198 79.9856C222.279 79.8139 222.399 79.6633 222.548 79.5454C222.884 79.3121 223.281 79.1821 223.691 79.1712C224.1 79.1602 224.503 79.2689 224.851 79.4838C225.121 79.6806 225.323 79.9562 225.43 80.2726L224.894 80.5726C224.76 80.0369 224.378 79.769 223.751 79.769C223.478 79.7499 223.208 79.8251 222.985 79.982C222.896 80.0509 222.826 80.1394 222.778 80.2406C222.73 80.3418 222.707 80.4527 222.71 80.5646C222.705 80.6753 222.725 80.7859 222.768 80.8881C222.811 80.9902 222.876 81.0815 222.959 81.1552C223.158 81.3158 223.409 81.3974 223.664 81.3842H224.218V81.9534H223.816C223.568 81.9381 223.322 82.0122 223.124 82.1623C223.039 82.2285 222.971 82.3134 222.925 82.4102C222.878 82.5071 222.855 82.6134 222.856 82.7208C222.852 82.8255 222.87 82.9299 222.911 83.0265C222.952 83.123 223.014 83.2094 223.092 83.2793C223.28 83.4324 223.519 83.5093 223.761 83.4949C224.285 83.4949 224.637 83.2655 224.815 82.8065L225.34 83.1159C225.051 83.7668 224.523 84.0896 223.757 84.0842C223.354 84.0987 222.96 83.9599 222.655 83.6958C222.517 83.5764 222.408 83.4278 222.335 83.2607C222.261 83.0937 222.226 82.9125 222.232 82.7302C222.226 82.518 222.28 82.3086 222.388 82.1258C222.496 81.943 222.653 81.7941 222.841 81.6963Z" fill="white"/>
<path d="M217.658 78.616L216.919 83.2927L216.297 83.1936L217.038 78.5182L217.658 78.616ZM221.34 79.1985L220.599 83.8753L219.977 83.7762L220.245 82.1061L219.166 81.936C218.965 81.9093 218.772 81.8419 218.599 81.7377C218.426 81.6336 218.275 81.4951 218.157 81.3307C217.924 80.9997 217.829 80.5906 217.892 80.1905C217.955 79.7903 218.172 79.4306 218.496 79.1878C218.66 79.0693 218.845 78.9853 219.042 78.9411C219.239 78.8969 219.443 78.8934 219.641 78.9307L221.34 79.1985ZM220.626 79.682L219.554 79.5119C219.432 79.4907 219.306 79.4953 219.186 79.5253C219.073 79.5533 218.966 79.6024 218.871 79.67C218.777 79.7402 218.698 79.8291 218.64 79.9311C218.512 80.1561 218.47 80.4197 218.522 80.6731C218.544 80.7878 218.59 80.8967 218.656 80.9932C218.725 81.0873 218.811 81.1673 218.91 81.2289C219.015 81.2942 219.133 81.3371 219.256 81.3548L220.327 81.5262L220.626 79.682Z" fill="white"/>
<path d="M208.489 80.5338L207.903 80.2874L210.707 77.5445C210.962 77.2695 211.291 77.0746 211.655 76.9834C211.994 76.924 212.342 76.9801 212.645 77.1427L212.419 77.6785C212.231 77.5616 212.01 77.5111 211.791 77.5352C211.566 77.585 211.363 77.7028 211.208 77.8727L211.122 77.9543L211.282 81.7044L210.695 81.4579L210.587 78.482L208.489 80.5338Z" fill="white"/>
<path d="M204.613 78.4592L204.067 78.1471L206.425 74.0409L206.97 74.3543L206.021 76.0083C206.422 76.0381 206.812 76.1581 207.161 76.3592C207.523 76.5456 207.801 76.8638 207.936 77.2485C207.994 77.4293 208.012 77.6205 207.989 77.8089C207.966 77.9974 207.902 78.1785 207.802 78.34L206.96 79.8065L206.415 79.4931L207.237 78.0628C207.298 77.9664 207.338 77.8583 207.354 77.7455C207.371 77.6326 207.363 77.5176 207.332 77.4079C207.25 77.1745 207.081 76.9822 206.859 76.8721C206.513 76.6723 206.125 76.5537 205.726 76.5253L204.613 78.4592Z" fill="white"/>
<path d="M204.726 73.5708L202.961 72.261L203.314 71.7828L205.591 73.4677L202.768 77.2766L200.524 75.6132L200.878 75.1351L202.619 76.4235L203.486 75.2556L201.878 74.0677L202.228 73.5949L203.835 74.7828L204.726 73.5708Z" fill="white"/>
<path d="M197.294 72.707L197.696 72.2691L198.725 73.22L201.537 70.1785L201.999 70.6057L199.187 73.6459L200.21 74.5914L199.808 75.0293L197.294 72.707Z" fill="white"/>
<path d="M224.598 18.8424C231.267 18.8534 237.694 21.341 242.632 25.8227C247.571 30.3044 250.668 36.4606 251.324 43.0971C251.98 49.7335 250.148 56.3771 246.183 61.7389C242.217 67.1007 236.402 70.7984 229.864 72.1148C223.326 73.4312 216.533 72.2723 210.801 68.863C205.07 65.4537 200.809 60.037 198.846 53.6638C196.882 47.2906 197.356 40.4153 200.175 34.3716C202.994 28.3279 207.957 23.5468 214.102 20.9558C217.424 19.554 220.993 18.8352 224.598 18.8424ZM224.598 16.875C208.622 16.875 195.67 29.7964 195.67 45.7366C195.67 61.6767 208.622 74.5981 224.598 74.5981C240.575 74.5981 253.527 61.6767 253.527 45.7366C253.527 29.7964 240.575 16.875 224.598 16.875Z" fill="white"/>
</g>
<path d="M1.57374 63.7499H0.0834961L3.64086 55.3132H4.93881L8.49617 63.7499H6.9218L6.04448 61.5987H2.45106L1.57374 63.7499ZM5.47963 60.2166L4.25378 57.2241L3.01591 60.2166H5.47963Z" fill="white"/>
<path d="M13.9385 58.3418H15.6811L13.602 60.9137L15.9335 63.7499H14.1308L11.9916 61.0218L13.9385 58.3418ZM11.9435 63.7499H10.5614V58.3418H11.9435V63.7499Z" fill="white"/>
<path d="M21.3254 58.3418H23.068L20.9889 60.9137L23.3204 63.7499H21.5177L19.3785 61.0218L21.3254 58.3418ZM19.3304 63.7499H17.9483V58.3418H19.3304V63.7499Z" fill="white"/>
<path d="M26.7173 66.1536H25.3352V58.3418H26.7173V58.8586C26.8936 58.6663 27.1339 58.51 27.4384 58.3899C27.7429 58.2697 28.0593 58.2096 28.3878 58.2096C29.1329 58.2096 29.7258 58.466 30.1665 58.9788C30.6152 59.4995 30.8395 60.1605 30.8395 60.9617C30.8395 61.803 30.5751 62.5001 30.0463 63.0529C29.5175 63.6057 28.8285 63.8821 27.9792 63.8821C27.4344 63.8821 27.0138 63.794 26.7173 63.6177V66.1536ZM27.9552 59.5076C27.4744 59.5076 27.0618 59.7038 26.7173 60.0964V62.2837C27.0458 62.492 27.4264 62.5962 27.859 62.5962C28.3157 62.5962 28.6803 62.448 28.9527 62.1515C29.2331 61.8551 29.3733 61.4705 29.3733 60.9978C29.3733 60.5491 29.2451 60.1886 28.9887 59.9162C28.7404 59.6438 28.3958 59.5076 27.9552 59.5076Z" fill="white"/>
<path d="M37.4809 62.2357L37.8775 63.2091C37.3407 63.6578 36.6517 63.8821 35.8104 63.8821C34.9451 63.8821 34.24 63.6217 33.6952 63.101C33.1664 62.5882 32.902 61.9032 32.902 61.0459C32.902 60.2447 33.1624 59.5716 33.6832 59.0268C34.204 58.482 34.897 58.2096 35.7623 58.2096C36.4754 58.2096 37.0803 58.446 37.5771 58.9187C38.0738 59.3914 38.3222 59.9923 38.3222 60.7214C38.3222 61.0419 38.2942 61.2902 38.2381 61.4665H34.3322C34.3883 61.8591 34.5605 62.1676 34.849 62.3919C35.1454 62.6162 35.514 62.7284 35.9546 62.7284C36.5555 62.7284 37.0643 62.5642 37.4809 62.2357ZM35.7022 59.3633C34.9171 59.3633 34.4444 59.7559 34.2841 60.5411H36.9401C36.9481 60.1966 36.836 59.9162 36.6036 59.6998C36.3793 59.4755 36.0788 59.3633 35.7022 59.3633Z" fill="white"/>
<path d="M41.0981 65.0118H39.8122V62.464H40.4972C40.9218 61.8951 41.1742 60.9537 41.2543 59.6398L41.3385 58.3418H45.3285V62.464H46.2298V65.0118H44.9319V63.7499H41.0981V65.0118ZM42.6244 59.6398L42.5883 60.1926C42.4922 61.2342 42.2759 61.9913 41.9394 62.464H43.9464V59.6398H42.6244Z" fill="white"/>
<path d="M52.2469 60.3248L49.7231 63.7499H48.341V58.3418H49.7231V61.767L52.2469 58.3418H53.6289V63.7499H52.2469V60.3248Z" fill="white"/>
<path d="M57.5872 59.7239H55.8085V58.3418H60.736V59.7239H58.9693V63.7499H57.5872V59.7239Z" fill="white"/>
<path d="M63.2314 63.0889C62.6946 62.5521 62.4262 61.8711 62.4262 61.0459C62.4262 60.2206 62.6946 59.5436 63.2314 59.0148C63.7682 58.478 64.4813 58.2096 65.3706 58.2096C66.252 58.2096 66.961 58.478 67.4978 59.0148C68.0427 59.5436 68.3151 60.2206 68.3151 61.0459C68.3151 61.8631 68.0427 62.5441 67.4978 63.0889C66.953 63.6177 66.2439 63.8821 65.3706 63.8821C64.4813 63.8821 63.7682 63.6177 63.2314 63.0889ZM64.3251 59.9402C64.0446 60.2286 63.9044 60.5972 63.9044 61.0459C63.9044 61.4945 64.0406 61.8671 64.313 62.1636C64.5935 62.452 64.946 62.5962 65.3706 62.5962C65.8033 62.5962 66.1558 62.452 66.4282 62.1636C66.7086 61.8751 66.8489 61.5026 66.8489 61.0459C66.8489 60.5972 66.7086 60.2286 66.4282 59.9402C66.1478 59.6518 65.7953 59.5076 65.3706 59.5076C64.954 59.5076 64.6055 59.6518 64.3251 59.9402Z" fill="white"/>
<path d="M70.713 63.7499V58.3418C70.7851 58.3418 71.0895 58.3338 71.6263 58.3178C72.1712 58.2937 72.5758 58.2817 72.8402 58.2817C74.4746 58.2817 75.2919 58.7544 75.2919 59.6998C75.2919 60.0043 75.1957 60.2727 75.0034 60.5051C74.8111 60.7294 74.5708 60.8616 74.2823 60.9017V60.9257C75.0515 61.11 75.4361 61.5266 75.4361 62.1756C75.4361 63.2652 74.5788 63.81 72.8642 63.81C72.6158 63.81 72.2353 63.798 71.7225 63.774C71.5943 63.774 71.4461 63.77 71.2778 63.762C71.1176 63.762 70.9934 63.758 70.9053 63.7499C70.8251 63.7499 70.761 63.7499 70.713 63.7499ZM72.9603 61.4545H72.095V62.6563C72.5758 62.6883 72.8802 62.7044 73.0084 62.7044C73.3129 62.7044 73.5492 62.6483 73.7175 62.5361C73.8938 62.4239 73.9819 62.2717 73.9819 62.0794C73.9819 61.6628 73.6414 61.4545 72.9603 61.4545ZM72.9603 59.3994C72.6399 59.3994 72.3514 59.4074 72.095 59.4234V60.6132H72.9964C73.2448 60.6132 73.4451 60.5571 73.5973 60.445C73.7495 60.3328 73.8257 60.1806 73.8257 59.9883C73.8257 59.5957 73.5372 59.3994 72.9603 59.3994Z" fill="white"/>
<path d="M78.3679 59.7359L78.0194 58.7264C78.6043 58.3819 79.2412 58.2096 79.9303 58.2096C80.6834 58.2096 81.2322 58.3939 81.5768 58.7624C81.9213 59.131 82.0935 59.6958 82.0935 60.457V63.7499H80.8917V63.125C80.5712 63.5897 80.0385 63.8221 79.2933 63.8221C78.7806 63.8221 78.3679 63.6738 78.0555 63.3774C77.751 63.0729 77.5988 62.6683 77.5988 62.1636C77.5988 61.6027 77.779 61.1701 78.1396 60.8656C78.5001 60.5611 78.9768 60.4089 79.5697 60.4089C80.0585 60.4089 80.4671 60.5251 80.7956 60.7574C80.8116 60.2767 80.7395 59.9242 80.5793 59.6998C80.427 59.4755 80.1626 59.3633 79.7861 59.3633C79.3694 59.3633 78.8967 59.4875 78.3679 59.7359ZM79.75 62.6563C80.2147 62.6563 80.5632 62.492 80.7956 62.1636V61.6107C80.5713 61.4345 80.2548 61.3463 79.8462 61.3463C79.5898 61.3463 79.3815 61.4064 79.2212 61.5266C79.061 61.6468 78.9809 61.811 78.9809 62.0193C78.9809 62.2116 79.053 62.3679 79.1972 62.488C79.3414 62.6002 79.5257 62.6563 79.75 62.6563Z" fill="white"/>
<path d="M89.8439 63.7499H88.4618V61.6828H86.0943V63.7499H84.7122V58.3418H86.0943V60.3849H88.4618V58.3418H89.8439V63.7499Z" fill="white"/>
<path d="M97.712 63.7499H96.3299V61.6828H93.9624V63.7499H92.5803V58.3418H93.9624V60.3849H96.3299V58.3418H97.712V63.7499Z" fill="white"/>
<path d="M102.395 63.7499H100.448V58.3418H101.83V59.82H102.503C103.313 59.82 103.91 59.9883 104.294 60.3248C104.687 60.6613 104.883 61.118 104.883 61.6948C104.883 62.3118 104.675 62.8085 104.258 63.1851C103.841 63.5617 103.221 63.7499 102.395 63.7499ZM107.034 63.7499H105.652V58.3418H107.034V63.7499ZM102.383 60.9257H101.83V62.5481H102.371C103.068 62.5481 103.417 62.2797 103.417 61.7429C103.417 61.1981 103.072 60.9257 102.383 60.9257Z" fill="white"/>
<path d="M113.678 60.3248L111.154 63.7499H109.772V58.3418H111.154V61.767L113.678 58.3418H115.06V63.7499H113.678V60.3248ZM110.577 55.6377H111.839C111.839 55.9021 111.891 56.1144 111.995 56.2747C112.099 56.4349 112.256 56.515 112.464 56.515C112.648 56.515 112.788 56.4349 112.884 56.2747C112.989 56.1064 113.041 55.8941 113.041 55.6377H114.303C114.303 56.1986 114.138 56.6512 113.81 56.9958C113.481 57.3323 113.033 57.5005 112.464 57.5005C111.839 57.5005 111.366 57.3363 111.046 57.0078C110.733 56.6713 110.577 56.2146 110.577 55.6377Z" fill="white"/>
<path d="M125.603 66.1536H124.221V63.8821H124.149C123.219 63.8821 122.498 63.6177 121.985 63.0889C121.473 62.5682 121.216 61.8871 121.216 61.0459C121.216 60.2767 121.477 59.6117 121.998 59.0509C122.526 58.49 123.239 58.2096 124.137 58.2096H124.221V55.3373H125.603V58.2096H125.699C126.604 58.2096 127.314 58.478 127.826 59.0148C128.347 59.5516 128.607 60.2286 128.607 61.0459C128.607 61.9032 128.351 62.5922 127.838 63.113C127.334 63.6258 126.62 63.8821 125.699 63.8821H125.603V66.1536ZM125.699 59.5076H125.603V62.5962H125.651C126.124 62.5962 126.488 62.46 126.745 62.1876C127.001 61.9072 127.129 61.5266 127.129 61.0459C127.129 60.5972 127.001 60.2286 126.745 59.9402C126.496 59.6518 126.148 59.5076 125.699 59.5076ZM122.695 61.0459C122.695 61.5186 122.823 61.8951 123.079 62.1756C123.344 62.456 123.712 62.5962 124.185 62.5962H124.221V59.5076H124.125C123.66 59.5076 123.303 59.6478 123.055 59.9282C122.815 60.2086 122.695 60.5812 122.695 61.0459Z" fill="white"/>
<path d="M132.387 66.1536H131.005V58.3418H132.387V58.8586C132.564 58.6663 132.804 58.51 133.109 58.3899C133.413 58.2697 133.729 58.2096 134.058 58.2096C134.803 58.2096 135.396 58.466 135.837 58.9788C136.285 59.4995 136.51 60.1605 136.51 60.9617C136.51 61.803 136.245 62.5001 135.716 63.0529C135.188 63.6057 134.499 63.8821 133.649 63.8821C133.105 63.8821 132.684 63.794 132.387 63.6177V66.1536ZM133.625 59.5076C133.145 59.5076 132.732 59.7038 132.387 60.0964V62.2837C132.716 62.492 133.096 62.5962 133.529 62.5962C133.986 62.5962 134.35 62.448 134.623 62.1515C134.903 61.8551 135.043 61.4705 135.043 60.9978C135.043 60.5491 134.915 60.1886 134.659 59.9162C134.41 59.6438 134.066 59.5076 133.625 59.5076Z" fill="white"/>
<path d="M139.329 59.7359L138.981 58.7264C139.566 58.3819 140.203 58.2096 140.892 58.2096C141.645 58.2096 142.194 58.3939 142.538 58.7624C142.883 59.131 143.055 59.6958 143.055 60.457V63.7499H141.853V63.125C141.533 63.5897 141 63.8221 140.255 63.8221C139.742 63.8221 139.329 63.6738 139.017 63.3774C138.712 63.0729 138.56 62.6683 138.56 62.1636C138.56 61.6027 138.74 61.1701 139.101 60.8656C139.461 60.5611 139.938 60.4089 140.531 60.4089C141.02 60.4089 141.428 60.5251 141.757 60.7574C141.773 60.2767 141.701 59.9242 141.541 59.6998C141.388 59.4755 141.124 59.3633 140.747 59.3633C140.331 59.3633 139.858 59.4875 139.329 59.7359ZM140.711 62.6563C141.176 62.6563 141.525 62.492 141.757 62.1636V61.6107C141.533 61.4345 141.216 61.3463 140.808 61.3463C140.551 61.3463 140.343 61.4064 140.183 61.5266C140.022 61.6468 139.942 61.811 139.942 62.0193C139.942 62.2116 140.014 62.3679 140.159 62.488C140.303 62.6002 140.487 62.6563 140.711 62.6563Z" fill="white"/>
<path d="M150.805 63.7499H149.423V61.6828H147.056V63.7499H145.674V58.3418H147.056V60.3849H149.423V58.3418H150.805V63.7499Z" fill="white"/>
<path d="M156.522 58.3418H157.904V63.7499H156.522V61.8871C156.122 62.0954 155.673 62.1996 155.176 62.1996C154.503 62.1996 154.006 62.0233 153.686 61.6708C153.373 61.3183 153.217 60.7855 153.217 60.0724V58.3418H154.695V59.9041C154.695 60.5691 154.988 60.9017 155.573 60.9017C155.949 60.9017 156.266 60.8295 156.522 60.6853V58.3418Z" fill="white"/>
<path d="M161.068 59.7359L160.719 58.7264C161.304 58.3819 161.941 58.2096 162.63 58.2096C163.383 58.2096 163.932 58.3939 164.276 58.7624C164.621 59.131 164.793 59.6958 164.793 60.457V63.7499H163.591V63.125C163.271 63.5897 162.738 63.8221 161.993 63.8221C161.48 63.8221 161.068 63.6738 160.755 63.3774C160.451 63.0729 160.298 62.6683 160.298 62.1636C160.298 61.6027 160.479 61.1701 160.839 60.8656C161.2 60.5611 161.676 60.4089 162.269 60.4089C162.758 60.4089 163.167 60.5251 163.495 60.7574C163.511 60.2767 163.439 59.9242 163.279 59.6998C163.127 59.4755 162.862 59.3633 162.486 59.3633C162.069 59.3633 161.596 59.4875 161.068 59.7359ZM162.45 62.6563C162.914 62.6563 163.263 62.492 163.495 62.1636V61.6107C163.271 61.4345 162.954 61.3463 162.546 61.3463C162.289 61.3463 162.081 61.4064 161.921 61.5266C161.761 61.6468 161.68 61.811 161.68 62.0193C161.68 62.2116 161.753 62.3679 161.897 62.488C162.041 62.6002 162.225 62.6563 162.45 62.6563Z" fill="white"/>
<path d="M171.318 60.3248L168.794 63.7499H167.412V58.3418H168.794V61.767L171.318 58.3418H172.7V63.7499H171.318V60.3248ZM168.217 55.6377H169.479C169.479 55.9021 169.531 56.1144 169.635 56.2747C169.739 56.4349 169.895 56.515 170.104 56.515C170.288 56.515 170.428 56.4349 170.524 56.2747C170.629 56.1064 170.681 55.8941 170.681 55.6377H171.943C171.943 56.1986 171.778 56.6512 171.45 56.9958C171.121 57.3323 170.673 57.5005 170.104 57.5005C169.479 57.5005 169.006 57.3363 168.686 57.0078C168.373 56.6713 168.217 56.2146 168.217 55.6377Z" fill="white"/>
<path d="M177.355 63.8821C176.882 63.8821 176.422 63.798 175.973 63.6298C175.524 63.4535 175.2 63.2372 174.999 62.9808L175.709 62.1155C175.869 62.2998 176.097 62.456 176.394 62.5842C176.69 62.7124 176.97 62.7765 177.235 62.7765C177.587 62.7765 177.86 62.7164 178.052 62.5962C178.244 62.476 178.341 62.3158 178.341 62.1155C178.341 61.9312 178.268 61.783 178.124 61.6708C177.98 61.5586 177.78 61.5026 177.523 61.5026H176.514V60.5772H177.463C177.68 60.5772 177.852 60.5171 177.98 60.3969C178.116 60.2687 178.184 60.1085 178.184 59.9162C178.184 59.5236 177.868 59.3273 177.235 59.3273C176.738 59.3273 176.245 59.5356 175.757 59.9522L175.18 59.123C175.693 58.5141 176.466 58.2096 177.499 58.2096C178.196 58.2096 178.729 58.3458 179.098 58.6182C179.474 58.8826 179.663 59.2592 179.663 59.7479C179.663 60.0123 179.574 60.2527 179.398 60.469C179.222 60.6853 178.977 60.8456 178.665 60.9497V60.9738C179.026 61.0459 179.306 61.1981 179.506 61.4304C179.707 61.6548 179.807 61.9272 179.807 62.2477C179.807 62.7524 179.582 63.153 179.134 63.4495C178.693 63.7379 178.1 63.8821 177.355 63.8821Z" fill="white"/>
<path d="M186.221 60.3248L183.697 63.7499H182.315V58.3418H183.697V61.767L186.221 58.3418H187.603V63.7499H186.221V60.3248Z" fill="white"/>
<g clip-path="url(#clip1)">
<path d="M89.148 45.4645V47.5688H86.7276V45.4645C84.0494 45.267 81.9119 44.5405 80.3151 43.285C79.5367 42.6735 78.9139 41.8866 78.4976 40.9885C78.0814 40.0904 77.8834 39.1066 77.9198 38.1173C77.8837 37.1289 78.082 36.1459 78.4982 35.2487C78.9145 34.3514 79.5371 33.5654 80.3151 32.9547C81.9253 31.6958 84.0628 30.9693 86.7276 30.7751V28.6709H89.148V30.7751C91.8462 30.966 93.9854 31.6925 95.5655 32.9547C96.3497 33.5614 96.9781 34.346 97.399 35.2437C97.8199 36.1415 98.0211 37.1265 97.9859 38.1173C98.0211 39.1089 97.8199 40.0946 97.399 40.9932C96.9782 41.8917 96.3498 42.6772 95.5655 43.285C93.9821 44.5405 91.8429 45.267 89.148 45.4645ZM82.0174 34.5366C81.4726 34.9562 81.0364 35.5004 80.7455 36.1234C80.4545 36.7465 80.3172 37.4302 80.3452 38.1173C80.3167 38.8023 80.4539 39.4841 80.745 40.1048C81.0361 40.7255 81.4725 41.2669 82.0174 41.683C83.1154 42.53 84.6855 43.0322 86.7276 43.1896V33.035C84.6888 33.1757 83.1188 33.6762 82.0174 34.5366ZM89.148 33.03V43.1896C91.1867 43.0439 92.7585 42.5467 93.8582 41.683C94.3996 41.2615 94.8322 40.7165 95.1196 40.0935C95.407 39.4705 95.541 38.7877 95.5103 38.1023C95.5406 37.4169 95.4064 36.7342 95.119 36.1113C94.8316 35.4883 94.3993 34.9433 93.8582 34.5216C92.7602 33.6745 91.1901 33.179 89.148 33.035V33.03Z" fill="white"/>
<path d="M107.803 33.7782C108.696 33.7671 109.582 33.9438 110.403 34.2967C111.224 34.6497 111.962 35.1711 112.568 35.8272C113.833 37.1707 114.537 38.9463 114.537 40.7915C114.537 42.6367 113.833 44.4123 112.568 45.7558C111.96 46.4066 111.221 46.9219 110.4 47.268C109.578 47.6141 108.694 47.7833 107.803 47.7646C106.808 47.8079 105.82 47.5872 104.938 47.1251C104.056 46.6629 103.312 45.9756 102.781 45.133V52.7565H100.466V34.1499H102.781V36.4399C103.307 35.591 104.049 34.8972 104.932 34.4295C105.814 33.9618 106.805 33.737 107.803 33.7782ZM107.512 45.5448C108.134 45.5597 108.752 45.447 109.329 45.2139C109.906 44.9807 110.429 44.6318 110.866 44.1889C111.307 43.7388 111.654 43.2055 111.886 42.6201C112.119 42.0347 112.233 41.4088 112.222 40.7789C112.238 40.1529 112.126 39.5301 111.893 38.9488C111.66 38.3676 111.311 37.8402 110.866 37.3991C109.969 36.5143 108.759 36.0183 107.499 36.0183C106.239 36.0183 105.029 36.5143 104.132 37.3991C103.687 37.8402 103.338 38.3676 103.105 38.9488C102.871 39.5301 102.76 40.1529 102.776 40.7789C102.765 41.4088 102.879 42.0347 103.112 42.6201C103.344 43.2055 103.691 43.7388 104.132 44.1889C104.573 44.6335 105.1 44.9832 105.682 45.2164C106.263 45.4496 106.886 45.5614 107.512 45.5448Z" fill="white"/>
<path d="M128.325 36.4148V34.1498H130.64V47.4582H128.325V45.1481C127.797 45.9929 127.054 46.6819 126.171 47.1443C125.289 47.6068 124.299 47.826 123.304 47.7796C122.413 47.7984 121.528 47.6292 120.707 47.283C119.886 46.9369 119.147 46.4217 118.538 45.7708C117.274 44.4274 116.569 42.6518 116.569 40.8065C116.569 38.9613 117.274 37.1857 118.538 35.8423C119.145 35.1866 119.883 34.6656 120.704 34.3126C121.525 33.9597 122.41 33.7828 123.304 33.7933C124.298 33.7448 125.288 33.9621 126.17 34.4228C127.053 34.8835 127.797 35.5711 128.325 36.4148ZM123.585 45.5448C124.211 45.5616 124.834 45.45 125.415 45.2168C125.996 44.9836 126.524 44.6337 126.965 44.1889C127.407 43.7397 127.755 43.2067 127.989 42.6212C128.223 42.0356 128.337 41.4093 128.325 40.7789C128.336 40.1524 128.221 39.5301 127.987 38.949C127.753 38.3678 127.404 37.8395 126.962 37.3955C126.52 36.9515 125.994 36.6008 125.413 36.3642C124.833 36.1276 124.212 36.0099 123.585 36.018C122.962 36.0047 122.342 36.1206 121.766 36.3582C121.19 36.5959 120.669 36.9503 120.236 37.3991C119.789 37.8392 119.438 38.3663 119.204 38.9477C118.97 39.5291 118.858 40.1524 118.875 40.7789C118.863 41.4101 118.977 42.0374 119.21 42.6239C119.444 43.2103 119.793 43.7441 120.236 44.1939C120.672 44.6358 121.195 44.9836 121.771 45.216C122.347 45.4483 122.964 45.5602 123.585 45.5448Z" fill="white"/>
<path d="M143.36 39.6742V34.15H145.675V47.4584H143.36V41.8739H136.471V47.4333H134.151V34.15H136.471V39.6742H143.36Z" fill="white"/>
<path d="M165.103 45.2236V34.15H167.418V47.4584H149.19V34.15H151.505V45.2487H157.174V34.15H159.489V45.2487L165.103 45.2236Z" fill="white"/>
<path d="M173.243 43.4709L180.62 34.15H182.483V47.4584H180.193V38.0923L172.821 47.4333H170.958V34.15H173.243V43.4709Z" fill="white"/>
<path d="M193.184 40.6234C194.657 41.2428 195.393 42.2974 195.393 43.7873C195.402 44.337 195.284 44.8813 195.048 45.3779C194.812 45.8744 194.465 46.3097 194.033 46.6498C193.129 47.4032 191.878 47.7798 190.282 47.7798C187.62 47.7798 185.837 46.7151 184.934 44.5858L186.877 43.4408C187.369 44.8972 188.512 45.6254 190.307 45.6254C191.032 45.6663 191.751 45.4707 192.355 45.0679C192.595 44.8981 192.788 44.6716 192.919 44.4087C193.05 44.1458 193.113 43.8547 193.104 43.5613C193.11 43.312 193.059 43.0647 192.954 42.8383C192.85 42.6119 192.695 42.4125 192.501 42.2556C192.043 41.9001 191.473 41.7217 190.894 41.7534H188.951V39.6743H190.387C190.955 39.7061 191.515 39.5273 191.959 39.1721C192.145 39.0025 192.291 38.794 192.388 38.5613C192.484 38.3287 192.528 38.0777 192.516 37.8262C192.526 37.5574 192.47 37.2902 192.355 37.0472C192.24 36.8042 192.068 36.5926 191.853 36.43C191.332 36.0672 190.704 35.8903 190.071 35.9278C188.581 35.9278 187.568 36.5589 187.033 37.8211L185.145 36.7263C186.085 34.7778 187.727 33.8019 190.071 33.7985C191.307 33.7403 192.522 34.1329 193.49 34.9034C193.899 35.2373 194.227 35.659 194.451 36.1372C194.674 36.6154 194.787 37.1377 194.781 37.6655C194.811 38.2575 194.678 38.8466 194.397 39.3682C194.115 39.8899 193.696 40.3241 193.184 40.6234Z" fill="white"/>
<path d="M208.896 36.415V34.1501H211.211V47.4584H208.896V45.1483C208.368 45.9931 207.624 46.6821 206.742 47.1445C205.86 47.607 204.87 47.8263 203.875 47.7799C202.984 47.798 202.099 47.6285 201.278 47.2824C200.457 46.9363 199.718 46.4214 199.109 45.771C197.844 44.4276 197.14 42.652 197.14 40.8068C197.14 38.9616 197.844 37.1859 199.109 35.8425C199.715 35.1841 200.452 34.6602 201.273 34.3047C202.094 33.9491 202.98 33.7699 203.875 33.7784C204.871 33.7315 205.861 33.9511 206.744 34.4145C207.626 34.878 208.369 35.5686 208.896 36.415ZM204.176 45.5451C204.802 45.561 205.424 45.4489 206.006 45.2158C206.587 44.9826 207.114 44.6333 207.555 44.1891C207.994 43.7378 208.338 43.204 208.568 42.6186C208.798 42.0332 208.91 41.408 208.896 40.7791C208.908 40.1529 208.793 39.5307 208.56 38.9496C208.326 38.3684 207.978 37.8401 207.536 37.396C207.095 36.952 206.568 36.6012 205.988 36.3645C205.409 36.1278 204.787 36.0101 204.161 36.0183C203.537 36.0043 202.916 36.1197 202.339 36.3574C201.762 36.5951 201.24 36.9499 200.807 37.3993C200.361 37.8401 200.011 38.3674 199.777 38.9486C199.543 39.5298 199.43 40.1528 199.446 40.7791C199.437 41.4113 199.554 42.0388 199.79 42.6252C200.026 43.2116 200.377 43.7449 200.822 44.1941C201.259 44.6362 201.782 44.9841 202.359 45.2164C202.936 45.4487 203.554 45.5606 204.176 45.5451Z" fill="white"/>
<path fill-rule="evenodd" clip-rule="evenodd" d="M3.91179 17.3463H69.3878V46.705C69.3878 47.7426 68.9756 48.7377 68.242 49.4713C67.5084 50.205 66.5135 50.6172 65.476 50.6172H3.91179C2.87432 50.6172 1.87934 50.205 1.14574 49.4713C0.412134 48.7377 0 47.7426 0 46.705L0 21.2585C0 20.2209 0.412134 19.2258 1.14574 18.4922C1.87934 17.7585 2.87432 17.3463 3.91179 17.3463Z" fill="#76B2D0"/>
<path fill-rule="evenodd" clip-rule="evenodd" d="M77.5227 13.8007C78.8383 12.0531 79.4711 9.03984 78.4467 4.01782C65.5212 6.02663 68.2931 13.0123 69.5284 15.1968C71.4321 12.2449 73.6772 9.52761 76.2171 7.10134C74.4952 9.58918 73.0059 12.2302 71.768 14.9909C73.5105 12.9821 75.5542 12.8767 77.5227 13.8007ZM81.5901 17.8987C75.9258 24.2867 72.8878 20.7512 71.7579 18.8328C73.5172 18.2476 75.3694 17.9922 77.2214 18.0795C75.3519 17.5021 73.3959 17.2557 71.4416 17.3513C72.1295 15.699 74.9617 10.8227 81.5901 17.8987Z" fill="#85BC22"/>
<path fill-rule="evenodd" clip-rule="evenodd" d="M39.5498 24.6482H41.2521V26.3507H39.5498V24.6482ZM15.1701 35.315L19.3983 24.6482H22.2103L15.7125 39.9603C14.7584 42.2052 13.508 43.1995 11.1931 43.2899C9.9924 43.3082 8.79931 43.0968 7.67798 42.6672V40.5228C9.8724 41.1656 10.1586 41.2409 10.942 41.2259C12.0116 41.2259 12.9155 40.6534 13.9549 38.2528L7.69304 24.6482H10.4097L15.1701 35.315ZM33.6042 43.2899H31.2592V38.3332C30.2283 38.6048 29.1666 38.7415 28.1006 38.74C24.8115 38.74 22.8581 37.0425 22.828 33.6878V29.63H25.163V33.7832C25.163 35.8222 26.1673 36.7111 28.1006 36.7111C29.1666 36.7126 30.2283 36.5759 31.2592 36.3043V29.63H33.6042V43.2899ZM42.9443 43.2899C38.5655 43.2899 36.4464 40.4173 36.4464 36.4148C36.4464 32.8994 38.7112 29.6401 42.643 29.6401C47.5441 29.6401 48.4731 33.2208 48.4731 37.1128H38.6057C38.6032 37.6863 38.7169 38.2543 38.9397 38.7826C39.1626 39.3109 39.4901 39.7887 39.9025 40.1871C40.315 40.5855 40.8037 40.8962 41.3395 41.1006C41.8752 41.3051 42.4467 41.3989 43.0196 41.3765C43.7404 41.4071 44.4584 41.2691 45.1165 40.9736C45.7747 40.678 46.3548 40.2331 46.8109 39.6741L48.3174 40.7438C47.1122 42.4412 45.3212 43.2899 42.9443 43.2899ZM42.643 31.4832C40.3582 31.4832 38.9472 33.276 38.6861 35.2698H46.3138C46.3138 33.2258 44.9329 31.4832 42.643 31.4832ZM61.6898 31.5284H57.1101V43.2899H54.7751V31.5284H50.2557V29.63H61.6647V31.5183L61.6898 31.5284ZM43.6875 24.6633H45.3898V26.3657H43.6875V24.6633Z" fill="white"/>
</g>
<defs>
<clipPath id="clip0">
<rect width="91.4731" height="91.3392" fill="white" transform="translate(178.527)"/>
</clipPath>
<clipPath id="clip1">
<rect width="211.226" height="48.7387" fill="white" transform="translate(0 4.01782)"/>
</clipPath>
</defs>
</svg>
