<svg width="55" height="55" viewBox="0 0 55 55" fill="none" xmlns="http://www.w3.org/2000/svg">
<g clip-path="url(#clip0)">
<path d="M52.3905 21.6188C52.3898 21.6181 52.3893 21.6175 52.3885 21.6168L52.3846 21.6132C52.384 21.6128 52.3836 21.6122 52.3831 21.6117C52.383 21.6116 52.3827 21.6115 52.3826 21.6112L44.3239 14.0903V10.569C44.3239 10.1239 43.9632 9.76327 43.5181 9.76327C43.073 9.76327 42.7124 10.1239 42.7124 10.569V29.6211L29.3791 42.0646C28.3255 43.048 26.6748 43.048 25.6212 42.0646L12.2877 29.6209V6.14025C12.2877 5.60309 12.7246 5.16617 13.2617 5.16617H41.7383C42.2754 5.16617 42.7123 5.60309 42.7123 6.14025V7.34617C42.7123 7.79126 43.0729 8.15191 43.518 8.15191C43.9631 8.15191 44.3238 7.79126 44.3238 7.34617V6.14025C44.3238 4.71453 43.1639 3.5547 41.7383 3.5547H33.0346L30.4784 1.16907C28.8085 -0.389545 26.192 -0.389653 24.5217 1.16907L21.9654 3.5547H13.2618C11.836 3.5547 10.6763 4.71463 10.6763 6.14025V14.0905L2.61787 21.6111C2.61777 21.6112 2.61755 21.6115 2.61734 21.6116C2.61669 21.6121 2.61615 21.6128 2.61551 21.6133L2.61175 21.6168C2.61111 21.6174 2.61057 21.6181 2.60992 21.6187C2.08072 22.1069 1.77722 22.7989 1.77722 23.5189V50.6346C1.77722 53.0416 3.73559 55 6.14259 55H9.87058C10.3157 55 10.6763 54.6394 10.6763 54.1943C10.6763 53.7492 10.3157 53.3885 9.87058 53.3885H6.14249C4.62394 53.3885 3.38859 52.1532 3.38859 50.6346V23.5202L24.5218 43.2427C25.3568 44.0222 26.4284 44.4119 27.5002 44.4119C28.5718 44.4119 29.6437 44.0221 30.4786 43.2428L51.6114 23.5204V50.6347C51.6114 52.1533 50.376 53.3886 48.8575 53.3886H13.0935C12.6484 53.3886 12.2878 53.7493 12.2878 54.1944C12.2878 54.6395 12.6484 55.0001 13.0935 55.0001H48.8575C51.2645 55.0001 53.2229 53.0417 53.2229 50.6347V23.519C53.2229 22.7991 52.9195 22.1073 52.3905 21.6188ZM25.6211 2.34717C26.6747 1.36374 28.3254 1.36374 29.379 2.34717L30.6728 3.55459H24.3273L25.6211 2.34717ZM10.6762 28.117L4.34236 22.206L10.6761 16.2948V28.117H10.6762ZM44.3239 16.2947L50.6578 22.206L44.3239 28.1173V16.2947Z" fill="white"/>
<path d="M47.0778 51.4408C48.5035 51.4408 49.6632 50.2808 49.6632 48.8552C49.6632 47.4296 48.5034 46.2698 47.0778 46.2698H39.9585C38.5329 46.2698 37.373 47.4296 37.373 48.8552C37.373 50.2808 38.5329 51.4408 39.9585 51.4408H47.0778ZM38.9845 48.8551C38.9845 48.3181 39.4214 47.8811 39.9585 47.8811H47.0778C47.6148 47.8811 48.0517 48.3181 48.0517 48.8551C48.0517 49.3923 47.6148 49.8292 47.0778 49.8292H39.9585C39.4214 49.8293 38.9845 49.3923 38.9845 48.8551Z" fill="white"/>
<path d="M27.4999 24.6506C26.0742 24.6506 24.9144 25.8104 24.9144 27.236C24.9144 28.6617 26.0743 29.8215 27.4999 29.8215C28.9255 29.8215 30.0853 28.6617 30.0853 27.236C30.0854 25.8104 28.9256 24.6506 27.4999 24.6506ZM27.4999 28.2101C26.9628 28.2101 26.5259 27.7732 26.5259 27.2362C26.5259 26.6991 26.9628 26.2622 27.4999 26.2622C28.0369 26.2622 28.4739 26.6991 28.4739 27.2362C28.474 27.7732 28.0369 28.2101 27.4999 28.2101Z" fill="white"/>
<path d="M30.0856 18.5737C32.3913 17.5053 33.8069 15.1262 33.6302 12.5677C33.4207 9.52782 30.9703 7.07741 27.9308 6.8676C26.2334 6.74996 24.5484 7.34696 23.3077 8.50507C22.0667 9.66318 21.355 11.3008 21.355 12.9979C21.355 14.4235 22.5148 15.5833 23.9404 15.5833C25.3661 15.5833 26.5259 14.4235 26.5259 12.9979C26.5259 12.7209 26.6331 12.4746 26.8358 12.2854C27.035 12.0996 27.2984 12.0079 27.5746 12.0264C28.0372 12.0583 28.4395 12.4607 28.4715 12.9235C28.5007 13.3477 28.2588 13.7403 27.8693 13.9002C26.0743 14.6373 24.9145 16.3789 24.9145 18.3373V20.117C24.9145 21.5426 26.0744 22.7026 27.5001 22.7026C28.9258 22.7026 30.0855 21.5426 30.0855 20.117V18.5737H30.0856ZM29.2215 17.1931C28.7674 17.3796 28.4741 17.8287 28.4741 18.3373V20.117C28.4741 20.6542 28.0372 21.0911 27.5002 21.0911C26.963 21.0911 26.5261 20.6542 26.5261 20.117V18.3373C26.5261 17.0352 27.2937 15.8787 28.4816 15.3908C29.5143 14.9669 30.1564 13.9307 30.0793 12.8125C29.9925 11.5568 28.9411 10.5052 27.6846 10.4187C27.6232 10.4146 27.562 10.4124 27.5013 10.4124C26.8415 10.4124 26.2207 10.6555 25.7367 11.1072C25.2066 11.6018 24.9146 12.2732 24.9146 12.998C24.9146 13.535 24.4777 13.9719 23.9406 13.9719C23.4036 13.9719 22.9667 13.535 22.9667 12.998C22.9667 11.746 23.4918 10.5378 24.4073 9.68317C25.3227 8.82887 26.5666 8.38872 27.82 8.47542C30.0613 8.62991 31.8682 10.437 32.0227 12.6787C32.1576 14.6352 31.032 16.4495 29.2215 17.1931Z" fill="white"/>
</g>
<defs>
<clipPath id="clip0">
<rect width="55" height="55" fill="white"/>
</clipPath>
</defs>
</svg>
