<svg width="56" height="55" viewBox="0 0 56 55" fill="none" xmlns="http://www.w3.org/2000/svg">
<g clip-path="url(#clip0)">
<path d="M16.7635 42.6069C17.4956 41.4994 17.9233 40.1738 17.9233 38.7497C17.9233 34.8832 14.7765 31.7377 10.9084 31.7377C7.04036 31.7377 3.89365 34.8832 3.89365 38.7497C3.89365 40.1739 4.32141 41.4995 5.05349 42.6071C2.27094 43.7597 0.334229 46.5219 0.334229 49.6294V53.9258C0.334229 54.5191 0.815156 55 1.40845 55H20.4085C21.0018 55 21.4827 54.5191 21.4827 53.9258V49.6294C21.4827 46.5214 19.546 43.7593 16.7635 42.6069ZM10.9084 33.8862C13.5917 33.8862 15.7748 36.0679 15.7748 38.7497C15.7748 41.4331 13.5918 43.6162 10.9084 43.6162C8.22512 43.6162 6.04209 41.4331 6.04209 38.7497C6.04209 36.0679 8.22512 33.8862 10.9084 33.8862ZM19.3343 52.8516H2.48267V49.6294C2.48267 47.1135 4.25298 44.913 6.66836 44.3333C7.84699 45.2305 9.3162 45.7647 10.9084 45.7647C12.5006 45.7647 13.9699 45.2305 15.1486 44.3333C17.5639 44.9126 19.3343 47.1132 19.3343 49.6294V52.8516Z" fill="white"/>
<path d="M50.6107 42.6068C51.3427 41.4992 51.7703 40.1738 51.7703 38.7497C51.7703 34.8832 48.6235 31.7377 44.7556 31.7377C40.8892 31.7377 37.7438 34.8832 37.7438 38.7497C37.7438 40.1734 38.1712 41.4988 38.9027 42.6062C36.1191 43.7583 34.1814 46.521 34.1814 49.6294V53.9258C34.1814 54.5191 34.6623 55 35.2556 55H54.2588C54.852 55 55.333 54.5191 55.333 53.9258V49.6294C55.3329 46.5214 53.395 43.7591 50.6107 42.6068ZM44.7556 33.8862C47.4389 33.8862 49.6219 36.0679 49.6219 38.7497C49.6219 41.4331 47.4389 43.6162 44.7556 43.6162C42.0739 43.6162 39.8923 41.4331 39.8923 38.7497C39.8923 36.0679 42.0739 33.8862 44.7556 33.8862ZM53.1844 52.8516H36.3297V49.6294C36.3297 47.1131 38.1008 44.9122 40.5169 44.3329C41.6951 45.2303 43.1639 45.7647 44.7556 45.7647C46.3478 45.7647 47.8171 45.2304 48.9957 44.3331C51.4128 44.9127 53.1843 47.1133 53.1843 49.6294V52.8516H53.1844Z" fill="white"/>
<path d="M44.7852 28.3849C44.9611 28.4976 45.1624 28.5545 45.3644 28.5545C45.5382 28.5545 45.7123 28.5123 45.871 28.4275C46.2139 28.2441 46.4309 27.8896 46.4384 27.5009L46.5005 24.2593C49.3461 23.5616 51.4566 20.9598 51.4566 17.9556C51.4566 14.8122 49.2094 12.1845 46.2375 11.5928C46.3904 10.9126 46.469 10.2179 46.469 9.51478C46.4689 4.2683 42.2007 0 36.9543 0H29.6252C29.032 0 28.551 0.480928 28.551 1.07422C28.551 1.66751 29.032 2.14844 29.6252 2.14844H36.9543C41.016 2.14844 44.3206 5.45306 44.3206 9.51489C44.3206 10.1781 44.2309 10.832 44.0552 11.4674H29.3817C26.1702 11.4674 23.4978 13.8134 22.9842 16.8813H20.0979C19.855 16.8813 19.6193 16.9636 19.4292 17.1148L13.0669 22.1749L12.9841 17.9011C12.9735 17.3521 12.5504 16.8994 12.0033 16.8517C8.23368 16.5233 5.28076 13.3005 5.28076 9.51468C5.28076 5.45306 8.58656 2.14844 12.65 2.14844H19.9791C20.5724 2.14844 21.0533 1.66751 21.0533 1.07422C21.0533 0.480928 20.5724 0 19.9791 0H12.65C7.40191 0 3.13232 4.2683 3.13232 9.51489C3.13232 11.9021 4.02865 14.1888 5.65631 15.954C7.05086 17.4664 8.86962 18.4769 10.8538 18.8582L10.9609 24.3891C10.9689 24.7977 11.2079 25.1664 11.5776 25.3403C11.7234 25.4089 11.8795 25.4425 12.0348 25.4425C12.2734 25.4425 12.5099 25.3632 12.7036 25.2091L20.4729 19.0299H22.9842C23.4978 22.0979 26.1702 24.4438 29.3817 24.4438H38.6283L44.7852 28.3849ZM25.0421 17.9556C25.0421 15.5626 26.9889 13.6158 29.3817 13.6158H44.9685C47.3613 13.6158 49.3082 15.5626 49.3082 17.9556C49.3082 20.1859 47.5696 22.0845 45.3502 22.278C44.803 22.3257 44.38 22.7785 44.3695 23.3276L44.3271 25.5407L39.5218 22.4647C39.349 22.3541 39.148 22.2952 38.9427 22.2952H29.3817C26.9888 22.2953 25.0421 20.3485 25.0421 17.9556Z" fill="white"/>
<path d="M31.0811 16.8799C30.4878 16.8799 30.0068 17.3623 30.0068 17.9556C30.0068 18.5489 30.4878 19.0298 31.0811 19.0298C31.6743 19.0298 32.1553 18.5489 32.1553 17.9556V17.9526C32.1553 17.3593 31.6743 16.8799 31.0811 16.8799Z" fill="white"/>
<path d="M37.1768 16.8799C36.5835 16.8799 36.1025 17.3623 36.1025 17.9556C36.1025 18.5489 36.5835 19.0298 37.1768 19.0298C37.77 19.0298 38.251 18.5489 38.251 17.9556V17.9526C38.251 17.3593 37.77 16.8799 37.1768 16.8799Z" fill="white"/>
<path d="M43.2695 19.0298C43.8628 19.0298 44.3438 18.5489 44.3438 17.9556V17.9526C44.3438 17.3593 43.8628 16.8799 43.2695 16.8799C42.6762 16.8799 42.1953 17.3623 42.1953 17.9556C42.1953 18.5489 42.6762 19.0298 43.2695 19.0298Z" fill="white"/>
<path d="M24.8021 2.14844H24.8083C25.4016 2.14844 25.8795 1.66751 25.8795 1.07422C25.8795 0.480928 25.3955 0 24.8022 0C24.209 0 23.728 0.480928 23.728 1.07422C23.728 1.66751 24.2088 2.14844 24.8021 2.14844Z" fill="white"/>
</g>
<defs>
<clipPath id="clip0">
<rect width="55" height="55" fill="white" transform="translate(0.333496)"/>
</clipPath>
</defs>
</svg>
