<svg width="56" height="55" viewBox="0 0 56 55" fill="none" xmlns="http://www.w3.org/2000/svg">
<g clip-path="url(#clip0)">
<path d="M54.9607 36.9703L46.6951 28.7034C48.692 26.072 49.9387 22.9178 50.2585 19.6108C50.65 15.5523 49.6391 11.4518 47.4118 8.06421C47.1671 7.69243 46.6674 7.58921 46.296 7.83384C45.9242 8.07848 45.821 8.57824 46.0657 8.95002C50.2807 15.3601 49.3966 23.9567 43.9634 29.3903C37.6175 35.7366 27.2929 35.7366 20.9474 29.3903C14.6016 23.0441 14.6016 12.7178 20.9474 6.37148C27.2929 0.0252094 37.6179 0.0252094 43.9613 6.36938L44.0053 6.41386C44.3192 6.72941 44.829 6.73151 45.1446 6.41764C45.4606 6.10418 45.4622 5.59393 45.1488 5.27838L45.1026 5.2318C38.1286 -1.74263 26.7818 -1.74263 19.8078 5.2318C19.5887 5.45084 19.3768 5.67408 19.1716 5.90151H1.47265C1.02786 5.90151 0.666992 6.26238 0.666992 6.70717V10.2706C0.666992 10.7158 1.02786 11.0766 1.47265 11.0766C1.91787 11.0766 2.27832 10.7158 2.27832 10.2706V7.51325H17.8792C17.2636 8.37808 16.7341 9.28529 16.2906 10.224H6.25292C5.80813 10.224 5.44726 10.5844 5.44726 11.0296C5.44726 11.4748 5.80813 11.8353 6.25292 11.8353H15.6238C15.3926 12.4823 15.2 13.1399 15.0456 13.805H6.25292C5.80813 13.805 5.44726 14.1654 5.44726 14.6106C5.44726 15.0554 5.80813 15.4163 6.25292 15.4163H14.7476C14.6574 16.0696 14.6033 16.7272 14.5852 17.3856H6.25292C5.80813 17.3856 5.44726 17.7464 5.44726 18.1916C5.44726 18.6364 5.80813 18.9973 6.25292 18.9973H14.6133C14.7585 21.3379 15.359 23.655 16.4169 25.8022H15.0619C14.6167 25.8022 14.2563 26.1631 14.2563 26.6083V50.4593C14.2563 50.9045 14.6167 51.2653 15.0619 51.2653H21.5072C21.9524 51.2653 22.3129 50.9045 22.3129 50.4593V32.6168C23.0384 33.1165 23.7924 33.5571 24.5687 33.9377V50.4593C24.5687 50.9045 24.9296 51.2653 25.3744 51.2653H31.8197C32.2649 51.2653 32.6254 50.9045 32.6254 50.4593V35.7593C33.2535 35.753 33.8808 35.7148 34.5057 35.6435V48.0889C34.5057 48.5341 34.8661 48.8949 35.3113 48.8949C35.7561 48.8949 36.117 48.5341 36.117 48.0889V35.3841C38.6636 34.8554 41.1163 33.7686 43.2773 32.1233L51.5412 40.3885C51.9982 40.845 52.6054 41.0968 53.2507 41.0968C53.8965 41.0968 54.5037 40.845 54.9603 40.3885C55.9023 39.4469 55.9027 37.9136 54.9607 36.9703ZM20.7016 49.6536H15.8676V27.414H17.319C18.016 28.5205 18.8452 29.567 19.8078 30.53C20.0981 30.8204 20.3969 31.0978 20.7016 31.3638V49.6536ZM26.1805 49.6536V34.6309C27.7431 35.2138 29.3712 35.5704 31.0145 35.7022V49.6536H26.1805ZM53.8214 39.2488C53.6691 39.4011 53.4664 39.485 53.2512 39.485C53.0359 39.485 52.8332 39.4011 52.6813 39.2488L44.5194 31.0864C44.717 30.9056 44.9117 30.721 45.1026 30.53C45.2931 30.3395 45.4786 30.1452 45.6595 29.9468L53.8206 38.1095C54.1349 38.4238 54.1353 38.9354 53.8214 39.2488Z" fill="white"/>
<path d="M35.3114 50.7564C34.8666 50.7564 34.5057 51.1169 34.5057 51.5621V53.3887H2.27832V13.7617C2.27832 13.3165 1.91787 12.9561 1.47266 12.9561C1.02786 12.9561 0.666992 13.3165 0.666992 13.7617V54.1943C0.666992 54.6395 1.02786 55 1.47266 55H35.3114C35.7566 55 36.1171 54.6395 36.1171 54.1943V51.5621C36.1171 51.1169 35.7566 50.7564 35.3114 50.7564Z" fill="white"/>
<path d="M4.1582 33.0532V50.4585C4.1582 50.9033 4.51907 51.2642 4.96387 51.2642H11.4096C11.8544 51.2642 12.2153 50.9033 12.2153 50.4585V33.0532C12.2153 32.6084 11.8544 32.2475 11.4096 32.2475H4.96387C4.51907 32.2475 4.1582 32.6084 4.1582 33.0532ZM5.76953 33.8593H10.6039V49.6524H5.76953V33.8593Z" fill="white"/>
<path d="M12.2774 22.5783C12.7226 22.5783 13.083 22.2174 13.083 21.7722C13.083 21.3274 12.7226 20.9666 12.2774 20.9666H6.25293C5.80814 20.9666 5.44727 21.3274 5.44727 21.7722C5.44727 22.2174 5.80814 22.5783 6.25293 22.5783H12.2774Z" fill="white"/>
<path d="M32.4556 3.2214C28.5347 3.2214 24.8521 4.74461 22.0868 7.5103C19.3215 10.276 17.7983 13.959 17.7983 17.8803C17.7983 21.8016 19.3215 25.4846 22.0868 28.2503C24.8525 31.016 28.5347 32.5392 32.4556 32.5392C36.3764 32.5392 40.0586 31.016 42.8243 28.2503C45.5896 25.4846 47.1123 21.8016 47.1123 17.8803C47.1123 13.959 45.5896 10.276 42.8243 7.5103C40.0586 4.74461 36.3764 3.2214 32.4556 3.2214ZM41.6846 27.1106C39.2235 29.5721 35.9459 30.9274 32.4556 30.9274C28.9648 30.9274 25.6876 29.5721 23.2265 27.1106C20.765 24.6491 19.4097 21.3711 19.4097 17.8803C19.4097 14.3891 20.765 11.111 23.2265 8.64956C25.7706 6.105 29.1133 4.83231 32.4556 4.83231C35.7978 4.83231 39.1405 6.105 41.6846 8.64956C44.1457 11.111 45.501 14.3891 45.501 17.8803C45.501 21.3711 44.1457 24.6491 41.6846 27.1106Z" fill="white"/>
</g>
<defs>
<clipPath id="clip0">
<rect width="55" height="55" fill="white" transform="translate(0.666992)"/>
</clipPath>
</defs>
</svg>
