<svg width="55" height="55" viewBox="0 0 55 55" fill="none" xmlns="http://www.w3.org/2000/svg">
<path d="M35.8958 14.8032H9.55715C9.11027 14.8032 8.74805 15.1654 8.74805 15.6123C8.74805 16.0592 9.11027 16.4214 9.55715 16.4214H35.8959C36.3428 16.4214 36.705 16.0592 36.705 15.6123C36.705 15.1654 36.3427 14.8032 35.8958 14.8032Z" fill="white"/>
<path d="M9.55715 10.8089H22.7264C23.1733 10.8089 23.5355 10.4467 23.5355 9.99979C23.5355 9.55292 23.1733 9.19069 22.7264 9.19069H9.55715C9.11027 9.19069 8.74805 9.55292 8.74805 9.99979C8.74805 10.4468 9.11027 10.8089 9.55715 10.8089Z" fill="white"/>
<path d="M35.8958 19.776H9.55715C9.11027 19.776 8.74805 20.1382 8.74805 20.5851C8.74805 21.032 9.11027 21.3942 9.55715 21.3942H35.8959C36.3428 21.3942 36.705 21.032 36.705 20.5851C36.7049 20.1382 36.3427 19.776 35.8958 19.776Z" fill="white"/>
<path d="M15.5568 49.3784H7.12774C5.74426 49.3784 4.61858 48.2528 4.61858 46.8693V4.12726C4.61858 2.74377 5.74426 1.6181 7.12774 1.6181H31.4111C31.4895 1.6181 31.5668 1.62529 31.6431 1.63561V6.68164C31.6431 8.95748 33.4947 10.8089 35.7704 10.8089H40.8163C40.8267 10.8854 40.8338 10.9626 40.8338 11.041V24.8191C40.8338 25.2659 41.1961 25.6282 41.6429 25.6282C42.0898 25.6282 42.452 25.2659 42.452 24.8191V11.0411C42.452 10.1536 42.1063 9.31917 41.4788 8.6915L33.7605 0.973242C33.133 0.345684 32.2986 0 31.4111 0H7.12774C4.8519 0 3.00049 1.85152 3.00049 4.12726V46.8693C3.00049 49.1451 4.85201 50.9965 7.12774 50.9965H15.5568C16.0037 50.9965 16.3659 50.6343 16.3659 50.1874C16.3659 49.7405 16.0037 49.3784 15.5568 49.3784ZM39.6897 9.1908H35.7705C34.387 9.1908 33.2613 8.06513 33.2613 6.68164V2.76246L39.6897 9.1908Z" fill="white"/>
<path d="M51.5797 39.6096L44.7242 28.0381C44.2246 27.1944 43.1373 26.9155 42.2932 27.4156L40.6257 28.4035C39.3313 29.1703 38.7842 30.722 39.2286 32.0971C38.6668 32.3007 38.0509 32.2975 37.4837 32.0782C36.1671 31.664 35.1662 30.8307 33.513 31.2488C30.7061 31.9635 30.7914 31.9277 30.5375 32.0147C28.8939 31.079 27.9059 30.8005 26.1612 31.4755L24.6059 32.0767C23.8859 32.3549 23.0925 32.289 22.4271 31.8947L22.0027 31.6446C22.2098 30.4036 21.6595 29.094 20.4942 28.4037C20.4942 28.4037 20.4942 28.4037 20.494 28.4036L18.8266 27.4158C17.9849 26.9172 16.8943 27.1963 16.3957 28.0381L9.54002 39.6097C9.0404 40.4531 9.31841 41.5408 10.1623 42.0406L11.8297 43.0285C12.3343 43.3274 12.8888 43.4696 13.4366 43.4696C14.0476 43.4696 14.6499 43.2925 15.1648 42.9591L15.5124 43.1642L14.7787 44.1861C13.9044 45.404 14.1822 47.0976 15.4003 47.972C15.9636 48.3764 16.6713 48.561 17.4032 48.4461C17.5193 49.1249 17.8912 49.7602 18.4934 50.1927C19.059 50.5987 19.7635 50.7836 20.4966 50.6681C20.6131 51.3464 20.9847 51.9811 21.5866 52.4133C22.3955 52.9939 23.4012 53.061 24.2392 52.7031C24.4226 53.1794 24.7413 53.6095 25.1859 53.9288C26.3469 54.7621 27.9462 54.5448 28.8484 53.4652L30.7981 54.6202C32.0874 55.3843 33.7511 54.9596 34.5156 53.6687C34.7111 53.3387 34.8324 52.9791 34.8768 52.6094L34.8812 52.6121C36.1686 53.3746 37.836 52.9477 38.5987 51.6606C38.8196 51.2877 38.9406 50.8833 38.9701 50.478C40.1049 50.7633 41.3416 50.2867 41.9679 49.2296C42.1734 48.8829 42.2925 48.5083 42.3317 48.1313C43.548 48.6086 44.9695 48.1473 45.6563 46.988C46.0258 46.3645 46.1303 45.6344 45.9506 44.9322C45.8478 44.5305 45.6587 44.1658 45.3992 43.8578L46.4738 43.2299C47.3829 43.6031 48.4204 43.5434 49.2899 43.0284L50.9571 42.0405C51.801 41.541 52.0797 40.4536 51.5797 39.6096ZM12.6545 41.6364L10.9871 40.6484C10.913 40.6045 10.8884 40.5085 10.9322 40.4343L17.7879 28.8625C17.832 28.7881 17.9284 28.7639 18.0021 28.8078L19.6694 29.7955C20.4103 30.2345 20.6421 31.1848 20.2111 31.9121L14.7711 41.0946C14.3369 41.8276 13.3876 42.0705 12.6545 41.6364ZM16.3439 46.6575C15.8526 46.3047 15.7402 45.6213 16.0932 45.1298L17.1716 43.6276C17.5151 43.149 18.1997 43.0181 18.6993 43.3767C19.1897 43.7288 19.3022 44.414 18.9503 44.9044L17.8718 46.4066C17.5197 46.8972 16.8341 47.0093 16.3439 46.6575ZM19.4371 48.8782C18.9467 48.5261 18.8343 47.8407 19.1863 47.3504L20.2647 45.8483C20.2647 45.8483 20.2647 45.8483 20.2647 45.8482C20.2647 45.8482 20.2647 45.8481 20.2648 45.8481L21.4549 44.1904C21.6255 43.9528 21.8783 43.7958 22.1668 43.7485C22.2268 43.7386 22.2868 43.7338 22.3464 43.7338C22.5735 43.7338 22.7945 43.8045 22.9827 43.9395C23.2201 44.1101 23.3771 44.3628 23.4244 44.6513C23.4718 44.9399 23.404 45.2297 23.2334 45.4672L20.9648 48.6273C20.6122 49.1188 19.9287 49.2312 19.4371 48.8782ZM22.5303 51.0988C22.0402 50.7469 21.9276 50.0619 22.279 49.5717C22.2791 49.5714 22.2793 49.5712 22.2794 49.571L24.548 46.411C24.8998 45.9207 25.5856 45.8081 26.0758 46.16C26.5662 46.5121 26.6786 47.1974 26.3266 47.6878L25.3187 49.0919C25.3187 49.0919 25.3187 49.0919 25.3186 49.092L24.058 50.8479C23.706 51.3383 23.0208 51.451 22.5303 51.0988ZM26.1296 52.6143C25.6396 52.2624 25.5269 51.5778 25.878 51.0874L26.6331 50.0357C26.985 49.5452 27.6707 49.4331 28.1609 49.7849C28.6511 50.1368 28.7637 50.8223 28.4117 51.3126L27.6573 52.3633C27.3053 52.8538 26.6198 52.9664 26.1296 52.6143ZM44.2645 46.1634C43.9566 46.683 43.2837 46.8553 42.764 46.5475C41.884 46.0262 36.2074 42.6631 35.6022 42.3046C35.2176 42.0768 34.7214 42.2037 34.4937 42.5882C34.266 42.9726 34.3928 43.4689 34.7773 43.6966L40.1917 46.9044L40.1918 46.9045C40.7116 47.2123 40.885 47.8832 40.5759 48.4051C40.2679 48.9249 39.5947 49.0968 39.0752 48.7893C37.0727 47.6029 35.4466 46.6396 33.658 45.5799C33.2733 45.3521 32.7772 45.479 32.5495 45.8634C32.3217 46.2479 32.4486 46.7442 32.8331 46.9719L36.8225 49.3354L36.8234 49.336C37.3435 49.6448 37.5152 50.3153 37.2067 50.8361C36.8988 51.3559 36.2258 51.5281 35.7059 51.2203L33.5649 49.9519C33.5647 49.9518 33.5644 49.9517 33.5642 49.9515C33.564 49.9514 33.5637 49.9513 33.5635 49.9512L32.0011 49.0254C31.6165 48.7976 31.1203 48.9244 30.8926 49.309C30.6649 49.6935 30.7917 50.1898 31.1762 50.4175L32.739 51.3434C32.7392 51.3435 32.7394 51.3437 32.7396 51.3438C33.2594 51.6517 33.4328 52.3224 33.1237 52.8443C32.8158 53.3641 32.1428 53.5363 31.623 53.2284L29.7999 52.1485C30.5814 50.9426 30.2842 49.3175 29.1046 48.4708C28.7581 48.2222 28.3724 48.0674 27.9778 48.0009C28.3963 46.8819 28.0355 45.5755 27.0194 44.8461C26.4178 44.414 25.6976 44.2648 25.0178 44.3714C24.8968 43.664 24.51 43.0444 23.9264 42.6255C22.8288 41.8378 21.3371 41.9892 20.4157 42.9213C20.2285 42.5925 19.97 42.2975 19.6431 42.0628C18.7309 41.4081 17.5467 41.402 16.6437 41.9534L16.273 41.7346L21.3616 33.1452L21.6038 33.2881C22.6737 33.9219 23.9793 34.054 25.1893 33.5861L26.7446 32.9849C27.6346 32.6409 28.1254 32.6184 29.0057 33.0338C28.4297 33.6809 28.0878 34.5305 28.0878 35.4462V39.0336C28.0878 39.9864 28.8624 40.7621 29.8145 40.7627H29.8169C30.7719 40.7627 31.6699 40.3909 32.3455 39.7158C32.7393 39.3222 33.03 38.853 33.2042 38.3408C34.2489 38.9594 42.8799 44.0705 43.8805 44.6633C44.1322 44.8124 44.3108 45.0506 44.3833 45.334C44.4558 45.617 44.4136 45.9117 44.2645 46.1634ZM50.1327 40.6484L48.4652 41.6364C47.7322 42.0704 46.7828 41.8273 46.3488 41.0947L43.799 36.7908C43.5712 36.4064 43.0747 36.2795 42.6905 36.507C42.3061 36.7347 42.1791 37.231 42.4067 37.6155L44.9565 41.9195C45.0045 42.0005 45.0566 42.0775 45.1105 42.1526L44.4016 42.5667C44.2583 42.6515 44.1205 42.745 43.9887 42.8465L32.997 36.3373C32.4585 36.0186 31.7757 36.4071 31.7757 37.0334C31.7672 37.0817 31.8593 37.9134 31.2015 38.5709C30.8316 38.9405 30.3398 39.1442 29.8168 39.1442C29.8163 39.1442 29.8159 39.1442 29.8155 39.1442C29.755 39.1442 29.7058 39.0944 29.7058 39.0331V35.4458C29.7058 34.5086 30.3505 33.718 31.2225 33.4973L33.9098 32.8172C34.8848 32.5707 35.436 33.0914 36.896 33.5856C37.9095 33.9776 39.0115 33.9535 39.9897 33.5357L40.4781 34.3601C40.7059 34.7447 41.2022 34.8715 41.5865 34.6439C41.971 34.4161 42.098 33.9199 41.8704 33.5354L40.9085 31.9119C40.4733 31.1774 40.7158 30.2308 41.4502 29.7954L43.1176 28.8076C43.1905 28.7644 43.2868 28.7865 43.3319 28.8625L50.1874 40.4341C50.2316 40.5088 50.2073 40.6043 50.1327 40.6484Z" fill="white"/>
</svg>
