<svg width="31" height="31" viewBox="0 0 31 31" fill="none" xmlns="http://www.w3.org/2000/svg">
<path d="M30.0028 26.6695L21.4128 18.0795C23.0009 15.666 23.6369 12.7491 23.1978 9.89356C22.7587 7.03802 21.2757 4.44698 19.036 2.62207C16.7962 0.79717 13.959 -0.131774 11.0736 0.0150956C8.18823 0.161965 5.46 1.3742 3.4171 3.4171C1.3742 5.46 0.161965 8.18823 0.0150956 11.0736C-0.131774 13.959 0.79717 16.7962 2.62207 19.036C4.44698 21.2757 7.03802 22.7587 9.89356 23.1978C12.7491 23.6369 15.666 23.0009 18.0795 21.4128L26.6695 30.0028L30.0028 26.6695ZM3.33614 11.6695C3.33614 7.07448 7.07448 3.33614 11.6695 3.33614C16.2645 3.33614 20.0028 7.07448 20.0028 11.6695C20.0028 16.2645 16.2645 20.0028 11.6695 20.0028C7.07448 20.0028 3.33614 16.2645 3.33614 11.6695Z" fill="#B2D235"/>
</svg>
