<svg width="55" height="55" viewBox="0 0 55 55" fill="none" xmlns="http://www.w3.org/2000/svg">
<circle cx="27.5" cy="27.5" r="27.5" fill="white"/>
<path d="M41.7988 38.7104L33.8398 30.7514C35.3112 28.5152 35.9005 25.8126 35.4937 23.1668C35.0868 20.521 33.7128 18.1203 31.6375 16.4295C29.5623 14.7386 26.9335 13.8779 24.26 14.014C21.5866 14.1501 19.0588 15.2733 17.166 17.1661C15.2731 19.0589 14.1499 21.5867 14.0139 24.2602C13.8778 26.9336 14.7385 29.5624 16.4293 31.6376C18.1202 33.7129 20.5209 35.0869 23.1667 35.4938C25.8125 35.9006 28.5151 35.3113 30.7513 33.8399L38.7103 41.7989L41.7988 38.7104ZM17.091 24.8123C17.091 20.5548 20.5547 17.0911 24.8122 17.0911C29.0696 17.0911 32.5334 20.5548 32.5334 24.8123C32.5334 29.0697 29.0696 32.5335 24.8122 32.5335C20.5547 32.5335 17.091 29.0697 17.091 24.8123Z" fill="#B2D235"/>
</svg>
