<svg width="55" height="55" viewBox="0 0 55 55" fill="none" xmlns="http://www.w3.org/2000/svg">
<g clip-path="url(#clip0)">
<path d="M43.4677 30.9929V11.9204C43.4677 8.98551 41.08 6.59778 38.1452 6.59778H5.32258C2.38773 6.59778 0 8.98551 0 11.9204V30.9929C0 33.9278 2.38773 36.3155 5.32258 36.3155H10.1002L10.2021 41.1213C10.2325 42.5651 11.8905 43.3702 13.0439 42.5005L21.2476 36.3156H38.1452C41.08 36.3155 43.4677 33.9278 43.4677 30.9929ZM20.6538 32.7671C20.2684 32.7671 19.8936 32.8927 19.5858 33.1246L13.6761 37.58L13.6109 34.5038C13.5904 33.5389 12.8024 32.7672 11.8372 32.7672H5.32258C4.34433 32.7672 3.54839 31.9713 3.54839 30.993V11.9205C3.54839 10.9422 4.34433 10.1463 5.32258 10.1463H38.1452C39.1234 10.1463 39.9194 10.9422 39.9194 11.9205V30.993C39.9194 31.9713 39.1234 32.7672 38.1452 32.7672H20.6538V32.7671ZM55 23.0091V37.6462C55 40.5811 52.6124 42.9687 49.6774 42.9687H44.8923L44.7978 46.6733C44.7732 47.6373 43.9831 48.4022 43.0243 48.4022C42.3163 48.4022 42.7105 48.525 33.8366 42.9687H25.7258C24.7459 42.9687 23.9516 42.1745 23.9516 41.1945C23.9516 40.2146 24.7459 39.4204 25.7258 39.4204C35.1363 39.4204 34.6967 39.3208 35.2877 39.6907L41.3298 43.4738L41.3891 41.1492C41.4137 40.1873 42.2004 39.4202 43.1627 39.4202H49.6774C50.6557 39.4202 51.4516 38.6243 51.4516 37.6461V23.009C51.4516 22.0307 50.6557 21.2348 49.6774 21.2348C48.6975 21.2348 47.9032 20.4405 47.9032 19.4606C47.9032 18.4807 48.6975 17.6864 49.6774 17.6864C52.6124 17.6865 55 20.0741 55 23.0091ZM32.8226 18.2409C32.8226 19.2208 32.0283 20.0151 31.0484 20.0151H12.4194C11.4394 20.0151 10.6452 19.2208 10.6452 18.2409C10.6452 17.261 11.4394 16.4667 12.4194 16.4667H31.0484C32.0283 16.4667 32.8226 17.261 32.8226 18.2409ZM29.6069 26.003C29.6069 26.9829 28.8126 27.7772 27.8327 27.7772H15.6351C14.6552 27.7772 13.8609 26.9829 13.8609 26.003C13.8609 25.0231 14.6552 24.2288 15.6351 24.2288H27.8327C28.8126 24.2288 29.6069 25.0231 29.6069 26.003Z" fill="white"/>
</g>
<defs>
<clipPath id="clip0">
<rect width="55" height="55" fill="white"/>
</clipPath>
</defs>
</svg>
