<svg width="57" height="57" viewBox="0 0 57 57" fill="none" xmlns="http://www.w3.org/2000/svg">
<path d="M55.8806 7.94162C55.8479 7.9109 49.3875 1.74972 49.3875 1.74972C49.1405 1.51274 48.8851 1.26782 48.4081 1.26782H22.3991C21.6394 1.26782 21.0213 1.88582 21.0213 2.64551V6.8761L11.8545 8.44747C11.1197 8.57638 10.6256 9.27956 10.7529 10.0136L11.2181 12.7262C8.23857 13.7289 5.17952 14.7625 2.22638 15.8233C1.52857 16.0784 1.16237 16.8543 1.41137 17.5563L7.28574 33.8862C7.4039 34.2148 7.7136 34.4194 8.04392 34.4194C8.13437 34.4194 8.22654 34.404 8.31656 34.3716C8.73529 34.221 8.9526 33.7595 8.802 33.3408L3.01454 17.2524C5.79676 16.2563 8.67803 15.2813 11.4939 14.3335L14.2623 30.4731L17.4477 49.0606C17.5628 49.7167 18.1395 50.1836 18.7905 50.1836C18.8642 50.1836 18.939 50.1775 19.014 50.1652L27.6416 48.6846L34.3834 47.5289L24.2438 51.1734L16.2478 54.0484L10.038 36.7761C9.8875 36.3574 9.42612 36.1401 9.00728 36.2906C8.58855 36.4411 8.37124 36.9026 8.52173 37.3213L14.8197 54.839C15.0211 55.3899 15.5429 55.7323 16.0945 55.7323C16.247 55.7323 16.4018 55.7061 16.5526 55.651L24.7887 52.6898L43.4902 45.968L47.063 45.3556H54.9554C55.7151 45.3556 56.3332 44.7362 56.3332 43.9748V8.84944C56.3333 8.36723 56.0716 8.12123 55.8806 7.94162ZM53.746 8.1324H49.7145L49.6146 8.13283C49.4215 8.13412 48.9696 8.13745 48.855 8.02358C48.8286 7.99727 48.7976 7.90939 48.7976 7.74622L48.7883 3.40477L53.746 8.1324ZM54.722 43.744H22.6327V28.0425C22.6327 27.5976 22.2719 27.2368 21.827 27.2368C21.3821 27.2368 21.0213 27.5976 21.0213 28.0425V43.9746C21.0213 44.7359 21.6394 45.3554 22.3991 45.3554H37.5254L27.3692 47.0962L18.9923 48.5339L15.8504 30.2007L12.384 9.99145L21.0212 8.51085V24.3042C21.0212 24.7492 21.382 25.1099 21.8269 25.1099C22.2718 25.1099 22.6326 24.7492 22.6326 24.3042V2.87904H47.1758L47.1863 7.74805C47.1863 8.33822 47.3658 8.81561 47.7198 9.16709C48.2636 9.7071 49.0325 9.7447 49.5097 9.7447C49.5508 9.7447 49.5897 9.74437 49.6261 9.74416L54.722 9.74384V43.744Z" fill="white" stroke="white"/>
<path d="M26.5161 13.7778C26.5161 14.2227 26.8768 14.5835 27.3218 14.5835H50.3569C50.8018 14.5835 51.1626 14.2227 51.1626 13.7778C51.1626 13.3329 50.8018 12.9721 50.3569 12.9721H27.3218C26.8768 12.9721 26.5161 13.3329 26.5161 13.7778Z" fill="white"/>
<path d="M50.3569 18.6958H27.3218C26.8768 18.6958 26.5161 19.0565 26.5161 19.5015C26.5161 19.9464 26.8768 20.3071 27.3218 20.3071H50.3569C50.8018 20.3071 51.1626 19.9464 51.1626 19.5015C51.1626 19.0565 50.8018 18.6958 50.3569 18.6958Z" fill="white"/>
<path d="M50.3569 24.4195H27.3218C26.8768 24.4195 26.5161 24.7802 26.5161 25.2252C26.5161 25.6701 26.8768 26.0308 27.3218 26.0308H50.3569C50.8018 26.0308 51.1626 25.6701 51.1626 25.2252C51.1626 24.7802 50.8018 24.4195 50.3569 24.4195Z" fill="white"/>
<path d="M50.3569 30.1432H27.3218C26.8768 30.1432 26.5161 30.5039 26.5161 30.9488C26.5161 31.3938 26.8768 31.7545 27.3218 31.7545H50.3569C50.8018 31.7545 51.1626 31.3938 51.1626 30.9488C51.1626 30.5039 50.8018 30.1432 50.3569 30.1432Z" fill="white"/>
<path d="M50.3569 35.8667H27.3218C26.8768 35.8667 26.5161 36.2274 26.5161 36.6724C26.5161 37.1173 26.8768 37.478 27.3218 37.478H50.3569C50.8018 37.478 51.1626 37.1173 51.1626 36.6724C51.1626 36.2274 50.8018 35.8667 50.3569 35.8667Z" fill="white"/>
</svg>
