<svg width="56" height="55" viewBox="0 0 56 55" fill="none" xmlns="http://www.w3.org/2000/svg">
<g clip-path="url(#clip0)">
<path d="M26.0255 38.34C25.8258 38.1391 25.5486 38.0252 25.2661 38.0252C24.9836 38.0252 24.7064 38.1391 24.5066 38.34C24.3068 38.5398 24.1919 38.8158 24.1919 39.0994C24.1919 39.3819 24.3067 39.6591 24.5066 39.8589C24.7064 40.0587 24.9836 40.1736 25.2661 40.1736C25.5486 40.1736 25.8258 40.0587 26.0255 39.8589C26.2253 39.6591 26.3403 39.3819 26.3403 39.0994C26.3403 38.8169 26.2254 38.5398 26.0255 38.34Z" fill="white"/>
<path d="M48.7915 28.7901C48.1983 28.7901 47.7173 29.2711 47.7173 29.8644V34.5887H29.2407V31.9372C29.2407 27.8523 26.1691 24.4737 22.2148 23.9837C22.9963 23.0192 23.4658 21.7921 23.4658 20.4569V12.8998C23.4658 12.3065 22.9848 11.8255 22.3916 11.8255H16.7711C14.274 11.8255 12.2424 13.8571 12.2424 16.3542V20.4569C12.2424 21.792 12.7118 23.0191 13.4934 23.9837C9.53891 24.4738 6.46729 27.8525 6.46729 31.9373V34.5888H2.81494V8.7811C2.81494 8.32176 3.19103 7.94815 3.65337 7.94815H25.9823C26.5755 7.94815 27.0565 7.46722 27.0565 6.87393C27.0565 6.28064 26.5755 5.79971 25.9823 5.79971H3.65337C2.00648 5.79971 0.666504 7.13712 0.666504 8.7811V40.6308C0.666504 42.2748 2.00648 43.6122 3.65337 43.6122H20.0003V48.5745C17.2904 48.8489 15.1685 51.1437 15.1685 53.9247C15.1685 54.518 15.6495 54.9989 16.2427 54.9989H34.2896C34.8827 54.9989 35.3638 54.518 35.3638 53.9247C35.3638 51.1438 33.2419 48.849 30.532 48.5745V43.6122H46.879C48.5259 43.6122 49.8658 42.2748 49.8658 40.6308V29.8644C49.8657 29.2712 49.3847 28.7901 48.7915 28.7901ZM14.3907 16.3544C14.3907 15.042 15.4585 13.9742 16.771 13.9742H21.3173V15.6893C21.3173 16.5414 20.6241 17.2346 19.7719 17.2346H14.3907V16.3544ZM14.3907 19.383H19.772C20.3236 19.383 20.8469 19.2606 21.3174 19.0429V20.4571H21.3173C21.3173 22.3667 19.7636 23.9204 17.854 23.9204C15.9444 23.9204 14.3907 22.3667 14.3907 20.4571V19.383ZM19.1075 26.0688L17.854 27.3223L16.6005 26.0688H19.1075ZM8.61572 31.9373C8.61572 28.9932 10.7953 26.5491 13.6254 26.1322L17.0943 29.6011C17.3041 29.8109 17.579 29.9157 17.8539 29.9157C18.1288 29.9157 18.4037 29.8109 18.6135 29.6011L22.0823 26.1322C24.9127 26.5491 27.0923 28.9932 27.0923 31.9373V34.5888H8.61572V31.9373ZM33.0315 52.8505H17.5005C17.9441 51.5962 19.1418 50.6953 20.5462 50.6953H21.0745H29.4578H29.9859C31.3902 50.6953 32.5879 51.5961 33.0315 52.8505ZM22.1487 48.5469V43.6122H28.3836V48.5469H22.1487ZM47.7173 40.6308C47.7173 41.0901 47.3412 41.4638 46.8789 41.4638H3.65337C3.19103 41.4638 2.81494 41.0901 2.81494 40.6308V36.7372H47.7173V40.6308Z" fill="white"/>
<path d="M49.5509 25.0582C49.3512 24.8584 49.074 24.7435 48.7915 24.7435C48.509 24.7435 48.2318 24.8584 48.032 25.0582C47.8322 25.2591 47.7173 25.5352 47.7173 25.8177C47.7173 26.1013 47.8321 26.3774 48.032 26.5772C48.2318 26.778 48.509 26.8919 48.7915 26.8919C49.074 26.8919 49.3512 26.778 49.5509 26.5772C49.7507 26.3774 49.8657 26.1013 49.8657 25.8177C49.8657 25.5352 49.7508 25.258 49.5509 25.0582Z" fill="white"/>
<path d="M48.7915 5.0499H40.7349C40.1417 5.0499 39.6606 5.53082 39.6606 6.12412C39.6606 6.71741 40.1417 7.19834 40.7349 7.19834H48.7915C49.3847 7.19834 49.8657 6.71741 49.8657 6.12412C49.8657 5.53082 49.3847 5.0499 48.7915 5.0499Z" fill="white"/>
<path d="M37.0899 5.36464C36.8902 5.16484 36.6131 5.0499 36.3306 5.0499C36.048 5.0499 35.7709 5.16484 35.5711 5.36464C35.3713 5.56445 35.2563 5.8416 35.2563 6.12412C35.2563 6.40664 35.3712 6.68379 35.5711 6.88359C35.771 7.0834 36.048 7.19834 36.3306 7.19834C36.6131 7.19834 36.8902 7.0834 37.0899 6.88359C37.2897 6.68379 37.4048 6.40664 37.4048 6.12412C37.4048 5.8416 37.2898 5.56445 37.0899 5.36464Z" fill="white"/>
<path d="M48.7915 9.77646H36.3306C35.7374 9.77646 35.2563 10.2574 35.2563 10.8507C35.2563 11.444 35.7374 11.9249 36.3306 11.9249H48.7915C49.3847 11.9249 49.8657 11.444 49.8657 10.8507C49.8657 10.2574 49.3847 9.77646 48.7915 9.77646Z" fill="white"/>
<path d="M48.7915 14.503H36.3306C35.7374 14.503 35.2563 14.9839 35.2563 15.5772C35.2563 16.1705 35.7374 16.6515 36.3306 16.6515H48.7915C49.3847 16.6515 49.8657 16.1705 49.8657 15.5772C49.8657 14.9839 49.3847 14.503 48.7915 14.503Z" fill="white"/>
<path d="M50.2954 0.00106812H34.8267C31.865 0.00106812 29.4556 2.41054 29.4556 5.37216V16.8663C29.4556 19.6222 31.5417 21.9 34.2179 22.2031V24.9945C34.2179 25.4289 34.4797 25.8207 34.881 25.987C35.0139 26.0421 35.1535 26.0688 35.2919 26.0688C35.5715 26.0688 35.8462 25.9596 36.0517 25.7542L39.5684 22.2374H50.2954C53.257 22.2374 55.6665 19.8279 55.6665 16.8663V5.37216C55.6665 2.41054 53.257 0.00106812 50.2954 0.00106812ZM53.5181 16.8663C53.5181 18.6433 52.0724 20.089 50.2954 20.089H39.1235C38.8387 20.089 38.5655 20.2022 38.364 20.4036L36.3663 22.4012V21.1632C36.3663 20.5699 35.8853 20.089 35.2921 20.089H34.8267C33.0497 20.089 31.604 18.6433 31.604 16.8663V5.37216C31.604 3.59519 33.0497 2.14951 34.8267 2.14951H50.2954C52.0724 2.14951 53.5181 3.59519 53.5181 5.37216V16.8663Z" fill="white"/>
</g>
<defs>
<clipPath id="clip0">
<rect width="55" height="55" fill="white" transform="translate(0.666504)"/>
</clipPath>
</defs>
</svg>
