<svg width="55" height="55" viewBox="0 0 55 55" fill="none" xmlns="http://www.w3.org/2000/svg">
<g clip-path="url(#clip0)">
<path d="M48.9323 10.1064H13.628C10.2823 10.1064 7.56044 12.8283 7.56044 16.174V24.9422H1.73709C0.777599 24.9422 -0.000244141 25.7201 -0.000244141 26.6796C-0.000244141 27.6391 0.777599 28.417 1.73709 28.417H7.56044V33.0818H4.655C3.69551 33.0818 2.91766 33.8596 2.91766 34.8191C2.91766 35.7786 3.69551 36.5564 4.655 36.5564H7.56034V38.826C7.56034 42.1716 10.2822 44.8935 13.6279 44.8935H48.9322C52.2779 44.8935 54.9998 42.1716 54.9998 38.826V16.1741C54.9999 12.8284 52.278 10.1064 48.9323 10.1064ZM13.628 13.5812H48.9323C49.5485 13.5812 50.1148 13.7977 50.5602 14.158L33.6978 26.5316C32.2744 27.5762 30.2859 27.5762 28.8625 26.5316L12.0001 14.158C12.4454 13.7977 13.0118 13.5812 13.628 13.5812ZM51.5252 38.826C51.5252 40.2556 50.3621 41.4188 48.9323 41.4188H13.628C12.1983 41.4188 11.0351 40.2557 11.0351 38.826V36.5564H17.5773C18.5368 36.5564 19.3147 35.7786 19.3147 34.8191C19.3147 33.8596 18.5368 33.0818 17.5773 33.0818H11.0351V17.7597L26.8068 29.333C28.1238 30.2995 29.7017 30.7825 31.2801 30.7825C32.858 30.7825 34.4366 30.2993 35.7534 29.333L51.5251 17.7597V38.826H51.5252Z" fill="white"/>
</g>
<defs>
<clipPath id="clip0">
<rect width="55" height="55" fill="white" transform="translate(-0.000244141)"/>
</clipPath>
</defs>
</svg>
