<svg width="55" height="55" viewBox="0 0 55 55" fill="none" xmlns="http://www.w3.org/2000/svg">
<path d="M42.1853 45.984C41.1869 46.7606 40.184 47.504 39.2043 48.1936C38.9668 48.3609 38.8377 48.6431 38.8664 48.932C38.8691 48.9595 39.1356 51.7007 38.8675 54.1049C38.8182 54.5471 39.1366 54.9455 39.5788 54.9949C39.6092 54.9982 39.6393 55 39.6691 55C40.0741 54.9999 40.4229 54.6953 40.4688 54.2835C40.69 52.3009 40.5777 50.1699 40.5093 49.2436C41.389 48.616 42.2838 47.9487 43.1745 47.2558C43.5258 46.9826 43.5891 46.4765 43.3158 46.1253C43.0427 45.774 42.5365 45.7108 42.1853 45.984V45.984Z" fill="#B2D235"/>
<path d="M54.9988 35.9691C54.3766 25.6704 54.9922 16.0323 54.9985 15.9362C55.0131 15.7138 54.9349 15.4953 54.7826 15.3328C54.6303 15.1703 54.4175 15.0779 54.1946 15.0779C51.0793 15.0779 49.3426 16.1304 48.4702 18.5785C47.1961 18.6922 46.1478 19.1786 45.3482 20.0288C42.9991 22.5269 43.3179 27.7081 43.5991 32.2795C43.6075 32.4157 43.6159 32.5513 43.6241 32.6866C42.799 32.5659 41.9494 32.7059 41.0234 33.0903C38.8525 33.9912 36.3129 36.2207 32.1055 39.9145C31.2505 40.6652 30.3663 41.4416 29.3943 42.2864C29.2397 42.4209 29.1421 42.6092 29.1214 42.8131C29.0996 43.0278 28.5932 48.1407 29.0591 54.2552C29.0913 54.678 29.4444 54.9996 29.8616 54.9996C29.8821 54.9996 29.9029 54.9989 29.9237 54.9974C30.3673 54.9636 30.6996 54.5765 30.6659 54.1327C30.2755 49.0097 30.5952 44.4943 30.6965 43.2894C31.5757 42.524 32.3844 41.814 33.1687 41.1253C41.019 34.2332 42.7966 32.8313 45.6559 35.6138C44.5383 36.6069 42.0354 38.802 39.1981 41.1022C38.8524 41.3824 38.7994 41.8898 39.0796 42.2354C39.3598 42.5812 39.8673 42.6341 40.2128 42.354C44.0752 39.2228 47.3246 36.2835 47.357 36.2543C47.5157 36.1104 47.6107 35.9092 47.6209 35.6953C47.6311 35.4813 47.5555 35.272 47.4109 35.1138C47.1446 34.8222 46.8834 34.5574 46.6258 34.3189L48.9225 32.222C49.0898 32.0693 49.185 31.8533 49.185 31.627C49.185 25.6886 49.185 21.7654 49.8793 19.4513C50.4189 17.6531 51.3607 16.8785 53.3406 16.7204C53.2063 19.3231 52.8805 27.2707 53.3702 35.7267C52.5389 36.6327 49.4414 39.9303 45.14 43.5808C44.8008 43.8687 44.7592 44.3771 45.0471 44.7162C45.2064 44.9041 45.4334 45.0006 45.6617 45.0006C45.846 45.0006 46.0312 44.9377 46.1826 44.8091C51.3016 40.4648 54.7621 36.5916 54.7965 36.553C54.9389 36.3931 55.0116 36.1828 54.9988 35.9691V35.9691ZM47.5736 31.2716L45.3277 33.3221C45.3098 33.3113 45.2921 33.3008 45.2744 33.2904C45.2532 32.9253 45.2305 32.5547 45.2075 32.1805C44.9462 27.9351 44.6502 23.1233 46.5221 21.1326C46.9262 20.7029 47.4257 20.4187 48.0343 20.275C47.5844 22.7617 47.574 26.3168 47.5736 31.2716Z" fill="#B2D235"/>
<path d="M25.6058 42.2867C24.6341 41.442 23.75 40.6657 22.8951 39.9152C21.8309 38.981 20.8259 38.0987 19.9301 37.3303C19.5922 37.0407 19.0837 37.0796 18.794 37.4174C18.5043 37.7552 18.5433 38.2638 18.881 38.5535C19.7698 39.3158 20.7255 40.1547 21.8319 41.1261C22.6161 41.8146 23.4248 42.5245 24.3038 43.2898C24.4051 44.4947 24.7248 49.0101 24.3344 54.1332C24.3007 54.5769 24.6328 54.964 25.0766 54.9978C25.0974 54.9994 25.118 55 25.1387 55C25.5558 55 25.9089 54.6784 25.9412 54.2556C26.4071 48.1411 25.9007 43.0282 25.8788 42.8135C25.8581 42.6095 25.7605 42.4212 25.6058 42.2867V42.2867Z" fill="#B2D235"/>
<path d="M16.7568 34.7571C14.5811 33.154 12.9021 32.461 11.3477 32.6925C11.357 32.5429 11.3663 32.3926 11.3757 32.2417C11.659 27.6825 11.9802 22.5148 9.64004 20.0247C8.84372 19.1775 7.79958 18.6925 6.53007 18.5787C5.6578 16.1304 3.92101 15.0778 0.805664 15.0778C0.360723 15.0778 0 15.4384 0 15.8835C0 15.9017 0.000644531 15.9198 0.00182617 15.9377C0.631103 25.5462 0.631103 25.5462 0.00150391 35.969C-0.0113867 36.1828 0.0613379 36.393 0.203779 36.5532C0.265547 36.6226 6.38086 43.4571 14.4905 49.2435C14.422 50.1696 14.3098 52.3007 14.531 54.2833C14.5769 54.6952 14.9257 54.9998 15.3306 54.9998C15.3605 54.9998 15.3907 54.998 15.4209 54.9947C15.8632 54.9453 16.1817 54.5469 16.1323 54.1047C15.8647 51.7059 16.1306 48.9592 16.1334 48.9317C16.1619 48.6427 16.0328 48.3607 15.7954 48.1934C8.52328 43.0736 2.80854 37.0094 1.63034 35.7271C2.226 25.8657 2.23856 25.4547 1.66783 16.7213C3.64203 16.8808 4.58197 17.6557 5.1208 19.4515C5.81518 21.7656 5.81518 25.6887 5.81518 31.6271C5.81518 31.8535 5.91046 32.0695 6.07761 32.2221L8.37375 34.3185C8.11604 34.5578 7.85512 34.8229 7.58925 35.1139C7.44477 35.2721 7.36914 35.4814 7.37924 35.6954C7.38934 35.9094 7.4844 36.1106 7.64317 36.2544C7.67551 36.2836 10.9249 39.2229 14.7874 42.3542C14.9367 42.4751 15.116 42.534 15.2943 42.534C15.5288 42.534 15.7614 42.4322 15.9207 42.2357C16.2008 41.8901 16.1479 41.3827 15.8022 41.1025C12.966 38.8032 10.464 36.609 9.3456 35.6154C10.3006 34.6927 11.0906 34.2809 11.9054 34.262C12.8869 34.2381 14.0875 34.7921 15.801 36.0544C16.1593 36.3182 16.6635 36.242 16.9275 35.8836C17.1916 35.5254 17.1151 35.021 16.7568 34.7571V34.7571ZM9.76744 32.1417C9.74306 32.534 9.71889 32.9223 9.69665 33.3046C9.68795 33.3098 9.67925 33.315 9.67055 33.3203L7.42661 31.2717C7.4264 26.3174 7.41587 22.7625 6.96609 20.2759C7.56959 20.4194 8.06502 20.7018 8.46581 21.1284C10.3287 23.1105 10.0305 27.9085 9.76744 32.1417Z" fill="#B2D235"/>
<path d="M18.6512 19.05C18.49 18.6352 18.0233 18.4296 17.6084 18.5907C17.1937 18.7519 16.9881 19.2187 17.1492 19.6335C17.9543 21.706 19.3481 23.4761 21.18 24.752C23.0552 26.0582 25.2586 26.7487 27.5522 26.7487C33.7033 26.7487 38.7077 21.7475 38.7077 15.6003C38.7077 9.45299 33.7033 4.45197 27.5522 4.45197C21.401 4.45197 16.3966 9.4531 16.3966 15.6003C16.3966 16.0454 16.7573 16.406 17.2023 16.406C17.6472 16.406 18.0079 16.0454 18.0079 15.6003C18.0079 10.3416 22.2894 6.06329 27.5522 6.06329C32.8149 6.06329 37.0964 10.3416 37.0964 15.6003C37.0964 20.859 32.8149 25.1373 27.5522 25.1373C25.5896 25.1373 23.7045 24.5469 22.1009 23.4298C20.5328 22.3375 19.3399 20.823 18.6512 19.05V19.05Z" fill="#B2D235"/>
<path d="M43.1623 15.6004C43.1623 12.2973 42.1421 9.14063 40.212 6.47185C39.9513 6.11134 39.4475 6.03023 39.0871 6.29105C38.7265 6.55177 38.6457 7.05547 38.9064 7.41598C40.6365 9.80837 41.551 12.6386 41.551 15.6004C41.551 23.3141 35.2709 29.5896 27.5516 29.5896C19.8322 29.5896 13.5521 23.3141 13.5521 15.6004C13.5521 7.88681 19.8322 1.61133 27.5516 1.61133C30.81 1.61133 33.9829 2.7544 36.4858 4.83001C36.8283 5.11414 37.3363 5.06677 37.6203 4.72409C37.9045 4.38163 37.857 3.87374 37.5145 3.58961C34.723 1.27478 31.1848 0 27.5516 0C18.9437 0 11.9408 6.99832 11.9408 15.6004C11.9408 24.2026 18.9437 31.2009 27.5516 31.2009C36.1594 31.2009 43.1623 24.2026 43.1623 15.6004Z" fill="#B2D235"/>
<path d="M27.5515 19.605C26.6686 19.605 25.9503 18.8875 25.9503 18.0055C25.9503 17.5605 25.5896 17.1999 25.1446 17.1999C24.6997 17.1999 24.339 17.5605 24.339 18.0055C24.339 19.4979 25.3631 20.7559 26.7459 21.1142V22.2146C26.7459 22.6597 27.1066 23.0203 27.5515 23.0203C27.9965 23.0203 28.3572 22.6597 28.3572 22.2146V21.1141C29.7399 20.7558 30.7641 19.4979 30.7641 18.0054C30.7641 16.235 29.3229 14.7945 27.5515 14.7945C26.6686 14.7945 25.9503 14.0769 25.9503 13.1948C25.9503 12.3128 26.6686 11.5952 27.5515 11.5952C28.4344 11.5952 29.1528 12.3128 29.1528 13.1948C29.1528 13.6399 29.5135 14.0005 29.9584 14.0005C30.4033 14.0005 30.7641 13.6399 30.7641 13.1948C30.7641 11.7023 29.7399 10.4444 28.3572 10.0862V8.98584C28.3572 8.54079 27.9965 8.18018 27.5515 8.18018C27.1066 8.18018 26.7459 8.54079 26.7459 8.98584V10.0864C25.3631 10.4446 24.339 11.7025 24.339 13.1951C24.339 14.9655 25.7802 16.406 27.5515 16.406C28.4344 16.406 29.1528 17.1236 29.1528 18.0056C29.1528 18.8876 28.4344 19.605 27.5515 19.605Z" fill="#B2D235"/>
</svg>
