<svg width="55" height="55" viewBox="0 0 55 55" fill="none" xmlns="http://www.w3.org/2000/svg">
<g clip-path="url(#clip0)">
<path d="M27.5003 26.9435C33.041 26.9435 37.5486 22.4373 37.5486 16.8982C37.5486 11.3574 33.041 6.84961 27.5003 6.84961C21.9595 6.84961 17.4519 11.3574 17.4519 16.8982C17.4519 22.4373 21.9595 26.9435 27.5003 26.9435ZM27.5003 8.99815C31.8562 8.99815 35.4002 12.5421 35.4002 16.8983C35.4002 21.2526 31.8563 24.7952 27.5003 24.7952C23.1442 24.7952 19.6003 21.2526 19.6003 16.8983C19.6003 12.5421 23.1443 8.99815 27.5003 8.99815Z" fill="#B2D235"/>
<path d="M27.5 17.5384C28.0933 17.5384 28.5742 17.0574 28.5742 16.4642V12.623C28.5742 12.0298 28.0933 11.5488 27.5 11.5488C26.9067 11.5488 26.4258 12.0298 26.4258 12.623V16.4642C26.4258 17.0574 26.9067 17.5384 27.5 17.5384Z" fill="#B2D235"/>
<path d="M27.5 22.2426C28.0933 22.2426 28.5742 21.7601 28.5742 21.1668C28.5742 20.5735 28.0933 20.0926 27.5 20.0926C26.9067 20.0926 26.4258 20.5736 26.4258 21.1668V21.1699C26.4258 21.7632 26.9067 22.2426 27.5 22.2426Z" fill="#B2D235"/>
<path d="M49.7543 14.0758H44.1329C43.7445 13.335 42.9683 12.8281 42.0754 12.8281H41.6042C41.3019 11.7775 40.8816 10.765 40.3488 9.80268L40.6792 9.47106C41.1196 9.03354 41.362 8.4497 41.362 7.82708C41.362 7.20446 41.1196 6.62073 40.6821 6.1861L38.2118 3.71261C37.7746 3.27529 37.1916 3.03445 36.5702 3.03445C35.9489 3.03445 35.3659 3.27519 34.9288 3.7125L34.5942 4.04712C33.6355 3.51538 32.6231 3.09568 31.5694 2.79275V2.32182C31.5694 1.04156 30.5279 0 29.2476 0H25.7517C24.4714 0 23.4299 1.04156 23.4299 2.32182V2.79275C22.3762 3.09558 21.3639 3.51538 20.4051 4.04712L20.0705 3.71261C19.6333 3.27529 19.0503 3.03445 18.4289 3.03445C17.8076 3.03445 17.2246 3.27519 16.787 3.71293L14.3201 6.1832C13.8797 6.62073 13.6373 7.20457 13.6373 7.82719C13.6373 8.4498 13.8797 9.03354 14.3164 9.46741L14.6506 9.80278C14.1177 10.7651 13.6975 11.7776 13.3952 12.8282H12.924C12.0312 12.8282 11.2549 13.3351 10.8666 14.0759H5.2196C3.43124 14.0759 1.97632 15.5422 1.97632 17.3447V41.8705C1.97632 43.6728 3.44263 45.1392 5.24495 45.1392H20.2069L18.6063 48.5482H17.3792C15.5996 48.5482 14.1517 49.9962 14.1517 51.7758V53.9258C14.1517 54.519 14.6327 55 15.2259 55H39.7732C40.3665 55 40.8475 54.519 40.8475 53.9258V51.7756C40.8475 49.996 39.3996 48.548 37.62 48.548H36.3929L34.7923 45.139H49.7542C51.5566 45.139 53.0229 43.6727 53.0229 41.8703V17.3446C53.023 15.5422 51.5567 14.0758 49.7543 14.0758V14.0758ZM12.7505 15.15C12.7505 15.0576 12.8315 14.9765 12.9239 14.9765H14.2285C14.7313 14.9765 15.1667 14.628 15.2768 14.1374C15.5885 12.7472 16.1369 11.4251 16.9066 10.2078C17.1747 9.78377 17.1136 9.23065 16.7595 8.87541L15.8343 7.94696C15.794 7.907 15.7856 7.85963 15.7856 7.82708C15.7856 7.79453 15.7941 7.74716 15.8372 7.70419L18.3067 5.23145C18.347 5.19116 18.3953 5.18278 18.4289 5.18278C18.4625 5.18278 18.5109 5.19116 18.5512 5.23155L19.4758 6.15613C19.8316 6.51202 20.3864 6.57325 20.8111 6.30341C22.0202 5.53588 23.3417 4.98792 24.739 4.67457C25.2295 4.56457 25.5782 4.12908 25.5782 3.62635V2.32182C25.5782 2.22782 25.6576 2.14844 25.7516 2.14844H29.2475C29.3415 2.14844 29.4209 2.22782 29.4209 2.32182V3.62656C29.4209 4.1293 29.7696 4.56468 30.2601 4.67479C31.6574 4.98813 32.979 5.5362 34.1879 6.30362C34.6126 6.57314 35.1675 6.51191 35.5233 6.15635L36.4479 5.23166C36.4882 5.19138 36.5366 5.183 36.5701 5.183C36.6038 5.183 36.6521 5.19138 36.692 5.23123L39.1649 7.7073C39.2052 7.74727 39.2136 7.79464 39.2136 7.82719C39.2136 7.85974 39.2051 7.90711 39.1612 7.95083L38.2397 8.87541C37.8856 9.23076 37.8245 9.78377 38.0926 10.2078C38.8624 11.4251 39.4107 12.7472 39.7224 14.1374C39.8324 14.6279 40.2679 14.9765 40.7707 14.9765H42.0753C42.1677 14.9765 42.2487 15.0576 42.2487 15.15V18.6429C42.2487 18.7352 42.1677 18.8162 42.0753 18.8162H40.7707C40.2679 18.8162 39.8324 19.1648 39.7224 19.6554C39.4099 21.049 38.8616 22.3721 38.0926 23.5882C37.8242 24.0129 37.8858 24.5667 38.241 24.922L39.1624 25.8433C39.2308 25.9118 39.2308 26.0229 39.1624 26.0913L36.6924 28.5613C36.6521 28.6016 36.6038 28.61 36.5701 28.61C36.5366 28.61 36.4882 28.6016 36.4479 28.5612L35.5233 27.6366C35.1676 27.2809 34.6128 27.2196 34.1879 27.4894C32.9789 28.2569 31.6574 28.8049 30.2601 29.1182C29.7696 29.2282 29.4209 29.6637 29.4209 30.1664V31.4712C29.4209 31.5652 29.3415 31.6446 29.2475 31.6446H25.7516C25.6576 31.6446 25.5782 31.5652 25.5782 31.4712V30.1664C25.5782 29.6637 25.2295 29.2283 24.739 29.1182C23.3417 28.8049 22.0201 28.2568 20.8111 27.4894C20.634 27.3769 20.4343 27.322 20.2358 27.322C19.9583 27.322 19.6832 27.4293 19.4758 27.6366L18.5512 28.5613C18.5109 28.6016 18.4625 28.61 18.4289 28.61C18.3953 28.61 18.347 28.6016 18.3067 28.5612L15.8367 26.0914C15.7684 26.0229 15.7684 25.9118 15.8367 25.8434L16.7582 24.922C17.1133 24.5667 17.175 24.0129 16.9066 23.5882C16.1375 22.3721 15.5891 21.0489 15.2768 19.6554C15.1668 19.1649 14.7313 18.8162 14.2285 18.8162H12.9239C12.8315 18.8162 12.7505 18.7352 12.7505 18.6429V15.15ZM38.699 51.7756V52.8516H16.3003V51.7756C16.3003 51.1806 16.7843 50.6965 17.3793 50.6965H37.6201C38.215 50.6965 38.699 51.1806 38.699 51.7756ZM34.0195 48.548H20.9798L22.5804 45.139H32.419L34.0195 48.548ZM49.7543 42.9906H5.24495C4.62728 42.9906 4.12476 42.4879 4.12476 41.8703V40.0406H33.6555C34.2487 40.0406 34.7297 39.5596 34.7297 38.9664C34.7297 38.3732 34.2487 37.8922 33.6555 37.8922H4.12476V17.3446C4.12476 16.7269 4.61589 16.2242 5.2196 16.2242H10.602V18.6429C10.602 19.9231 11.6435 20.9647 12.9238 20.9647H13.3947C13.6973 22.0169 14.1172 23.03 14.6496 23.992L14.3174 24.3244C13.4115 25.2304 13.4115 26.7044 14.3174 27.6105L16.7873 30.0804C17.2245 30.5177 17.8075 30.7585 18.4288 30.7585C19.0502 30.7585 19.6331 30.5178 20.0702 30.0805L20.4049 29.7459C21.3637 30.2776 22.3759 30.6973 23.4296 31.0002V31.4712C23.4296 32.7514 24.4712 33.793 25.7515 33.793H29.2474C30.5277 33.793 31.5692 32.7514 31.5692 31.4712V31.0002C32.6229 30.6974 33.6352 30.2776 34.594 29.7459L34.9286 30.0804C35.3658 30.5177 35.9488 30.7585 36.5701 30.7585C37.1915 30.7585 37.7744 30.5178 38.2116 30.0805L40.6816 27.6104C41.5875 26.7044 41.5875 25.2304 40.6816 24.3243L40.3493 23.992C40.8817 23.03 41.3016 22.0169 41.6042 20.9647H42.0752C43.3554 20.9647 44.397 19.9231 44.397 18.6429V16.2242H49.7541C50.3718 16.2242 50.8743 16.7269 50.8743 17.3446V37.8922H43.6869C43.0937 37.8922 42.6127 38.3732 42.6127 38.9664C42.6127 39.5596 43.0937 40.0406 43.6869 40.0406H50.8743V41.8703C50.8745 42.4879 50.372 42.9906 49.7543 42.9906V42.9906Z" fill="#B2D235"/>
<path d="M38.6719 37.8924C38.0786 37.8924 37.5977 38.3734 37.5977 38.9666C37.5977 39.5598 38.0786 40.0408 38.6719 40.0408H38.6751C39.2684 40.0408 39.7477 39.5598 39.7477 38.9666C39.7477 38.3734 39.2652 37.8924 38.6719 37.8924Z" fill="#B2D235"/>
</g>
<defs>
<clipPath id="clip0">
<rect width="55" height="55" fill="white"/>
</clipPath>
</defs>
</svg>
