<svg width="55" height="55" viewBox="0 0 55 55" fill="none" xmlns="http://www.w3.org/2000/svg">
<g clip-path="url(#clip0)">
<path d="M51.6168 48.5173L43.5387 34.5257C43.8288 34.1877 44.2232 33.9376 44.6833 33.8291C45.9558 33.5293 47.011 32.6818 47.5782 31.5039C48.1454 30.3261 48.1501 28.9727 47.5912 27.791C47.1633 26.8865 47.4078 25.8152 48.1857 25.186C49.2021 24.3637 49.7851 23.1424 49.7851 21.8351C49.7851 20.5278 49.2021 19.3063 48.1857 18.4841C47.4078 17.8549 47.1633 16.7836 47.5912 15.8791C48.1502 14.6973 48.1454 13.344 47.5782 12.1661C47.011 10.9883 45.9558 10.1407 44.6832 9.84093C43.7094 9.61148 43.0243 8.75246 43.0173 7.75186C43.0082 6.44457 42.4167 5.2273 41.3946 4.41221C40.3725 3.59712 39.054 3.2913 37.7776 3.57338C36.8004 3.78908 35.8106 3.31246 35.3701 2.41401C34.7947 1.24014 33.7337 0.400024 32.4591 0.109134C31.1844 -0.181863 29.864 0.114827 28.8362 0.922722C28.0497 1.54113 26.9509 1.54113 26.1643 0.922722C25.1365 0.114827 23.8161 -0.181648 22.5415 0.109134C21.2668 0.400024 20.2059 1.24014 19.6304 2.41401C19.19 3.31246 18.1997 3.7894 17.2231 3.57338C15.9465 3.29152 14.6281 3.59712 13.6061 4.41221C12.584 5.2273 11.9925 6.44457 11.9834 7.75186C11.9764 8.75235 11.2913 9.61148 10.3174 9.84093C9.04487 10.1407 7.9897 10.9883 7.42253 12.1661C6.85525 13.344 6.85063 14.6973 7.40953 15.879C7.83738 16.7835 7.5929 17.8548 6.81497 18.484C5.79858 19.3063 5.21562 20.5277 5.21562 21.835C5.21562 23.1422 5.79858 24.3637 6.81497 25.1859C7.5929 25.8151 7.83738 26.8864 7.40953 27.7909C6.85053 28.9727 6.85525 30.3261 7.42253 31.5039C7.9897 32.6818 9.04487 33.5293 10.3175 33.8291C10.7776 33.9375 11.172 34.1877 11.4621 34.5257L3.38413 48.5173C3.16661 48.8941 3.19787 49.3649 3.46319 49.7096C3.72862 50.0543 4.1757 50.2048 4.5956 50.0911L10.2219 48.5647L11.7131 54.2004C11.8244 54.621 12.1785 54.9329 12.6098 54.9903C12.6574 54.9967 12.7048 54.9998 12.752 54.9998C13.1319 54.9998 13.4883 54.7978 13.6819 54.4627L20.5747 42.5241C21.1206 43.0294 21.7938 43.3903 22.5417 43.561C23.8161 43.8517 25.1367 43.5553 26.1646 42.7474C26.9511 42.129 28.0499 42.129 28.8365 42.7474C29.6056 43.352 30.5385 43.6703 31.4935 43.6703C31.8147 43.6703 32.1386 43.6343 32.4593 43.561C33.2072 43.3903 33.8805 43.0294 34.4263 42.5241L41.3191 54.4627C41.5127 54.798 41.8691 54.9998 42.249 54.9998C42.2961 54.9998 42.3436 54.9967 42.3912 54.9903C42.8225 54.9329 43.1766 54.6209 43.2879 54.2004L44.7791 48.5647L50.4054 50.0911C50.8253 50.2052 51.2725 50.0543 51.5378 49.7096C51.8031 49.3649 51.8344 48.8941 51.6168 48.5173V48.5173ZM13.1238 51.1327L12.0223 46.9703C11.949 46.6938 11.7687 46.4578 11.521 46.3148C11.2732 46.1717 10.9787 46.1335 10.7027 46.2083L6.54707 47.3357L12.2675 37.4276C12.5382 38.137 12.9943 38.7698 13.6063 39.2579C14.6284 40.073 15.9469 40.3788 17.2233 40.0968C17.9442 39.9376 18.6715 40.1563 19.1806 40.6423L13.1238 51.1327ZM31.9812 41.4666C31.3416 41.6123 30.6796 41.4637 30.1642 41.0586C29.38 40.442 28.4404 40.1338 27.5004 40.1338C26.5608 40.1338 25.6207 40.4421 24.8367 41.0586C24.3213 41.4638 23.6593 41.6125 23.0197 41.4666C22.3805 41.3207 21.8483 40.8993 21.5597 40.3105C20.6816 38.5192 18.7076 37.5687 16.7598 37.999C16.1195 38.1404 15.4583 37.9871 14.9457 37.5782C14.4331 37.1694 14.1364 36.5589 14.1318 35.9032C14.1179 33.9084 12.752 32.1956 10.8102 31.7381C10.1719 31.5877 9.64276 31.1626 9.35821 30.5718C9.07377 29.981 9.07141 29.3024 9.35177 28.7095C10.2047 26.9062 9.71721 24.7704 8.16619 23.5157C7.65638 23.1034 7.3641 22.4908 7.3641 21.8351C7.3641 21.1794 7.65649 20.5668 8.1663 20.1544C9.71721 18.8998 10.2048 16.7639 9.35177 14.9605C9.07141 14.3678 9.07377 13.689 9.35832 13.0983C9.64276 12.5075 10.172 12.0824 10.8102 11.932C12.752 11.4746 14.1179 9.76176 14.1318 7.76689C14.1364 7.11121 14.433 6.50064 14.9457 6.09192C15.4583 5.68308 16.1194 5.52958 16.7599 5.67116C18.7075 6.10115 20.6816 5.15093 21.5597 3.35962C21.8483 2.77086 22.3805 2.34946 23.0197 2.20358C23.6592 2.05781 24.3213 2.20637 24.8367 2.61156C26.4051 3.84461 28.5958 3.84461 30.1642 2.61156C30.6797 2.20637 31.3417 2.05781 31.9812 2.20358C32.6204 2.34946 33.1526 2.77086 33.4412 3.35962C34.3193 5.15093 36.2932 6.10115 38.2411 5.67116C38.8812 5.52947 39.5426 5.68308 40.0552 6.09192C40.5678 6.50075 40.8645 7.11121 40.8691 7.76689C40.883 9.76176 42.2489 11.4746 44.1907 11.932C44.829 12.0824 45.3581 12.5075 45.6427 13.0983C45.9271 13.6891 45.9295 14.3678 45.6491 14.9606C44.7962 16.7639 45.2837 18.8998 46.8347 20.1544C47.3445 20.5668 47.6368 21.1794 47.6368 21.8351C47.6368 22.4908 47.3444 23.1034 46.8346 23.5157C45.2837 24.7704 44.7961 26.9062 45.6491 28.7096C45.9295 29.3024 45.9271 29.9812 45.6426 30.5718C45.3581 31.1626 44.8289 31.5877 44.1907 31.7381C42.2489 32.1956 40.883 33.9084 40.8691 35.9032C40.8645 36.5589 40.5679 37.1695 40.0552 37.5782C39.5426 37.9871 38.8814 38.1403 38.241 37.999C36.2932 37.5686 34.3193 38.5192 33.4412 40.3105C33.1526 40.8993 32.6204 41.3206 31.9812 41.4666V41.4666ZM44.2982 46.2083C44.0221 46.1335 43.7276 46.1718 43.4799 46.3148C43.2322 46.4579 43.0518 46.6938 42.9786 46.9703L41.8771 51.1327L35.8204 40.6423C36.3296 40.1562 37.0569 39.9373 37.7776 40.0968C39.0543 40.3787 40.3725 40.073 41.3946 39.2579C42.0066 38.7699 42.4627 38.137 42.7334 37.4276L48.4538 47.3357L44.2982 46.2083Z" fill="#B2D235"/>
<path d="M32.6123 29.9583C32.8339 29.9583 33.0555 29.8899 33.2437 29.7532C33.6192 29.4803 33.777 28.9971 33.6349 28.5552L31.9416 23.2909L36.4069 20.01C36.7811 19.7351 36.9363 19.2509 36.7917 18.8097C36.647 18.3686 36.2353 18.0703 35.771 18.0703H30.2454L28.5223 12.8202C28.3775 12.3791 27.9659 12.0809 27.5017 12.0809C27.0376 12.0809 26.6258 12.3791 26.4811 12.8202L24.758 18.0703H19.2324C18.7682 18.0703 18.3563 18.3686 18.2118 18.8097C18.0671 19.2509 18.2223 19.7351 18.5965 20.01L23.0618 23.2909L21.3686 28.5552C21.2264 28.9972 21.3842 29.4803 21.7598 29.7532C22.1354 30.026 22.6437 30.0267 23.02 29.755L27.5019 26.5189L31.9839 29.755C32.1712 29.8906 32.3916 29.9583 32.6123 29.9583V29.9583ZM28.1303 24.3232C27.9426 24.1876 27.722 24.1198 27.5015 24.1198C27.281 24.1198 27.0604 24.1876 26.8727 24.3232L24.4156 26.0973L25.3436 23.2122C25.485 22.7723 25.3294 22.2911 24.957 22.0176L22.5084 20.2184H25.5359C26 20.2184 26.4117 19.9202 26.5564 19.4792L27.5015 16.5996L28.4466 19.4792C28.5914 19.9202 29.003 20.2184 29.4672 20.2184H32.4946L30.046 22.0176C29.6736 22.2911 29.518 22.7722 29.6594 23.2122L30.5874 26.0973L28.1303 24.3232Z" fill="#B2D235"/>
<path d="M42.5393 21.8352C42.5393 13.5429 35.793 6.79663 27.5008 6.79663C19.2085 6.79663 12.4622 13.5429 12.4622 21.8352C12.4622 28.1436 16.4449 33.8266 22.3728 35.9765C22.9304 36.1787 23.5466 35.8907 23.7489 35.333C23.9512 34.7753 23.6631 34.1592 23.1054 33.9569C18.0244 32.1141 14.6106 27.2428 14.6106 21.8352C14.6106 14.7276 20.3932 8.945 27.5009 8.945C34.6085 8.945 40.3911 14.7276 40.3911 21.8352C40.3911 27.2431 36.977 32.1145 31.8957 33.9572C31.338 34.1595 31.0498 34.7755 31.252 35.3332C31.4105 35.77 31.8226 36.0415 32.2619 36.0415C32.3835 36.0415 32.5071 36.0207 32.6281 35.9769C38.5563 33.8271 42.5393 28.144 42.5393 21.8352V21.8352Z" fill="#B2D235"/>
<path d="M27.5005 34.7251C27.218 34.7251 26.9408 34.84 26.741 35.0398C26.5412 35.2397 26.4263 35.5168 26.4263 35.7993C26.4263 36.0818 26.5412 36.359 26.741 36.5588C26.9408 36.7586 27.218 36.8735 27.5005 36.8735C27.783 36.8735 28.0602 36.7586 28.26 36.5588C28.4598 36.359 28.5747 36.0818 28.5747 35.7993C28.5747 35.5168 28.4598 35.2397 28.26 35.0398C28.0602 34.84 27.783 34.7251 27.5005 34.7251Z" fill="#B2D235"/>
</g>
<defs>
<clipPath id="clip0">
<rect width="55" height="55" fill="white"/>
</clipPath>
</defs>
</svg>
