<svg width="55" height="55" viewBox="0 0 55 55" fill="none" xmlns="http://www.w3.org/2000/svg">
<g clip-path="url(#clip0)">
<path d="M50.7685 7.76263C50.6442 6.54403 49.6241 5.59872 48.3958 5.5637C38.0632 5.26915 31.2217 1.81812 28.7599 0.348047C27.9826 -0.116123 27.0169 -0.115908 26.2399 0.348047C24.7798 1.21999 21.6399 2.86494 17.0144 4.08568C16.5849 4.19912 16.3286 4.63923 16.4419 5.0687C16.5553 5.49817 16.9956 5.75427 17.425 5.64115C22.2413 4.36992 25.532 2.64451 27.0648 1.72928C27.3332 1.56879 27.6667 1.56879 27.9352 1.72928C30.5053 3.26391 37.6393 6.86651 48.35 7.17181C48.7738 7.18384 49.1255 7.50804 49.1681 7.9258C49.5243 11.4175 50.0831 20.553 47.5859 29.9493C46.185 35.2204 44.0264 39.7783 41.17 43.4964C37.7328 47.9705 33.235 51.2811 27.8014 53.336C27.6069 53.4095 27.393 53.4095 27.1983 53.336C21.7649 51.2811 17.267 47.9705 13.8299 43.4964C10.9735 39.7783 8.81488 35.2204 7.41388 29.9493C4.91654 20.553 5.47545 11.4173 5.83166 7.9258C5.87431 7.50804 6.22601 7.18384 6.6499 7.17181C9.03488 7.10381 11.4075 6.86394 13.702 6.45863C14.1395 6.3814 14.4314 5.96406 14.3542 5.52653C14.277 5.08911 13.8597 4.79692 13.4222 4.87437C11.2048 5.26604 8.91081 5.49796 6.60414 5.5637C5.37577 5.59872 4.35569 6.54403 4.23129 7.76263C3.86617 11.3421 3.29372 20.7099 5.85927 30.3626C7.31516 35.8402 9.56758 40.5889 12.5542 44.4765C16.1764 49.1914 20.912 52.6785 26.6291 54.8407C26.9099 54.947 27.205 55.0001 27.4999 55.0001C27.7949 55.0001 28.0899 54.947 28.3706 54.8407C34.0879 52.6785 38.8235 49.1914 42.4457 44.4765C45.4322 40.5889 47.6847 35.8402 49.1406 30.3626C51.706 20.7099 51.1336 11.3421 50.7685 7.76263V7.76263Z" fill="#B2D235"/>
<path d="M8.84068 11.3095C8.60994 13.5721 8.02127 21.5932 10.1377 29.8115C11.3004 34.3262 13.0989 38.2316 15.483 41.4195C18.3833 45.2972 22.1737 48.1408 26.7492 49.8713C26.9911 49.9628 27.2453 50.0085 27.4995 50.0085C27.7537 50.0085 28.0081 49.9628 28.25 49.8712C32.8253 48.1408 36.6158 45.2973 39.5161 41.4195C41.9002 38.2316 43.6987 34.3263 44.8614 29.8115C46.9778 21.5932 46.3891 13.5721 46.1584 11.3095C46.0512 10.2588 45.1718 9.44377 44.113 9.41358C35.9388 9.18058 30.5312 6.45303 28.5858 5.29137C27.9158 4.89112 27.0834 4.89123 26.4134 5.29127C24.4679 6.45303 19.0603 9.18058 10.8861 9.41358C9.82725 9.44377 8.94789 10.2588 8.84068 11.3095V11.3095ZM27.2383 6.67239C27.3189 6.62427 27.4092 6.6002 27.4995 6.6002C27.5899 6.6002 27.6802 6.62427 27.7609 6.6725C29.8146 7.89893 35.5148 10.7778 44.0671 11.0217C44.3215 11.0289 44.5325 11.2228 44.5579 11.4726C44.7819 13.6681 45.3534 21.4503 43.3035 29.4102C40.8332 39.0022 35.577 45.38 27.681 48.3664C27.5641 48.4108 27.4352 48.4107 27.3182 48.3665C19.4221 45.3799 14.1659 39.0022 11.6956 29.4102C9.6457 21.4504 10.2172 13.6682 10.4412 11.4726C10.4666 11.2229 10.6776 11.0289 10.9321 11.0217C19.4843 10.7778 25.1845 7.89893 27.2383 6.67239V6.67239Z" fill="#B2D235"/>
<path d="M27.5006 37.749C31.1705 37.749 34.6283 35.9581 36.7503 32.9584C37.0068 32.5957 36.9208 32.0938 36.5581 31.8372C36.1956 31.5806 35.6935 31.6666 35.437 32.0294C33.6161 34.6035 30.6492 36.1404 27.5006 36.1404C22.1443 36.1404 17.7866 31.7827 17.7866 26.4264C17.7866 21.07 22.1443 16.7123 27.5006 16.7123C32.857 16.7123 37.2147 21.07 37.2147 26.4264C37.2147 27.264 37.1081 28.0954 36.8978 28.8974C36.7851 29.3271 37.0422 29.7667 37.4719 29.8794C37.9014 29.9917 38.3412 29.7351 38.4539 29.3054C38.6991 28.3702 38.8233 27.4016 38.8233 26.4264C38.8233 20.183 33.744 15.1036 27.5005 15.1036C21.2571 15.1036 16.1777 20.1829 16.1777 26.4264C16.1777 32.6698 21.2573 37.749 27.5006 37.749Z" fill="#B2D235"/>
<path d="M31.7184 20.7782C31.0467 20.8051 30.4257 21.0919 29.9698 21.5857L25.93 25.9612L24.9296 24.9945C23.9319 24.0303 22.3355 24.0574 21.3711 25.0552C20.4069 26.0529 20.4339 27.6492 21.4318 28.6137L24.2833 31.3696C24.755 31.8257 25.3761 32.0768 26.0322 32.0768C26.0571 32.0768 26.0821 32.0765 26.1039 32.0757C26.777 32.0566 27.4248 31.7618 27.8813 31.2673L33.6677 25C34.6091 23.9805 34.5455 22.3852 33.5259 21.4437C33.0321 20.9878 32.3894 20.7518 31.7184 20.7782V20.7782ZM32.4857 23.9089C32.4857 23.9089 26.6993 30.1761 26.6992 30.1762C26.3544 30.5497 25.7664 30.5659 25.4012 30.213C25.3995 30.2113 22.5497 27.457 22.5497 27.457C22.1896 27.109 22.1799 26.5331 22.5277 26.1732C22.7056 25.9892 22.943 25.8966 23.1808 25.8966C23.4081 25.8966 23.6356 25.9812 23.8117 26.1512C23.8117 26.1512 25.4014 27.6876 25.4036 27.6898C25.7195 27.9951 26.2549 27.9806 26.5535 27.6571C26.5535 27.6571 31.1371 22.6928 31.1516 22.6771C31.9285 21.8358 33.2861 23.0422 32.4857 23.9089V23.9089Z" fill="#B2D235"/>
</g>
<defs>
<clipPath id="clip0">
<rect width="55" height="55" fill="white"/>
</clipPath>
</defs>
</svg>
