<svg width="55" height="55" viewBox="0 0 55 55" fill="none" xmlns="http://www.w3.org/2000/svg">
<path d="M34.2988 12.6741C34.1997 12.3671 34.0057 12.0996 33.7448 11.9101C33.4838 11.7205 33.1694 11.6187 32.8469 11.6193H29.8713L28.9518 8.78927C28.8521 8.48268 28.658 8.2155 28.3972 8.02602C28.1363 7.83655 27.8222 7.7345 27.4999 7.7345C27.1775 7.7345 26.8634 7.83655 26.6026 8.02602C26.3417 8.2155 26.1476 8.48268 26.0479 8.78927L25.1284 11.6193H22.1528C21.8304 11.6193 21.5163 11.7214 21.2555 11.9109C20.9947 12.1004 20.8006 12.3676 20.701 12.6742C20.6013 12.9808 20.6013 13.311 20.7009 13.6177C20.8005 13.9243 20.9946 14.1915 21.2554 14.381L23.6628 16.1299L22.7432 18.96C22.6432 19.2666 22.6429 19.5971 22.7424 19.904C22.8419 20.2108 23.0361 20.4782 23.2971 20.6678C23.5581 20.8574 23.8724 20.9594 24.195 20.9592C24.5176 20.959 24.8318 20.8566 25.0925 20.6667L27.4999 18.9177L29.9072 20.6668C30.168 20.8563 30.4821 20.9583 30.8045 20.9583C31.1269 20.9583 31.441 20.8563 31.7019 20.6668C31.9627 20.4773 32.1568 20.2101 32.2565 19.9035C32.3561 19.5969 32.3561 19.2666 32.2565 18.96L31.337 16.1299L33.7443 14.3809C34.0056 14.1918 34.2001 13.9246 34.2997 13.6179C34.3994 13.3111 34.3991 12.9806 34.2988 12.6741V12.6741ZM29.8216 15.1064C29.6747 15.2131 29.5654 15.3635 29.5094 15.5361C29.4533 15.7088 29.4533 15.8947 29.5094 16.0673L30.4391 18.9288L28.0047 17.1603C27.858 17.0538 27.6812 16.9964 27.4999 16.9964C27.3185 16.9964 27.1418 17.0538 26.995 17.1603L24.5608 18.9288L25.4905 16.0673C25.5466 15.8947 25.5467 15.7088 25.4906 15.5361C25.4345 15.3635 25.3252 15.2131 25.1784 15.1064L22.7444 13.338H25.753C25.9345 13.3381 26.1113 13.2806 26.2581 13.1739C26.405 13.0673 26.5143 12.9168 26.5703 12.7442L27.4999 9.88282L28.4296 12.7443C28.4857 12.9169 28.595 13.0674 28.7418 13.174C28.8886 13.2807 29.0655 13.3382 29.247 13.3381H32.2555L29.8216 15.1064Z" fill="#B2D235"/>
<path d="M16.8371 24.9202C17.0561 24.92 17.272 24.868 17.4671 24.7684C17.6622 24.6688 17.831 24.5245 17.9597 24.3473C18.0884 24.17 18.1734 23.9649 18.2077 23.7485C18.242 23.5322 18.2246 23.3108 18.1571 23.1025L17.4687 20.9841L19.2708 19.6748C19.508 19.5025 19.6844 19.2596 19.775 18.9808C19.8656 18.7021 19.8656 18.4018 19.775 18.123C19.6844 17.8443 19.5079 17.6013 19.2708 17.429C19.0337 17.2568 18.7481 17.164 18.455 17.164H16.2276L15.5392 15.0456C15.4486 14.7668 15.2721 14.5239 15.035 14.3516C14.7979 14.1793 14.5123 14.0865 14.2192 14.0865C13.926 14.0865 13.6405 14.1793 13.4033 14.3516C13.1662 14.5239 12.9897 14.7668 12.8991 15.0456L12.2107 17.1641H9.98324C9.69009 17.164 9.40442 17.2567 9.1672 17.4289C8.92999 17.6012 8.7534 17.8441 8.66275 18.1229C8.5721 18.4017 8.57205 18.702 8.66261 18.9808C8.75316 19.2596 8.92967 19.5026 9.16683 19.6749L10.9689 20.9842L10.2808 23.1026C10.1902 23.3813 10.1902 23.6816 10.2808 23.9603C10.3714 24.2391 10.5478 24.482 10.785 24.6543C11.0221 24.8266 11.3076 24.9194 11.6007 24.9195C11.8938 24.9195 12.1794 24.8267 12.4166 24.6545L14.2187 23.3451L16.0208 24.6545C16.2579 24.8272 16.5437 24.9202 16.8371 24.9202V24.9202ZM13.7139 21.5876L12.2304 22.666L12.7972 20.9219C12.8533 20.7493 12.8533 20.5633 12.7972 20.3907C12.7411 20.218 12.6318 20.0676 12.4849 19.9609L11.0014 18.8831H12.8352C13.0166 18.8831 13.1935 18.8257 13.3403 18.719C13.4871 18.6124 13.5964 18.462 13.6524 18.2894L14.2191 16.5453L14.7859 18.2894C14.842 18.462 14.9512 18.6124 15.098 18.719C15.2449 18.8257 15.4217 18.8831 15.6031 18.8831H17.4368L15.9533 19.961C15.8065 20.0677 15.6972 20.2181 15.6411 20.3907C15.585 20.5633 15.5851 20.7493 15.6412 20.9219L16.2078 22.666L14.7242 21.588C14.5774 21.4813 14.4006 21.4238 14.2192 21.4237C14.0377 21.4236 13.8609 21.481 13.714 21.5876H13.7139Z" fill="#B2D235"/>
<path d="M11.5018 28.3358H9.27429L8.58593 26.2175C8.49537 25.9387 8.31888 25.6958 8.08176 25.5235C7.84463 25.3512 7.55904 25.2584 7.26593 25.2584C6.97281 25.2584 6.68722 25.3512 6.45009 25.5235C6.21297 25.6958 6.03648 25.9387 5.94593 26.2175L5.25746 28.336H3.03007C2.73696 28.336 2.45137 28.4288 2.21424 28.601C1.97711 28.7733 1.80061 29.0163 1.71003 29.295C1.61945 29.5738 1.61944 29.8741 1.71001 30.1528C1.80058 30.4316 1.97707 30.6745 2.2142 30.8468L4.01631 32.1561L3.32795 34.2746C3.23735 34.5533 3.23733 34.8536 3.3279 35.1324C3.41846 35.4112 3.59496 35.6541 3.8321 35.8264C4.06923 35.9988 4.35483 36.0916 4.64795 36.0916C4.94107 36.0916 5.22667 35.9988 5.46382 35.8265L7.26593 34.5171L9.06804 35.8265C9.30519 35.999 9.59086 36.0919 9.88409 36.0919C10.1773 36.092 10.463 35.9992 10.7003 35.8268C10.9375 35.6545 11.114 35.4114 11.2046 35.1325C11.2951 34.8536 11.295 34.5532 11.2042 34.2743L10.516 32.156L12.3181 30.8467C12.5552 30.6744 12.7318 30.4314 12.8223 30.1526C12.9129 29.8738 12.9128 29.5735 12.8222 29.2947C12.7315 29.0159 12.5549 28.7729 12.3177 28.6007C12.0805 28.4285 11.7948 28.3357 11.5017 28.3358H11.5018ZM9.00014 31.1324C8.85327 31.239 8.74394 31.3895 8.68784 31.5621C8.63175 31.7348 8.63175 31.9207 8.68787 32.0934L9.25463 33.8379L7.77102 32.7595C7.62425 32.6529 7.44752 32.5955 7.26614 32.5955C7.08476 32.5955 6.90803 32.6529 6.76126 32.7595L5.27722 33.8379L5.84388 32.0934C5.89998 31.9208 5.89999 31.7348 5.84391 31.5622C5.78783 31.3896 5.67854 31.2392 5.53171 31.1325L4.04821 30.0546H5.8819C6.06336 30.0546 6.24017 29.9972 6.38698 29.8905C6.53379 29.7838 6.64307 29.6335 6.69917 29.4609L7.26593 27.7168L7.83258 29.4609C7.88867 29.6335 7.99795 29.7838 8.14476 29.8905C8.29158 29.9972 8.46838 30.0546 8.64984 30.0546H10.4836L9.00014 31.1324Z" fill="#B2D235"/>
<path d="M51.8927 28.3358H49.6652L48.9768 26.2175C48.8863 25.9387 48.7098 25.6958 48.4727 25.5235C48.2355 25.3512 47.9499 25.2584 47.6568 25.2584C47.3637 25.2584 47.0781 25.3512 46.841 25.5235C46.6039 25.6958 46.4274 25.9387 46.3368 26.2175L45.6484 28.336H43.421C43.1278 28.3358 42.8422 28.4286 42.6049 28.6008C42.3677 28.773 42.1911 29.016 42.1005 29.2948C42.0098 29.5736 42.0098 29.8739 42.1004 30.1527C42.1909 30.4315 42.3674 30.6745 42.6046 30.8468L44.4067 32.1561L43.7183 34.2746C43.6277 34.5533 43.6277 34.8536 43.7183 35.1324C43.8088 35.4112 43.9853 35.6541 44.2225 35.8264C44.4596 35.9987 44.7452 36.0916 45.0383 36.0916C45.3314 36.0916 45.617 35.9988 45.8542 35.8265L47.6563 34.5171L49.4584 35.8265C49.6955 35.9992 49.9813 36.0923 50.2746 36.0924C50.568 36.0926 50.8539 35.9998 51.0912 35.8274C51.3285 35.655 51.5051 35.4119 51.5957 35.1328C51.6862 34.8538 51.686 34.5533 51.5951 34.2743L50.9069 32.156L52.709 30.8467C52.9461 30.6744 53.1226 30.4314 53.2132 30.1526C53.3038 29.8738 53.3037 29.5734 53.2131 29.2947C53.1224 29.0159 52.9458 28.7729 52.7086 28.6007C52.4714 28.4285 52.1857 28.3357 51.8926 28.3358H51.8927ZM49.391 31.1324C49.2442 31.239 49.1348 31.3895 49.0787 31.5621C49.0227 31.7348 49.0227 31.9207 49.0788 32.0934L49.6455 33.8379L48.1619 32.7595C48.0152 32.6529 47.8384 32.5955 47.657 32.5955C47.4757 32.5955 47.2989 32.6529 47.1522 32.7595L45.6681 33.8379L46.2348 32.0934C46.2909 31.9208 46.2909 31.7348 46.2348 31.5622C46.1787 31.3896 46.0695 31.2391 45.9226 31.1325L44.4391 30.0546H46.2728C46.4543 30.0546 46.6311 29.9971 46.7779 29.8905C46.9247 29.7838 47.034 29.6335 47.0901 29.4609L47.6568 27.7168L48.2235 29.4609C48.2796 29.6335 48.3889 29.7838 48.5357 29.8905C48.6825 29.9971 48.8593 30.0546 49.0407 30.0546H50.8745L49.391 31.1324Z" fill="#B2D235"/>
<path d="M43.3997 24.9203C43.6188 24.9202 43.8347 24.8682 44.0299 24.7687C44.2251 24.6691 44.3939 24.5248 44.5227 24.3476C44.6514 24.1703 44.7364 23.9651 44.7708 23.7487C44.8051 23.5324 44.7877 23.3109 44.7201 23.1025L44.0319 20.9842L45.834 19.6749C46.0712 19.5026 46.2477 19.2596 46.3382 18.9808C46.4288 18.702 46.4287 18.4016 46.3381 18.1228C46.2474 17.8441 46.0708 17.6011 45.8336 17.4289C45.5964 17.2566 45.3107 17.1639 45.0176 17.164H42.7902L42.1018 15.0457C42.0113 14.7669 41.8348 14.5239 41.5977 14.3516C41.3605 14.1793 41.075 14.0865 40.7818 14.0865C40.4887 14.0865 40.2031 14.1793 39.966 14.3516C39.7289 14.5239 39.5524 14.7669 39.4618 15.0457L38.7734 17.1641H36.546C36.2528 17.164 35.9672 17.2567 35.7299 17.429C35.4927 17.6012 35.3161 17.8442 35.2255 18.123C35.1348 18.4017 35.1348 18.7021 35.2254 18.9809C35.3159 19.2597 35.4924 19.5027 35.7296 19.675L37.5317 20.9843L36.8433 23.1027C36.7527 23.3815 36.7527 23.6818 36.8433 23.9606C36.9338 24.2394 37.1103 24.4823 37.3475 24.6546C37.5846 24.8269 37.8702 24.9197 38.1633 24.9197C38.4565 24.9198 38.7421 24.827 38.9792 24.6547L40.7813 23.3453L42.5834 24.6547C42.8206 24.8274 43.1064 24.9204 43.3997 24.9203V24.9203ZM40.2766 21.5877L38.7931 22.6661L39.3598 20.9215C39.4159 20.7489 39.4159 20.563 39.3598 20.3904C39.3037 20.2178 39.1945 20.0673 39.0476 19.9607L37.5641 18.8828H39.3978C39.5793 18.8828 39.7561 18.8253 39.9029 18.7187C40.0497 18.612 40.159 18.4616 40.2151 18.2891L40.7818 16.545L41.3485 18.2891C41.4046 18.4616 41.5139 18.612 41.6607 18.7187C41.8075 18.8253 41.9843 18.8828 42.1658 18.8828H43.9996L42.5161 19.9605C42.3692 20.0672 42.2599 20.2177 42.2038 20.3903C42.1477 20.5629 42.1477 20.7489 42.2038 20.9215L42.7705 22.6661L41.2869 21.5877C41.1401 21.481 40.9633 21.4236 40.7818 21.4236C40.6004 21.4236 40.4236 21.481 40.2767 21.5877H40.2766Z" fill="#B2D235"/>
<path d="M37.8125 32.7315H31.7969V28.4346C31.7958 27.5233 31.4333 26.6495 30.7889 26.0051C30.1445 25.3607 29.2707 24.9982 28.3594 24.9971H26.6406C26.4338 24.9971 26.2339 25.0718 26.0776 25.2073C25.9214 25.3428 25.8192 25.5301 25.79 25.7349L25.474 27.9461C25.3301 28.9501 24.9523 29.9062 24.371 30.7374C23.7898 31.5686 23.0214 32.2517 22.1278 32.7315H15.4688C15.2408 32.7315 15.0222 32.822 14.8611 32.9832C14.6999 33.1444 14.6094 33.363 14.6094 33.5909V45.6221C14.6094 45.85 14.6999 46.0686 14.8611 46.2298C15.0222 46.3909 15.2408 46.4815 15.4688 46.4815H22.0836L22.6461 46.8566C23.9597 47.7341 25.5043 48.2018 27.0841 48.2002H36.9531C37.4509 48.2005 37.9381 48.0565 38.3559 47.7858C38.7736 47.5151 39.104 47.1291 39.3071 46.6747C39.5102 46.2202 39.5773 45.7166 39.5003 45.2248C39.4233 44.733 39.2055 44.274 38.8732 43.9034C39.2969 43.4311 39.5312 42.819 39.5312 42.1846C39.5312 41.5502 39.2969 40.9381 38.8732 40.4659C39.2327 40.0651 39.4576 39.5617 39.516 39.0265C39.5745 38.4913 39.4636 37.9512 39.1991 37.4823C39.669 37.1822 40.0289 36.7378 40.2249 36.2159C40.4209 35.6939 40.4424 35.1225 40.2862 34.5873C40.1299 34.0521 39.8044 33.5819 39.3585 33.2473C38.9125 32.9128 38.37 32.7318 37.8125 32.7315ZM16.3281 34.4502H21.4844V44.7627H16.3281V34.4502ZM37.8125 36.169H36.9531C36.7252 36.169 36.5066 36.2595 36.3455 36.4207C36.1843 36.5819 36.0938 36.8004 36.0938 37.0284C36.0938 37.2563 36.1843 37.4749 36.3455 37.636C36.5066 37.7972 36.7252 37.8877 36.9531 37.8877C37.181 37.8877 37.3996 37.9783 37.5608 38.1394C37.722 38.3006 37.8125 38.5192 37.8125 38.7471C37.8125 38.975 37.722 39.1936 37.5608 39.3548C37.3996 39.5159 37.181 39.6065 36.9531 39.6065C36.7252 39.6065 36.5066 39.697 36.3455 39.8582C36.1843 40.0194 36.0938 40.2379 36.0938 40.4659C36.0938 40.6938 36.1843 40.9124 36.3455 41.0735C36.5066 41.2347 36.7252 41.3252 36.9531 41.3252C37.181 41.3252 37.3996 41.4158 37.5608 41.5769C37.722 41.7381 37.8125 41.9567 37.8125 42.1846C37.8125 42.4125 37.722 42.6311 37.5608 42.7923C37.3996 42.9534 37.181 43.044 36.9531 43.044C36.7252 43.044 36.5066 43.1345 36.3455 43.2957C36.1843 43.4568 36.0938 43.6754 36.0938 43.9034C36.0938 44.1313 36.1843 44.3499 36.3455 44.511C36.5066 44.6722 36.7252 44.7627 36.9531 44.7627C37.181 44.7627 37.3996 44.8533 37.5608 45.0144C37.722 45.1756 37.8125 45.3942 37.8125 45.6221C37.8125 45.85 37.722 46.0686 37.5608 46.2298C37.3996 46.3909 37.181 46.4815 36.9531 46.4815H27.0841C25.8437 46.4826 24.6309 46.1155 23.5995 45.4265L23.2031 45.1622V34.1016C24.2675 33.4784 25.1775 32.623 25.8653 31.5992C26.5531 30.5754 27.001 29.4096 27.1755 28.1886L27.3859 26.7153H28.3594C28.8151 26.7159 29.2519 26.8971 29.5741 27.2193C29.8963 27.5416 30.0776 27.9784 30.0781 28.4341V33.5903C30.0781 33.8183 30.1687 34.0368 30.3298 34.198C30.491 34.3592 30.7096 34.4497 30.9375 34.4497H37.8125C38.0404 34.4497 38.259 34.5402 38.4202 34.7014C38.5813 34.8626 38.6719 35.0812 38.6719 35.3091C38.6719 35.537 38.5813 35.7556 38.4202 35.9167C38.259 36.0779 38.0404 36.1685 37.8125 36.1685V36.169Z" fill="#B2D235"/>
</svg>
