<svg width="55" height="55" viewBox="0 0 55 55" fill="none" xmlns="http://www.w3.org/2000/svg">
<path d="M45.2298 44.5632C44.7848 44.5632 44.4241 44.9239 44.4241 45.3689V52.9436C44.4241 53.1889 44.2245 53.3885 43.9793 53.3885H39.6483V37.5226C39.6483 37.0776 39.2876 36.7169 38.8427 36.7169C38.3977 36.7169 38.037 37.0776 38.037 37.5226V53.3886H29.316L31.845 50.6063C32.1213 50.3023 32.2516 49.8693 32.1935 49.4476C32.1924 49.4394 32.1911 49.4313 32.1897 49.4231L29.781 35.1932L30.4299 34.2163C30.7887 34.4711 31.0651 34.7165 31.5834 34.7165C32.1106 34.7165 32.6036 34.4214 32.8462 33.9356V33.9355L35.3867 28.8437L41.1742 31.0851C41.3835 31.1749 44.4239 32.5441 44.4239 36.1595V41.609C44.4238 42.0538 44.7845 42.4147 45.2295 42.4147C45.6745 42.4147 46.0352 42.0539 46.0352 41.609V36.1595C46.0352 31.396 41.9565 29.6644 41.7829 29.593C41.7779 29.5909 41.7727 29.5888 41.7676 29.5869L32.1352 25.8566V23.5975C33.6651 22.4077 34.7259 20.6439 34.9922 18.6317C35.755 18.578 36.4628 18.2931 37.0409 17.796C37.7957 17.1469 38.2289 16.2021 38.2289 15.2044C38.2289 14.3764 37.9301 13.5858 37.3977 12.9697V9.98519C37.3976 4.47938 32.9183 0 27.4125 0C21.9067 0 17.4275 4.47938 17.4275 9.98519V13.0479C16.8894 13.6577 16.5968 14.4084 16.5968 15.2043C16.5968 16.2023 17.0297 17.147 17.7848 17.7963C18.3624 18.2931 19.0697 18.5776 19.8323 18.6315C20.1008 20.6814 21.1925 22.5109 22.8527 23.7167V25.8566L13.2308 29.5868C13.2258 29.5887 13.2207 29.5908 13.2157 29.5928C13.042 29.6642 8.96338 31.3958 8.96338 36.1593V52.9434C8.96338 54.0772 9.88581 54.9997 11.0196 54.9997H18.6957C19.1406 54.9997 19.5014 54.639 19.5014 54.194C19.5014 53.7491 19.1406 53.3884 18.6957 53.3884H16.9622V37.5226C16.9622 37.0776 16.6015 36.7169 16.1566 36.7169C15.7116 36.7169 15.3509 37.0776 15.3509 37.5226V53.3886H11.0198C10.7745 53.3886 10.5749 53.189 10.5749 52.9437V36.1594C10.5749 32.5319 13.6357 31.1658 13.8237 31.0854L19.6066 28.8435L22.1474 33.9355C22.3905 34.4225 22.8841 34.7165 23.4102 34.7165C23.926 34.7165 24.1997 34.4749 24.5637 34.2163L25.2127 35.1932L22.8042 49.4232C22.8028 49.4312 22.8016 49.4393 22.8004 49.4475C22.7422 49.869 22.8725 50.3022 23.1489 50.6064L25.6779 53.3887H22.4558C22.0108 53.3887 21.6501 53.7494 21.6501 54.1943C21.6501 54.6393 22.0108 55 22.4558 55H43.9794C45.1132 55 46.0356 54.0775 46.0356 52.9437V45.369C46.0354 44.9239 45.6747 44.5632 45.2298 44.5632ZM33.8775 28.2594L31.509 33.0063C31.4501 32.9646 30.1949 32.0727 28.6605 30.9832C29.3263 30.1613 28.5474 31.1227 31.5861 27.372L33.8775 28.2594ZM29.1153 33.2828L28.5011 34.2074H26.4919L25.8777 33.2828L27.4966 32.1331L29.1153 33.2828ZM24.4639 26.1165V24.6087C25.4428 25.0033 26.4888 25.1862 27.5104 25.1862C28.5667 25.1862 29.6026 24.9611 30.5238 24.5583V26.1231L27.4966 29.8597L24.4639 26.1165ZM36.6174 15.2044C36.6173 15.7321 36.3887 16.2316 35.9902 16.5743C35.7267 16.801 35.4084 16.9459 35.0598 17.0026V13.4065C35.9858 13.5569 36.6174 14.3249 36.6174 15.2044ZM19.7657 17.0026C18.8292 16.8506 18.2081 16.0763 18.2081 15.2043C18.2081 14.343 18.9221 13.6419 19.7657 13.447V17.0026ZM19.809 11.8052C19.5524 11.8347 19.2583 11.9042 19.039 11.9787V9.98519C19.039 5.36787 22.7953 1.61144 27.4127 1.61144C32.03 1.61144 35.7863 5.36787 35.7863 9.98519V11.9234C35.5521 11.8522 35.3092 11.8051 35.0599 11.783C35.0599 11.0056 35.0667 11.1555 32.5235 8.42134C32.0558 7.91882 31.2821 7.81354 30.6933 8.19822C27.8864 10.0318 24.4623 10.9529 21.303 10.7261C20.6101 10.6742 19.9788 11.1306 19.809 11.8052ZM21.3772 17.637V12.6105V12.3457C24.8549 12.5493 28.5012 11.5162 31.4468 9.62973C32.6132 10.8821 33.2448 11.5389 33.4485 11.7888C33.4485 12.4209 33.4485 16.9134 33.4485 17.6368C33.4485 20.9075 30.7816 23.5747 27.5105 23.5747C23.8373 23.5748 21.3772 20.7253 21.3772 17.637ZM23.4842 33.0063L21.1157 28.2594L23.403 27.3735L26.3293 30.9855C24.8412 32.0422 23.6193 32.9104 23.4842 33.0063ZM24.4086 49.5969L26.7406 35.8186H28.2522L30.5842 49.5969L27.4964 52.9939L24.4086 49.5969Z" fill="#B2D235"/>
</svg>
