<svg width="72" height="72" viewBox="0 0 72 72" fill="none" xmlns="http://www.w3.org/2000/svg">
<path d="M72 36C72 45.5478 68.2072 54.7045 61.4558 61.4558C54.7045 68.2072 45.5478 72 36 72C26.4522 72 17.2955 68.2072 10.5442 61.4558C3.79285 54.7045 0 45.5478 0 36C0 26.4522 3.79285 17.2955 10.5442 10.5442C17.2955 3.79285 26.4522 0 36 0C45.5478 0 54.7045 3.79285 61.4558 10.5442C68.2072 17.2955 72 26.4522 72 36ZM30.555 22.9185C30.2186 22.679 29.8227 22.5366 29.4107 22.5071C28.9988 22.4776 28.5867 22.5621 28.2195 22.7512C27.8524 22.9404 27.5444 23.2269 27.3293 23.5795C27.1142 23.932 27.0003 24.337 27 24.75V47.25C27.0003 47.663 27.1142 48.068 27.3293 48.4205C27.5444 48.7731 27.8524 49.0596 28.2195 49.2488C28.5867 49.4379 28.9988 49.5224 29.4107 49.4929C29.8227 49.4634 30.2186 49.321 30.555 49.0815L46.305 37.8315C46.5967 37.6234 46.8344 37.3486 46.9984 37.03C47.1625 36.7114 47.2481 36.3583 47.2481 36C47.2481 35.6417 47.1625 35.2885 46.9984 34.97C46.8344 34.6514 46.5967 34.3766 46.305 34.1685L30.555 22.9185Z" fill="#B2D235"/>
</svg>
