<svg width="85" height="85" viewBox="0 0 85 85" fill="none" xmlns="http://www.w3.org/2000/svg">
<path d="M51.4648 31.543C50.5484 31.543 49.8047 32.2867 49.8047 33.2031C49.8047 34.1195 50.5484 34.8633 51.4648 34.8633C52.3812 34.8633 53.125 34.1195 53.125 33.2031C53.125 32.2867 52.3812 31.543 51.4648 31.543Z" fill="#B2D235"/>
<path d="M83.0545 73.6643L60.8947 51.5045C64.5047 46.0668 66.4062 39.7699 66.4062 33.2031C66.4062 14.8949 51.5113 0 33.2031 0C14.8949 0 0 14.8949 0 33.2031C0 51.5113 14.8949 66.4062 33.2031 66.4062C39.77 66.4062 46.067 64.5045 51.5045 60.8949L57.6297 67.02C57.6305 67.0208 57.6313 67.0217 57.6323 67.0227L73.6641 83.0545C74.9189 84.309 76.5862 85 78.3594 85C80.1326 85 81.7999 84.309 83.054 83.055C84.3089 81.801 85 80.1336 85 78.3594C85 76.5852 84.3089 74.9177 83.0545 73.6643ZM50.7238 57.3961C50.7238 57.3962 50.7236 57.3963 50.7234 57.3964C45.599 61.1185 39.5408 63.0859 33.2031 63.0859C16.7257 63.0859 3.32031 49.6805 3.32031 33.2031C3.32031 16.7257 16.7257 3.32031 33.2031 3.32031C49.6805 3.32031 63.0859 16.7257 63.0859 33.2031C63.0859 39.5408 61.1185 45.599 57.3962 50.7236C55.5341 53.289 53.2892 55.5341 50.7238 57.3961ZM54.2068 58.9012C55.925 57.4955 57.4957 55.9249 58.9012 54.2068L63.6112 58.9168C62.1788 60.6073 60.6073 62.179 58.9168 63.6112L54.2068 58.9012ZM80.7067 80.7067C80.0791 81.3342 79.2456 81.6797 78.3594 81.6797C77.4732 81.6797 76.6396 81.3342 76.0121 80.7067L61.2707 65.9653C62.952 64.5225 64.5225 62.9521 65.9651 61.2709L80.707 76.0127C81.3342 76.6393 81.6797 77.4725 81.6797 78.3594C81.6797 79.2462 81.3342 80.0795 80.7067 80.7067Z" fill="#B2D235"/>
<path d="M33.2031 6.64062C18.5564 6.64062 6.64062 18.5564 6.64062 33.2031C6.64062 47.8499 18.5564 59.7656 33.2031 59.7656C47.8499 59.7656 59.7656 47.8499 59.7656 33.2031C59.7656 18.5564 47.8499 6.64062 33.2031 6.64062ZM33.2031 56.4453C20.3874 56.4453 9.96094 46.0189 9.96094 33.2031C9.96094 20.3874 20.3874 9.96094 33.2031 9.96094C46.0189 9.96094 56.4453 20.3874 56.4453 33.2031C56.4453 46.0189 46.0189 56.4453 33.2031 56.4453Z" fill="#B2D235"/>
<path d="M51.8077 26.0766C50.3781 22.3558 47.889 19.1746 44.6092 16.8771C41.2514 14.5247 37.3072 13.2812 33.2031 13.2812C32.2864 13.2812 31.543 14.0247 31.543 14.9414C31.543 15.8581 32.2864 16.6016 33.2031 16.6016C40.0262 16.6016 46.2571 20.8878 48.7083 27.2676C48.962 27.9276 49.591 28.3327 50.2584 28.3327C50.4563 28.3327 50.6577 28.297 50.8534 28.2218C51.7092 27.8929 52.1366 26.9325 51.8077 26.0766Z" fill="#B2D235"/>
</svg>
