<svg width="85" height="85" viewBox="0 0 85 85" fill="none" xmlns="http://www.w3.org/2000/svg">
<path d="M6.85473 8.22581H47.9838V17.8226C47.9838 18.581 48.5963 19.1935 49.3547 19.1935H58.9515V30.1613H61.6934V17.8226C61.6934 17.443 61.5388 17.1003 61.2904 16.8519L50.3267 5.8882C50.077 5.63851 49.7343 5.48387 49.3547 5.48387H12.3386V2.74194H64.4354V32.9032H67.1773V1.37097C67.1773 0.612517 66.5648 0 65.8063 0H10.9676C10.2092 0 9.59666 0.612517 9.59666 1.37097V5.48387H5.48376C4.72531 5.48387 4.11279 6.09639 4.11279 6.85484V83.629C4.11279 84.3875 4.72531 85 5.48376 85H52.0967V82.2581H6.85473V8.22581ZM50.7257 10.1644L57.0129 16.4516H50.7257V10.1644Z" fill="#B2D235"/>
<path d="M79.5161 41.1293H77.4516C71.3298 41.1293 65.5721 38.4328 61.654 33.7315L61.3769 33.3982C60.8574 32.7716 59.789 32.7716 59.2696 33.3982L58.9924 33.7302C55.073 38.4328 49.3153 41.1293 43.1935 41.1293H41.129C40.3706 41.1293 39.7581 41.7418 39.7581 42.5002V64.7041C39.7581 70.103 42.67 75.121 47.3573 77.7986L59.6424 84.8195C59.8526 84.94 60.0883 85.0002 60.3226 85.0002C60.5569 85.0002 60.7925 84.94 61.0027 84.8195L73.2879 77.7986C77.9751 75.121 80.8871 70.103 80.8871 64.7041V42.5002C80.8871 41.7418 80.2746 41.1293 79.5161 41.1293V41.1293ZM78.1452 64.7041C78.1452 69.1216 75.764 73.2265 71.9276 75.4168L60.3226 82.0514L48.7175 75.4189C44.8811 73.2265 42.5 69.1216 42.5 64.7041V43.8712H43.1935C49.7357 43.8712 55.9138 41.1527 60.3226 36.3704C64.73 41.1527 70.9094 43.8712 77.4516 43.8712H78.1452V64.7041Z" fill="#B2D235"/>
<path d="M60.3226 45.2417C52.0077 45.2417 45.2419 52.0075 45.2419 60.3223C45.2419 68.6372 52.0077 75.403 60.3226 75.403C68.6374 75.403 75.4032 68.6372 75.4032 60.3223C75.4032 52.0075 68.6374 45.2417 60.3226 45.2417ZM60.3226 72.661C53.5186 72.661 47.9839 67.1263 47.9839 60.3223C47.9839 53.5184 53.5186 47.9836 60.3226 47.9836C67.1265 47.9836 72.6613 53.5184 72.6613 60.3223C72.6613 67.1263 67.1265 72.661 60.3226 72.661Z" fill="#B2D235"/>
<path d="M59.6687 64.5849L57.1791 62.0953L55.2405 64.0339L59.3534 68.1468C59.6124 68.4072 59.9632 68.5485 60.3227 68.5485C60.4338 68.5485 60.5463 68.5351 60.6574 68.5076C61.126 68.3892 61.4962 68.033 61.6361 67.5711L65.749 53.8615L63.1222 53.0742L59.6687 64.5849Z" fill="#B2D235"/>
<path d="M9.59668 21.9355H45.2418V24.6775H9.59668V21.9355Z" fill="#B2D235"/>
<path d="M9.59668 27.4194H45.2418V30.1614H9.59668V27.4194Z" fill="#B2D235"/>
<path d="M9.59668 32.9033H45.2418V35.6453H9.59668V32.9033Z" fill="#B2D235"/>
<path d="M9.59668 38.3872H37.016V41.1291H9.59668V38.3872Z" fill="#B2D235"/>
<path d="M9.59668 43.8711H37.016V46.613H9.59668V43.8711Z" fill="#B2D235"/>
<path d="M9.59668 49.355H37.016V52.0969H9.59668V49.355Z" fill="#B2D235"/>
<path d="M9.59668 65.8066H37.016V68.5486H9.59668V65.8066Z" fill="#B2D235"/>
<path d="M9.59668 71.2905H37.016V74.0325H9.59668V71.2905Z" fill="#B2D235"/>
<path d="M9.59668 76.7744H37.016V79.5163H9.59668V76.7744Z" fill="#B2D235"/>
<path d="M10.9678 10.9678H13.7097V13.7097H10.9678V10.9678Z" fill="#B2D235"/>
<path d="M16.4517 10.9678H19.1936V13.7097H16.4517V10.9678Z" fill="#B2D235"/>
<path d="M21.9355 10.9678H24.6775V13.7097H21.9355V10.9678Z" fill="#B2D235"/>
<path d="M27.4194 10.9678H45.242V13.7097H27.4194V10.9678Z" fill="#B2D235"/>
</svg>
